M48
; DRILL file {KiCad 9.0.3} date 2025-07-16T16:29:40-0400
; FORMAT={-:-/ absolute / metric / decimal}
; #@! TF.CreationDate,2025-07-16T16:29:40-04:00
; #@! TF.GenerationSoftware,Kicad,Pcbnew,9.0.3
; #@! TF.FileFunction,Plated,1,2,PTH
FMAT,2
METRIC
; #@! TA.AperFunction,Plated,PTH,ViaDrill
T1C0.300
; #@! TA.AperFunction,Plated,PTH,ComponentDrill
T2C0.700
; #@! TA.AperFunction,Plated,PTH,ComponentDrill
T3C0.800
; #@! TA.AperFunction,Plated,PTH,ComponentDrill
T4C0.900
; #@! TA.AperFunction,Plated,PTH,ComponentDrill
T5C1.000
; #@! TA.AperFunction,Plated,PTH,ComponentDrill
T6C1.100
; #@! TA.AperFunction,Plated,PTH,ComponentDrill
T7C1.520
%
G90
G05
T1
X113.136Y-74.501
T2
X120.995Y-74.975
X122.27Y-94.025
X122.27Y-97.835
X126.075Y-74.975
X127.35Y-94.025
X127.35Y-97.835
T3
X109.082Y-67.609
X109.082Y-93.263
X111.582Y-67.609
X111.582Y-93.263
X114.162Y-67.609
X116.662Y-67.609
T4
X122.011Y-69.895
X124.551Y-69.895
T5
X112.364Y-57.703
X112.364Y-106.725
X114.904Y-57.703
X114.904Y-106.725
X117.444Y-57.703
X117.444Y-106.725
X128.112Y-81.834
X128.112Y-84.334
X128.112Y-86.834
X134.716Y-57.953
X134.716Y-60.492
X134.716Y-103.881
X134.716Y-106.421
T6
X110.332Y-71.993
X110.332Y-98.785
X112.872Y-71.993
X112.872Y-98.785
X115.412Y-71.993
X115.412Y-98.785
T7
X122.778Y-59.989
X122.778Y-104.439
X127.858Y-59.989
X127.858Y-104.439
T5
G00X115.412Y-82.103
M15
G01X115.412Y-84.103
M16
G05
G00X117.412Y-87.803
M15
G01X119.412Y-87.803
M16
G05
G00X121.412Y-82.103
M15
G01X121.412Y-84.103
M16
G05
M30
