%TF.GenerationSoftware,KiCad,Pcbnew,9.0.3*%
%TF.CreationDate,2025-07-16T16:29:30-04:00*%
%TF.ProjectId,Breadboard_Power_Supply,42726561-6462-46f6-9172-645f506f7765,rev?*%
%TF.SameCoordinates,Original*%
%TF.FileFunction,Legend,Top*%
%TF.FilePolarity,Positive*%
%FSLAX46Y46*%
G04 Gerber Fmt 4.6, Leading zero omitted, Abs format (unit mm)*
G04 Created by KiCad (PCBNEW 9.0.3) date 2025-07-16 16:29:30*
%MOMM*%
%LPD*%
G01*
G04 APERTURE LIST*
%ADD10C,0.100000*%
%ADD11C,0.150000*%
%ADD12C,0.120000*%
%ADD13C,0.127000*%
%ADD14C,0.200000*%
G04 APERTURE END LIST*
D10*
X122477884Y-101345466D02*
X123239789Y-101345466D01*
X122858836Y-101726419D02*
X122858836Y-100964514D01*
X125554800Y-89659734D02*
X125602419Y-89516877D01*
X125602419Y-89516877D02*
X125602419Y-89278782D01*
X125602419Y-89278782D02*
X125554800Y-89183544D01*
X125554800Y-89183544D02*
X125507180Y-89135925D01*
X125507180Y-89135925D02*
X125411942Y-89088306D01*
X125411942Y-89088306D02*
X125316704Y-89088306D01*
X125316704Y-89088306D02*
X125221466Y-89135925D01*
X125221466Y-89135925D02*
X125173847Y-89183544D01*
X125173847Y-89183544D02*
X125126228Y-89278782D01*
X125126228Y-89278782D02*
X125078609Y-89469258D01*
X125078609Y-89469258D02*
X125030990Y-89564496D01*
X125030990Y-89564496D02*
X124983371Y-89612115D01*
X124983371Y-89612115D02*
X124888133Y-89659734D01*
X124888133Y-89659734D02*
X124792895Y-89659734D01*
X124792895Y-89659734D02*
X124697657Y-89612115D01*
X124697657Y-89612115D02*
X124650038Y-89564496D01*
X124650038Y-89564496D02*
X124602419Y-89469258D01*
X124602419Y-89469258D02*
X124602419Y-89231163D01*
X124602419Y-89231163D02*
X124650038Y-89088306D01*
X124602419Y-88754972D02*
X125602419Y-88516877D01*
X125602419Y-88516877D02*
X124888133Y-88326401D01*
X124888133Y-88326401D02*
X125602419Y-88135925D01*
X125602419Y-88135925D02*
X124602419Y-87897830D01*
X125602419Y-87516877D02*
X124602419Y-87516877D01*
X124602419Y-87183544D02*
X124602419Y-86612116D01*
X125602419Y-86897830D02*
X124602419Y-86897830D01*
X125507180Y-85707354D02*
X125554800Y-85754973D01*
X125554800Y-85754973D02*
X125602419Y-85897830D01*
X125602419Y-85897830D02*
X125602419Y-85993068D01*
X125602419Y-85993068D02*
X125554800Y-86135925D01*
X125554800Y-86135925D02*
X125459561Y-86231163D01*
X125459561Y-86231163D02*
X125364323Y-86278782D01*
X125364323Y-86278782D02*
X125173847Y-86326401D01*
X125173847Y-86326401D02*
X125030990Y-86326401D01*
X125030990Y-86326401D02*
X124840514Y-86278782D01*
X124840514Y-86278782D02*
X124745276Y-86231163D01*
X124745276Y-86231163D02*
X124650038Y-86135925D01*
X124650038Y-86135925D02*
X124602419Y-85993068D01*
X124602419Y-85993068D02*
X124602419Y-85897830D01*
X124602419Y-85897830D02*
X124650038Y-85754973D01*
X124650038Y-85754973D02*
X124697657Y-85707354D01*
X125602419Y-85278782D02*
X124602419Y-85278782D01*
X125078609Y-85278782D02*
X125078609Y-84707354D01*
X125602419Y-84707354D02*
X124602419Y-84707354D01*
X116982419Y-60941925D02*
X116982419Y-61418115D01*
X116982419Y-61418115D02*
X117458609Y-61465734D01*
X117458609Y-61465734D02*
X117410990Y-61418115D01*
X117410990Y-61418115D02*
X117363371Y-61322877D01*
X117363371Y-61322877D02*
X117363371Y-61084782D01*
X117363371Y-61084782D02*
X117410990Y-60989544D01*
X117410990Y-60989544D02*
X117458609Y-60941925D01*
X117458609Y-60941925D02*
X117553847Y-60894306D01*
X117553847Y-60894306D02*
X117791942Y-60894306D01*
X117791942Y-60894306D02*
X117887180Y-60941925D01*
X117887180Y-60941925D02*
X117934800Y-60989544D01*
X117934800Y-60989544D02*
X117982419Y-61084782D01*
X117982419Y-61084782D02*
X117982419Y-61322877D01*
X117982419Y-61322877D02*
X117934800Y-61418115D01*
X117934800Y-61418115D02*
X117887180Y-61465734D01*
X116982419Y-60608591D02*
X117982419Y-60275258D01*
X117982419Y-60275258D02*
X116982419Y-59941925D01*
X127303884Y-101345466D02*
X128065789Y-101345466D01*
X121715884Y-71886966D02*
X122477789Y-71886966D01*
X131683337Y-106425466D02*
X132445242Y-106425466D01*
X132064289Y-106806419D02*
X132064289Y-106044514D01*
X111902419Y-63037353D02*
X111902419Y-62418306D01*
X111902419Y-62418306D02*
X112283371Y-62751639D01*
X112283371Y-62751639D02*
X112283371Y-62608782D01*
X112283371Y-62608782D02*
X112330990Y-62513544D01*
X112330990Y-62513544D02*
X112378609Y-62465925D01*
X112378609Y-62465925D02*
X112473847Y-62418306D01*
X112473847Y-62418306D02*
X112711942Y-62418306D01*
X112711942Y-62418306D02*
X112807180Y-62465925D01*
X112807180Y-62465925D02*
X112854800Y-62513544D01*
X112854800Y-62513544D02*
X112902419Y-62608782D01*
X112902419Y-62608782D02*
X112902419Y-62894496D01*
X112902419Y-62894496D02*
X112854800Y-62989734D01*
X112854800Y-62989734D02*
X112807180Y-63037353D01*
X112807180Y-61989734D02*
X112854800Y-61942115D01*
X112854800Y-61942115D02*
X112902419Y-61989734D01*
X112902419Y-61989734D02*
X112854800Y-62037353D01*
X112854800Y-62037353D02*
X112807180Y-61989734D01*
X112807180Y-61989734D02*
X112902419Y-61989734D01*
X111902419Y-61608782D02*
X111902419Y-60989735D01*
X111902419Y-60989735D02*
X112283371Y-61323068D01*
X112283371Y-61323068D02*
X112283371Y-61180211D01*
X112283371Y-61180211D02*
X112330990Y-61084973D01*
X112330990Y-61084973D02*
X112378609Y-61037354D01*
X112378609Y-61037354D02*
X112473847Y-60989735D01*
X112473847Y-60989735D02*
X112711942Y-60989735D01*
X112711942Y-60989735D02*
X112807180Y-61037354D01*
X112807180Y-61037354D02*
X112854800Y-61084973D01*
X112854800Y-61084973D02*
X112902419Y-61180211D01*
X112902419Y-61180211D02*
X112902419Y-61465925D01*
X112902419Y-61465925D02*
X112854800Y-61561163D01*
X112854800Y-61561163D02*
X112807180Y-61608782D01*
X111902419Y-60704020D02*
X112902419Y-60370687D01*
X112902419Y-60370687D02*
X111902419Y-60037354D01*
X132333466Y-57608115D02*
X132333466Y-56846211D01*
X111394419Y-104693353D02*
X111394419Y-104074306D01*
X111394419Y-104074306D02*
X111775371Y-104407639D01*
X111775371Y-104407639D02*
X111775371Y-104264782D01*
X111775371Y-104264782D02*
X111822990Y-104169544D01*
X111822990Y-104169544D02*
X111870609Y-104121925D01*
X111870609Y-104121925D02*
X111965847Y-104074306D01*
X111965847Y-104074306D02*
X112203942Y-104074306D01*
X112203942Y-104074306D02*
X112299180Y-104121925D01*
X112299180Y-104121925D02*
X112346800Y-104169544D01*
X112346800Y-104169544D02*
X112394419Y-104264782D01*
X112394419Y-104264782D02*
X112394419Y-104550496D01*
X112394419Y-104550496D02*
X112346800Y-104645734D01*
X112346800Y-104645734D02*
X112299180Y-104693353D01*
X112299180Y-103645734D02*
X112346800Y-103598115D01*
X112346800Y-103598115D02*
X112394419Y-103645734D01*
X112394419Y-103645734D02*
X112346800Y-103693353D01*
X112346800Y-103693353D02*
X112299180Y-103645734D01*
X112299180Y-103645734D02*
X112394419Y-103645734D01*
X111394419Y-103264782D02*
X111394419Y-102645735D01*
X111394419Y-102645735D02*
X111775371Y-102979068D01*
X111775371Y-102979068D02*
X111775371Y-102836211D01*
X111775371Y-102836211D02*
X111822990Y-102740973D01*
X111822990Y-102740973D02*
X111870609Y-102693354D01*
X111870609Y-102693354D02*
X111965847Y-102645735D01*
X111965847Y-102645735D02*
X112203942Y-102645735D01*
X112203942Y-102645735D02*
X112299180Y-102693354D01*
X112299180Y-102693354D02*
X112346800Y-102740973D01*
X112346800Y-102740973D02*
X112394419Y-102836211D01*
X112394419Y-102836211D02*
X112394419Y-103121925D01*
X112394419Y-103121925D02*
X112346800Y-103217163D01*
X112346800Y-103217163D02*
X112299180Y-103264782D01*
X111394419Y-102360020D02*
X112394419Y-102026687D01*
X112394419Y-102026687D02*
X111394419Y-101693354D01*
X127982424Y-63495615D02*
X127982424Y-62733711D01*
X128363377Y-63114663D02*
X127601472Y-63114663D01*
X127888419Y-72848115D02*
X126888419Y-72848115D01*
X126888419Y-72848115D02*
X126888419Y-72467163D01*
X126888419Y-72467163D02*
X126936038Y-72371925D01*
X126936038Y-72371925D02*
X126983657Y-72324306D01*
X126983657Y-72324306D02*
X127078895Y-72276687D01*
X127078895Y-72276687D02*
X127221752Y-72276687D01*
X127221752Y-72276687D02*
X127316990Y-72324306D01*
X127316990Y-72324306D02*
X127364609Y-72371925D01*
X127364609Y-72371925D02*
X127412228Y-72467163D01*
X127412228Y-72467163D02*
X127412228Y-72848115D01*
X126888419Y-71943353D02*
X127888419Y-71705258D01*
X127888419Y-71705258D02*
X127174133Y-71514782D01*
X127174133Y-71514782D02*
X127888419Y-71324306D01*
X127888419Y-71324306D02*
X126888419Y-71086211D01*
X127888419Y-70133830D02*
X127412228Y-70467163D01*
X127888419Y-70705258D02*
X126888419Y-70705258D01*
X126888419Y-70705258D02*
X126888419Y-70324306D01*
X126888419Y-70324306D02*
X126936038Y-70229068D01*
X126936038Y-70229068D02*
X126983657Y-70181449D01*
X126983657Y-70181449D02*
X127078895Y-70133830D01*
X127078895Y-70133830D02*
X127221752Y-70133830D01*
X127221752Y-70133830D02*
X127316990Y-70181449D01*
X127316990Y-70181449D02*
X127364609Y-70229068D01*
X127364609Y-70229068D02*
X127412228Y-70324306D01*
X127412228Y-70324306D02*
X127412228Y-70705258D01*
X127983657Y-69943354D02*
X127983657Y-69181449D01*
X127888419Y-68467163D02*
X127888419Y-68943353D01*
X127888419Y-68943353D02*
X126888419Y-68943353D01*
X127364609Y-68133829D02*
X127364609Y-67800496D01*
X127888419Y-67657639D02*
X127888419Y-68133829D01*
X127888419Y-68133829D02*
X126888419Y-68133829D01*
X126888419Y-68133829D02*
X126888419Y-67657639D01*
X127888419Y-67229067D02*
X126888419Y-67229067D01*
X126888419Y-67229067D02*
X126888419Y-66990972D01*
X126888419Y-66990972D02*
X126936038Y-66848115D01*
X126936038Y-66848115D02*
X127031276Y-66752877D01*
X127031276Y-66752877D02*
X127126514Y-66705258D01*
X127126514Y-66705258D02*
X127316990Y-66657639D01*
X127316990Y-66657639D02*
X127459847Y-66657639D01*
X127459847Y-66657639D02*
X127650323Y-66705258D01*
X127650323Y-66705258D02*
X127745561Y-66752877D01*
X127745561Y-66752877D02*
X127840800Y-66848115D01*
X127840800Y-66848115D02*
X127888419Y-66990972D01*
X127888419Y-66990972D02*
X127888419Y-67229067D01*
X123140115Y-63246533D02*
X122378211Y-63246533D01*
X111063693Y-89280419D02*
X110492265Y-89280419D01*
X110777979Y-89280419D02*
X110777979Y-88280419D01*
X110777979Y-88280419D02*
X110682741Y-88423276D01*
X110682741Y-88423276D02*
X110587503Y-88518514D01*
X110587503Y-88518514D02*
X110492265Y-88566133D01*
X111444646Y-88375657D02*
X111492265Y-88328038D01*
X111492265Y-88328038D02*
X111587503Y-88280419D01*
X111587503Y-88280419D02*
X111825598Y-88280419D01*
X111825598Y-88280419D02*
X111920836Y-88328038D01*
X111920836Y-88328038D02*
X111968455Y-88375657D01*
X111968455Y-88375657D02*
X112016074Y-88470895D01*
X112016074Y-88470895D02*
X112016074Y-88566133D01*
X112016074Y-88566133D02*
X111968455Y-88708990D01*
X111968455Y-88708990D02*
X111397027Y-89280419D01*
X111397027Y-89280419D02*
X112016074Y-89280419D01*
X112301789Y-88280419D02*
X112635122Y-89280419D01*
X112635122Y-89280419D02*
X112968455Y-88280419D01*
X114063694Y-89280419D02*
X114063694Y-88280419D01*
X114063694Y-88280419D02*
X114301789Y-88280419D01*
X114301789Y-88280419D02*
X114444646Y-88328038D01*
X114444646Y-88328038D02*
X114539884Y-88423276D01*
X114539884Y-88423276D02*
X114587503Y-88518514D01*
X114587503Y-88518514D02*
X114635122Y-88708990D01*
X114635122Y-88708990D02*
X114635122Y-88851847D01*
X114635122Y-88851847D02*
X114587503Y-89042323D01*
X114587503Y-89042323D02*
X114539884Y-89137561D01*
X114539884Y-89137561D02*
X114444646Y-89232800D01*
X114444646Y-89232800D02*
X114301789Y-89280419D01*
X114301789Y-89280419D02*
X114063694Y-89280419D01*
X115635122Y-89185180D02*
X115587503Y-89232800D01*
X115587503Y-89232800D02*
X115444646Y-89280419D01*
X115444646Y-89280419D02*
X115349408Y-89280419D01*
X115349408Y-89280419D02*
X115206551Y-89232800D01*
X115206551Y-89232800D02*
X115111313Y-89137561D01*
X115111313Y-89137561D02*
X115063694Y-89042323D01*
X115063694Y-89042323D02*
X115016075Y-88851847D01*
X115016075Y-88851847D02*
X115016075Y-88708990D01*
X115016075Y-88708990D02*
X115063694Y-88518514D01*
X115063694Y-88518514D02*
X115111313Y-88423276D01*
X115111313Y-88423276D02*
X115206551Y-88328038D01*
X115206551Y-88328038D02*
X115349408Y-88280419D01*
X115349408Y-88280419D02*
X115444646Y-88280419D01*
X115444646Y-88280419D02*
X115587503Y-88328038D01*
X115587503Y-88328038D02*
X115635122Y-88375657D01*
X132079466Y-104090115D02*
X132079466Y-103328211D01*
X124255884Y-71886966D02*
X125017789Y-71886966D01*
X124636836Y-72267919D02*
X124636836Y-71506014D01*
X116474419Y-104121925D02*
X116474419Y-104598115D01*
X116474419Y-104598115D02*
X116950609Y-104645734D01*
X116950609Y-104645734D02*
X116902990Y-104598115D01*
X116902990Y-104598115D02*
X116855371Y-104502877D01*
X116855371Y-104502877D02*
X116855371Y-104264782D01*
X116855371Y-104264782D02*
X116902990Y-104169544D01*
X116902990Y-104169544D02*
X116950609Y-104121925D01*
X116950609Y-104121925D02*
X117045847Y-104074306D01*
X117045847Y-104074306D02*
X117283942Y-104074306D01*
X117283942Y-104074306D02*
X117379180Y-104121925D01*
X117379180Y-104121925D02*
X117426800Y-104169544D01*
X117426800Y-104169544D02*
X117474419Y-104264782D01*
X117474419Y-104264782D02*
X117474419Y-104502877D01*
X117474419Y-104502877D02*
X117426800Y-104598115D01*
X117426800Y-104598115D02*
X117379180Y-104645734D01*
X116474419Y-103788591D02*
X117474419Y-103455258D01*
X117474419Y-103455258D02*
X116474419Y-103121925D01*
X132333466Y-60910115D02*
X132333466Y-60148211D01*
X132714419Y-60529163D02*
X131952514Y-60529163D01*
D11*
X115245333Y-67923580D02*
X115197714Y-67971200D01*
X115197714Y-67971200D02*
X115054857Y-68018819D01*
X115054857Y-68018819D02*
X114959619Y-68018819D01*
X114959619Y-68018819D02*
X114816762Y-67971200D01*
X114816762Y-67971200D02*
X114721524Y-67875961D01*
X114721524Y-67875961D02*
X114673905Y-67780723D01*
X114673905Y-67780723D02*
X114626286Y-67590247D01*
X114626286Y-67590247D02*
X114626286Y-67447390D01*
X114626286Y-67447390D02*
X114673905Y-67256914D01*
X114673905Y-67256914D02*
X114721524Y-67161676D01*
X114721524Y-67161676D02*
X114816762Y-67066438D01*
X114816762Y-67066438D02*
X114959619Y-67018819D01*
X114959619Y-67018819D02*
X115054857Y-67018819D01*
X115054857Y-67018819D02*
X115197714Y-67066438D01*
X115197714Y-67066438D02*
X115245333Y-67114057D01*
X116197714Y-68018819D02*
X115626286Y-68018819D01*
X115912000Y-68018819D02*
X115912000Y-67018819D01*
X115912000Y-67018819D02*
X115816762Y-67161676D01*
X115816762Y-67161676D02*
X115721524Y-67256914D01*
X115721524Y-67256914D02*
X115626286Y-67304533D01*
X124651332Y-106434319D02*
X124651332Y-107148604D01*
X124651332Y-107148604D02*
X124603713Y-107291461D01*
X124603713Y-107291461D02*
X124508475Y-107386700D01*
X124508475Y-107386700D02*
X124365618Y-107434319D01*
X124365618Y-107434319D02*
X124270380Y-107434319D01*
X125032285Y-106434319D02*
X125698951Y-106434319D01*
X125698951Y-106434319D02*
X125270380Y-107434319D01*
X123368333Y-75384819D02*
X123035000Y-74908628D01*
X122796905Y-75384819D02*
X122796905Y-74384819D01*
X122796905Y-74384819D02*
X123177857Y-74384819D01*
X123177857Y-74384819D02*
X123273095Y-74432438D01*
X123273095Y-74432438D02*
X123320714Y-74480057D01*
X123320714Y-74480057D02*
X123368333Y-74575295D01*
X123368333Y-74575295D02*
X123368333Y-74718152D01*
X123368333Y-74718152D02*
X123320714Y-74813390D01*
X123320714Y-74813390D02*
X123273095Y-74861009D01*
X123273095Y-74861009D02*
X123177857Y-74908628D01*
X123177857Y-74908628D02*
X122796905Y-74908628D01*
X124320714Y-75384819D02*
X123749286Y-75384819D01*
X124035000Y-75384819D02*
X124035000Y-74384819D01*
X124035000Y-74384819D02*
X123939762Y-74527676D01*
X123939762Y-74527676D02*
X123844524Y-74622914D01*
X123844524Y-74622914D02*
X123749286Y-74670533D01*
X124643333Y-98244819D02*
X124310000Y-97768628D01*
X124071905Y-98244819D02*
X124071905Y-97244819D01*
X124071905Y-97244819D02*
X124452857Y-97244819D01*
X124452857Y-97244819D02*
X124548095Y-97292438D01*
X124548095Y-97292438D02*
X124595714Y-97340057D01*
X124595714Y-97340057D02*
X124643333Y-97435295D01*
X124643333Y-97435295D02*
X124643333Y-97578152D01*
X124643333Y-97578152D02*
X124595714Y-97673390D01*
X124595714Y-97673390D02*
X124548095Y-97721009D01*
X124548095Y-97721009D02*
X124452857Y-97768628D01*
X124452857Y-97768628D02*
X124071905Y-97768628D01*
X124976667Y-97244819D02*
X125595714Y-97244819D01*
X125595714Y-97244819D02*
X125262381Y-97625771D01*
X125262381Y-97625771D02*
X125405238Y-97625771D01*
X125405238Y-97625771D02*
X125500476Y-97673390D01*
X125500476Y-97673390D02*
X125548095Y-97721009D01*
X125548095Y-97721009D02*
X125595714Y-97816247D01*
X125595714Y-97816247D02*
X125595714Y-98054342D01*
X125595714Y-98054342D02*
X125548095Y-98149580D01*
X125548095Y-98149580D02*
X125500476Y-98197200D01*
X125500476Y-98197200D02*
X125405238Y-98244819D01*
X125405238Y-98244819D02*
X125119524Y-98244819D01*
X125119524Y-98244819D02*
X125024286Y-98197200D01*
X125024286Y-98197200D02*
X124976667Y-98149580D01*
X110165333Y-67923580D02*
X110117714Y-67971200D01*
X110117714Y-67971200D02*
X109974857Y-68018819D01*
X109974857Y-68018819D02*
X109879619Y-68018819D01*
X109879619Y-68018819D02*
X109736762Y-67971200D01*
X109736762Y-67971200D02*
X109641524Y-67875961D01*
X109641524Y-67875961D02*
X109593905Y-67780723D01*
X109593905Y-67780723D02*
X109546286Y-67590247D01*
X109546286Y-67590247D02*
X109546286Y-67447390D01*
X109546286Y-67447390D02*
X109593905Y-67256914D01*
X109593905Y-67256914D02*
X109641524Y-67161676D01*
X109641524Y-67161676D02*
X109736762Y-67066438D01*
X109736762Y-67066438D02*
X109879619Y-67018819D01*
X109879619Y-67018819D02*
X109974857Y-67018819D01*
X109974857Y-67018819D02*
X110117714Y-67066438D01*
X110117714Y-67066438D02*
X110165333Y-67114057D01*
X110546286Y-67114057D02*
X110593905Y-67066438D01*
X110593905Y-67066438D02*
X110689143Y-67018819D01*
X110689143Y-67018819D02*
X110927238Y-67018819D01*
X110927238Y-67018819D02*
X111022476Y-67066438D01*
X111022476Y-67066438D02*
X111070095Y-67114057D01*
X111070095Y-67114057D02*
X111117714Y-67209295D01*
X111117714Y-67209295D02*
X111117714Y-67304533D01*
X111117714Y-67304533D02*
X111070095Y-67447390D01*
X111070095Y-67447390D02*
X110498667Y-68018819D01*
X110498667Y-68018819D02*
X111117714Y-68018819D01*
X125238666Y-56904319D02*
X125238666Y-57618604D01*
X125238666Y-57618604D02*
X125191047Y-57761461D01*
X125191047Y-57761461D02*
X125095809Y-57856700D01*
X125095809Y-57856700D02*
X124952952Y-57904319D01*
X124952952Y-57904319D02*
X124857714Y-57904319D01*
X126191047Y-56904319D02*
X125714857Y-56904319D01*
X125714857Y-56904319D02*
X125667238Y-57380509D01*
X125667238Y-57380509D02*
X125714857Y-57332890D01*
X125714857Y-57332890D02*
X125810095Y-57285271D01*
X125810095Y-57285271D02*
X126048190Y-57285271D01*
X126048190Y-57285271D02*
X126143428Y-57332890D01*
X126143428Y-57332890D02*
X126191047Y-57380509D01*
X126191047Y-57380509D02*
X126238666Y-57475747D01*
X126238666Y-57475747D02*
X126238666Y-57713842D01*
X126238666Y-57713842D02*
X126191047Y-57809080D01*
X126191047Y-57809080D02*
X126143428Y-57856700D01*
X126143428Y-57856700D02*
X126048190Y-57904319D01*
X126048190Y-57904319D02*
X125810095Y-57904319D01*
X125810095Y-57904319D02*
X125714857Y-57856700D01*
X125714857Y-57856700D02*
X125667238Y-57809080D01*
X112110095Y-95720819D02*
X112110095Y-96530342D01*
X112110095Y-96530342D02*
X112157714Y-96625580D01*
X112157714Y-96625580D02*
X112205333Y-96673200D01*
X112205333Y-96673200D02*
X112300571Y-96720819D01*
X112300571Y-96720819D02*
X112491047Y-96720819D01*
X112491047Y-96720819D02*
X112586285Y-96673200D01*
X112586285Y-96673200D02*
X112633904Y-96625580D01*
X112633904Y-96625580D02*
X112681523Y-96530342D01*
X112681523Y-96530342D02*
X112681523Y-95720819D01*
X113681523Y-96720819D02*
X113110095Y-96720819D01*
X113395809Y-96720819D02*
X113395809Y-95720819D01*
X113395809Y-95720819D02*
X113300571Y-95863676D01*
X113300571Y-95863676D02*
X113205333Y-95958914D01*
X113205333Y-95958914D02*
X113110095Y-96006533D01*
X112110095Y-74130819D02*
X112110095Y-74940342D01*
X112110095Y-74940342D02*
X112157714Y-75035580D01*
X112157714Y-75035580D02*
X112205333Y-75083200D01*
X112205333Y-75083200D02*
X112300571Y-75130819D01*
X112300571Y-75130819D02*
X112491047Y-75130819D01*
X112491047Y-75130819D02*
X112586285Y-75083200D01*
X112586285Y-75083200D02*
X112633904Y-75035580D01*
X112633904Y-75035580D02*
X112681523Y-74940342D01*
X112681523Y-74940342D02*
X112681523Y-74130819D01*
X113110095Y-74226057D02*
X113157714Y-74178438D01*
X113157714Y-74178438D02*
X113252952Y-74130819D01*
X113252952Y-74130819D02*
X113491047Y-74130819D01*
X113491047Y-74130819D02*
X113586285Y-74178438D01*
X113586285Y-74178438D02*
X113633904Y-74226057D01*
X113633904Y-74226057D02*
X113681523Y-74321295D01*
X113681523Y-74321295D02*
X113681523Y-74416533D01*
X113681523Y-74416533D02*
X113633904Y-74559390D01*
X113633904Y-74559390D02*
X113062476Y-75130819D01*
X113062476Y-75130819D02*
X113681523Y-75130819D01*
X124547333Y-94434819D02*
X124214000Y-93958628D01*
X123975905Y-94434819D02*
X123975905Y-93434819D01*
X123975905Y-93434819D02*
X124356857Y-93434819D01*
X124356857Y-93434819D02*
X124452095Y-93482438D01*
X124452095Y-93482438D02*
X124499714Y-93530057D01*
X124499714Y-93530057D02*
X124547333Y-93625295D01*
X124547333Y-93625295D02*
X124547333Y-93768152D01*
X124547333Y-93768152D02*
X124499714Y-93863390D01*
X124499714Y-93863390D02*
X124452095Y-93911009D01*
X124452095Y-93911009D02*
X124356857Y-93958628D01*
X124356857Y-93958628D02*
X123975905Y-93958628D01*
X124928286Y-93530057D02*
X124975905Y-93482438D01*
X124975905Y-93482438D02*
X125071143Y-93434819D01*
X125071143Y-93434819D02*
X125309238Y-93434819D01*
X125309238Y-93434819D02*
X125404476Y-93482438D01*
X125404476Y-93482438D02*
X125452095Y-93530057D01*
X125452095Y-93530057D02*
X125499714Y-93625295D01*
X125499714Y-93625295D02*
X125499714Y-93720533D01*
X125499714Y-93720533D02*
X125452095Y-93863390D01*
X125452095Y-93863390D02*
X124880667Y-94434819D01*
X124880667Y-94434819D02*
X125499714Y-94434819D01*
X110165333Y-93577580D02*
X110117714Y-93625200D01*
X110117714Y-93625200D02*
X109974857Y-93672819D01*
X109974857Y-93672819D02*
X109879619Y-93672819D01*
X109879619Y-93672819D02*
X109736762Y-93625200D01*
X109736762Y-93625200D02*
X109641524Y-93529961D01*
X109641524Y-93529961D02*
X109593905Y-93434723D01*
X109593905Y-93434723D02*
X109546286Y-93244247D01*
X109546286Y-93244247D02*
X109546286Y-93101390D01*
X109546286Y-93101390D02*
X109593905Y-92910914D01*
X109593905Y-92910914D02*
X109641524Y-92815676D01*
X109641524Y-92815676D02*
X109736762Y-92720438D01*
X109736762Y-92720438D02*
X109879619Y-92672819D01*
X109879619Y-92672819D02*
X109974857Y-92672819D01*
X109974857Y-92672819D02*
X110117714Y-92720438D01*
X110117714Y-92720438D02*
X110165333Y-92768057D01*
X110498667Y-92672819D02*
X111117714Y-92672819D01*
X111117714Y-92672819D02*
X110784381Y-93053771D01*
X110784381Y-93053771D02*
X110927238Y-93053771D01*
X110927238Y-93053771D02*
X111022476Y-93101390D01*
X111022476Y-93101390D02*
X111070095Y-93149009D01*
X111070095Y-93149009D02*
X111117714Y-93244247D01*
X111117714Y-93244247D02*
X111117714Y-93482342D01*
X111117714Y-93482342D02*
X111070095Y-93577580D01*
X111070095Y-93577580D02*
X111022476Y-93625200D01*
X111022476Y-93625200D02*
X110927238Y-93672819D01*
X110927238Y-93672819D02*
X110641524Y-93672819D01*
X110641524Y-93672819D02*
X110546286Y-93625200D01*
X110546286Y-93625200D02*
X110498667Y-93577580D01*
X122542905Y-68526819D02*
X122542905Y-67526819D01*
X122542905Y-67526819D02*
X122781000Y-67526819D01*
X122781000Y-67526819D02*
X122923857Y-67574438D01*
X122923857Y-67574438D02*
X123019095Y-67669676D01*
X123019095Y-67669676D02*
X123066714Y-67764914D01*
X123066714Y-67764914D02*
X123114333Y-67955390D01*
X123114333Y-67955390D02*
X123114333Y-68098247D01*
X123114333Y-68098247D02*
X123066714Y-68288723D01*
X123066714Y-68288723D02*
X123019095Y-68383961D01*
X123019095Y-68383961D02*
X122923857Y-68479200D01*
X122923857Y-68479200D02*
X122781000Y-68526819D01*
X122781000Y-68526819D02*
X122542905Y-68526819D01*
X124066714Y-68526819D02*
X123495286Y-68526819D01*
X123781000Y-68526819D02*
X123781000Y-67526819D01*
X123781000Y-67526819D02*
X123685762Y-67669676D01*
X123685762Y-67669676D02*
X123590524Y-67764914D01*
X123590524Y-67764914D02*
X123495286Y-67812533D01*
X111522666Y-82304319D02*
X111522666Y-83018604D01*
X111522666Y-83018604D02*
X111475047Y-83161461D01*
X111475047Y-83161461D02*
X111379809Y-83256700D01*
X111379809Y-83256700D02*
X111236952Y-83304319D01*
X111236952Y-83304319D02*
X111141714Y-83304319D01*
X112427428Y-82304319D02*
X112236952Y-82304319D01*
X112236952Y-82304319D02*
X112141714Y-82351938D01*
X112141714Y-82351938D02*
X112094095Y-82399557D01*
X112094095Y-82399557D02*
X111998857Y-82542414D01*
X111998857Y-82542414D02*
X111951238Y-82732890D01*
X111951238Y-82732890D02*
X111951238Y-83113842D01*
X111951238Y-83113842D02*
X111998857Y-83209080D01*
X111998857Y-83209080D02*
X112046476Y-83256700D01*
X112046476Y-83256700D02*
X112141714Y-83304319D01*
X112141714Y-83304319D02*
X112332190Y-83304319D01*
X112332190Y-83304319D02*
X112427428Y-83256700D01*
X112427428Y-83256700D02*
X112475047Y-83209080D01*
X112475047Y-83209080D02*
X112522666Y-83113842D01*
X112522666Y-83113842D02*
X112522666Y-82875747D01*
X112522666Y-82875747D02*
X112475047Y-82780509D01*
X112475047Y-82780509D02*
X112427428Y-82732890D01*
X112427428Y-82732890D02*
X112332190Y-82685271D01*
X112332190Y-82685271D02*
X112141714Y-82685271D01*
X112141714Y-82685271D02*
X112046476Y-82732890D01*
X112046476Y-82732890D02*
X111998857Y-82780509D01*
X111998857Y-82780509D02*
X111951238Y-82875747D01*
X113246819Y-106251333D02*
X113961104Y-106251333D01*
X113961104Y-106251333D02*
X114103961Y-106298952D01*
X114103961Y-106298952D02*
X114199200Y-106394190D01*
X114199200Y-106394190D02*
X114246819Y-106537047D01*
X114246819Y-106537047D02*
X114246819Y-106632285D01*
X113580152Y-105346571D02*
X114246819Y-105346571D01*
X113199200Y-105584666D02*
X113913485Y-105822761D01*
X113913485Y-105822761D02*
X113913485Y-105203714D01*
D12*
%TO.C,C1*%
X114647000Y-66689500D02*
X116177000Y-66689500D01*
X116177000Y-68529500D02*
X114647000Y-68529500D01*
%TO.C,J7*%
X120238000Y-100629500D02*
X120238000Y-108249500D01*
X120238000Y-101899500D02*
X130398000Y-101899500D01*
X120238000Y-108249500D02*
X130398000Y-108249500D01*
X130398000Y-100629500D02*
X120238000Y-100629500D01*
X130398000Y-108249500D02*
X130398000Y-100629500D01*
%TO.C,R1*%
X125455000Y-74055500D02*
X121615000Y-74055500D01*
X125455000Y-75895500D02*
X121615000Y-75895500D01*
%TO.C,R3*%
X122890000Y-96915500D02*
X126730000Y-96915500D01*
X122890000Y-98755500D02*
X126730000Y-98755500D01*
%TO.C,C2*%
X109567000Y-66689500D02*
X111097000Y-66689500D01*
X111097000Y-68529500D02*
X109567000Y-68529500D01*
%TO.C,J5*%
X120238000Y-56179500D02*
X120238000Y-63799500D01*
X120238000Y-63799500D02*
X130398000Y-63799500D01*
X130398000Y-56179500D02*
X120238000Y-56179500D01*
X130398000Y-62529500D02*
X120238000Y-62529500D01*
X130398000Y-63799500D02*
X130398000Y-56179500D01*
%TO.C,U1*%
X107762000Y-95525500D02*
X117982000Y-95525500D01*
X107762000Y-96905500D02*
X117982000Y-96905500D01*
X107762000Y-100145500D02*
X107762000Y-95525500D01*
X111022000Y-95525500D02*
X111022000Y-96905500D01*
X114722000Y-95525500D02*
X114722000Y-96905500D01*
X117982000Y-95525500D02*
X117982000Y-100145500D01*
X117982000Y-100145500D02*
X107762000Y-100145500D01*
%TO.C,U2*%
X107762000Y-70633500D02*
X117982000Y-70633500D01*
X107762000Y-75253500D02*
X107762000Y-70633500D01*
X111022000Y-75253500D02*
X111022000Y-73873500D01*
X114722000Y-75253500D02*
X114722000Y-73873500D01*
X117982000Y-70633500D02*
X117982000Y-75253500D01*
X117982000Y-73873500D02*
X107762000Y-73873500D01*
X117982000Y-75253500D02*
X107762000Y-75253500D01*
%TO.C,R2*%
X122890000Y-93105500D02*
X126730000Y-93105500D01*
X122890000Y-94945500D02*
X126730000Y-94945500D01*
%TO.C,C3*%
X109567000Y-92343500D02*
X111097000Y-92343500D01*
X111097000Y-94183500D02*
X109567000Y-94183500D01*
D13*
%TO.C,S1*%
X126112000Y-78533500D02*
X130112000Y-78533500D01*
X126112000Y-90133500D02*
X126112000Y-78533500D01*
X130112000Y-78533500D02*
X130112000Y-90133500D01*
X130112000Y-90133500D02*
X126112000Y-90133500D01*
D14*
X130712000Y-86833500D02*
G75*
G02*
X130512000Y-86833500I-100000J0D01*
G01*
X130512000Y-86833500D02*
G75*
G02*
X130712000Y-86833500I100000J0D01*
G01*
D12*
%TO.C,J2*%
X133336000Y-102500700D02*
X134716000Y-102500700D01*
X133336000Y-103880700D02*
X133336000Y-102500700D01*
X133336000Y-105150700D02*
X133336000Y-107800700D01*
X133336000Y-105150700D02*
X136096000Y-105150700D01*
X133336000Y-107800700D02*
X136096000Y-107800700D01*
X136096000Y-105150700D02*
X136096000Y-107800700D01*
%TO.C,J1*%
X133336000Y-56572500D02*
X134716000Y-56572500D01*
X133336000Y-57952500D02*
X133336000Y-56572500D01*
X133336000Y-59222500D02*
X133336000Y-61872500D01*
X133336000Y-59222500D02*
X136096000Y-59222500D01*
X133336000Y-61872500D02*
X136096000Y-61872500D01*
X136096000Y-59222500D02*
X136096000Y-61872500D01*
%TO.C,D1*%
X120721000Y-68350500D02*
X120721000Y-71440500D01*
X120721000Y-68350670D02*
G75*
G02*
X126271000Y-69895500I2560000J-1544830D01*
G01*
X126271000Y-69895500D02*
G75*
G02*
X120721000Y-71440330I-2990000J0D01*
G01*
X125781000Y-69895500D02*
G75*
G02*
X120781000Y-69895500I-2500000J0D01*
G01*
X120781000Y-69895500D02*
G75*
G02*
X125781000Y-69895500I2500000J0D01*
G01*
%TO.C,J6*%
X107612000Y-78503500D02*
X122312000Y-78503500D01*
X107612000Y-87703500D02*
X107612000Y-78503500D01*
X116412000Y-87703500D02*
X107612000Y-87703500D01*
X121462000Y-78303500D02*
X122512000Y-78303500D01*
X122312000Y-78503500D02*
X122312000Y-81103500D01*
X122312000Y-85003500D02*
X122312000Y-87703500D01*
X122312000Y-87703500D02*
X120412000Y-87703500D01*
X122512000Y-79353500D02*
X122512000Y-78303500D01*
%TO.C,J4*%
X110984000Y-108105500D02*
X110984000Y-106725500D01*
X112364000Y-108105500D02*
X110984000Y-108105500D01*
X113634000Y-105345500D02*
X118824000Y-105345500D01*
X113634000Y-108105500D02*
X113634000Y-105345500D01*
X113634000Y-108105500D02*
X118824000Y-108105500D01*
X118824000Y-108105500D02*
X118824000Y-105345500D01*
%TO.C,J3*%
X110984000Y-59083500D02*
X110984000Y-57703500D01*
X112364000Y-59083500D02*
X110984000Y-59083500D01*
X113634000Y-56323500D02*
X118824000Y-56323500D01*
X113634000Y-59083500D02*
X113634000Y-56323500D01*
X113634000Y-59083500D02*
X118824000Y-59083500D01*
X118824000Y-59083500D02*
X118824000Y-56323500D01*
%TD*%
M02*
