%TF.GenerationSoftware,KiCad,Pcbnew,9.0.3*%
%TF.CreationDate,2025-07-16T16:29:30-04:00*%
%TF.ProjectId,Breadboard_Power_Supply,42726561-6462-46f6-9172-645f506f7765,rev?*%
%TF.SameCoordinates,Original*%
%TF.FileFunction,Soldermask,Top*%
%TF.FilePolarity,Negative*%
%FSLAX46Y46*%
G04 Gerber Fmt 4.6, Leading zero omitted, Abs format (unit mm)*
G04 Created by KiCad (PCBNEW 9.0.3) date 2025-07-16 16:29:30*
%MOMM*%
%LPD*%
G01*
G04 APERTURE LIST*
G04 Aperture macros list*
%AMRoundRect*
0 Rectangle with rounded corners*
0 $1 Rounding radius*
0 $2 $3 $4 $5 $6 $7 $8 $9 X,Y pos of 4 corners*
0 Add a 4 corners polygon primitive as box body*
4,1,4,$2,$3,$4,$5,$6,$7,$8,$9,$2,$3,0*
0 Add four circle primitives for the rounded corners*
1,1,$1+$1,$2,$3*
1,1,$1+$1,$4,$5*
1,1,$1+$1,$6,$7*
1,1,$1+$1,$8,$9*
0 Add four rect primitives between the rounded corners*
20,1,$1+$1,$2,$3,$4,$5,0*
20,1,$1+$1,$4,$5,$6,$7,0*
20,1,$1+$1,$6,$7,$8,$9,0*
20,1,$1+$1,$8,$9,$2,$3,0*%
G04 Aperture macros list end*
%ADD10C,1.600000*%
%ADD11R,3.000000X3.000000*%
%ADD12C,3.000000*%
%ADD13C,1.400000*%
%ADD14R,1.905000X2.000000*%
%ADD15O,1.905000X2.000000*%
%ADD16C,1.712000*%
%ADD17R,1.700000X1.700000*%
%ADD18C,1.700000*%
%ADD19R,1.800000X1.800000*%
%ADD20C,1.800000*%
%ADD21R,3.500000X3.500000*%
%ADD22RoundRect,0.750000X-0.750000X-1.000000X0.750000X-1.000000X0.750000X1.000000X-0.750000X1.000000X0*%
%ADD23RoundRect,0.875000X-0.875000X-0.875000X0.875000X-0.875000X0.875000X0.875000X-0.875000X0.875000X0*%
G04 APERTURE END LIST*
D10*
%TO.C,C1*%
X114162000Y-67609500D03*
X116662000Y-67609500D03*
%TD*%
D11*
%TO.C,J7*%
X127858000Y-104439500D03*
D12*
X122778000Y-104439500D03*
%TD*%
D13*
%TO.C,R1*%
X126075000Y-74975500D03*
X120995000Y-74975500D03*
%TD*%
%TO.C,R3*%
X122270000Y-97835500D03*
X127350000Y-97835500D03*
%TD*%
D10*
%TO.C,C2*%
X109082000Y-67609500D03*
X111582000Y-67609500D03*
%TD*%
D11*
%TO.C,J5*%
X122778000Y-59989500D03*
D12*
X127858000Y-59989500D03*
%TD*%
D14*
%TO.C,U1*%
X110332000Y-98785500D03*
D15*
X112872000Y-98785500D03*
X115412000Y-98785500D03*
%TD*%
D14*
%TO.C,U2*%
X115412000Y-71993500D03*
D15*
X112872000Y-71993500D03*
X110332000Y-71993500D03*
%TD*%
D13*
%TO.C,R2*%
X122270000Y-94025500D03*
X127350000Y-94025500D03*
%TD*%
D10*
%TO.C,C3*%
X109082000Y-93263500D03*
X111582000Y-93263500D03*
%TD*%
D16*
%TO.C,S1*%
X128112000Y-86833500D03*
X128112000Y-84333500D03*
X128112000Y-81833500D03*
%TD*%
D17*
%TO.C,J2*%
X134716000Y-103880700D03*
D18*
X134716000Y-106420700D03*
%TD*%
D17*
%TO.C,J1*%
X134716000Y-57952500D03*
D18*
X134716000Y-60492500D03*
%TD*%
D19*
%TO.C,D1*%
X122011000Y-69895500D03*
D20*
X124551000Y-69895500D03*
%TD*%
D21*
%TO.C,J6*%
X121412000Y-83103500D03*
D22*
X115412000Y-83103500D03*
D23*
X118412000Y-87803500D03*
%TD*%
D17*
%TO.C,J4*%
X112364000Y-106725500D03*
D18*
X114904000Y-106725500D03*
X117444000Y-106725500D03*
%TD*%
D17*
%TO.C,J3*%
X112364000Y-57703500D03*
D18*
X114904000Y-57703500D03*
X117444000Y-57703500D03*
%TD*%
M02*
