%TF.GenerationSoftware,KiCad,Pcbnew,9.0.3*%
%TF.CreationDate,2025-07-16T16:29:30-04:00*%
%TF.ProjectId,Breadboard_Power_Supply,42726561-6462-46f6-9172-645f506f7765,rev?*%
%TF.SameCoordinates,Original*%
%TF.FileFunction,Copper,L1,Top*%
%TF.FilePolarity,Positive*%
%FSLAX46Y46*%
G04 Gerber Fmt 4.6, Leading zero omitted, Abs format (unit mm)*
G04 Created by KiCad (PCBNEW 9.0.3) date 2025-07-16 16:29:30*
%MOMM*%
%LPD*%
G01*
G04 APERTURE LIST*
G04 Aperture macros list*
%AMRoundRect*
0 Rectangle with rounded corners*
0 $1 Rounding radius*
0 $2 $3 $4 $5 $6 $7 $8 $9 X,Y pos of 4 corners*
0 Add a 4 corners polygon primitive as box body*
4,1,4,$2,$3,$4,$5,$6,$7,$8,$9,$2,$3,0*
0 Add four circle primitives for the rounded corners*
1,1,$1+$1,$2,$3*
1,1,$1+$1,$4,$5*
1,1,$1+$1,$6,$7*
1,1,$1+$1,$8,$9*
0 Add four rect primitives between the rounded corners*
20,1,$1+$1,$2,$3,$4,$5,0*
20,1,$1+$1,$4,$5,$6,$7,0*
20,1,$1+$1,$6,$7,$8,$9,0*
20,1,$1+$1,$8,$9,$2,$3,0*%
G04 Aperture macros list end*
%TA.AperFunction,ComponentPad*%
%ADD10C,1.600000*%
%TD*%
%TA.AperFunction,ComponentPad*%
%ADD11R,3.000000X3.000000*%
%TD*%
%TA.AperFunction,ComponentPad*%
%ADD12C,3.000000*%
%TD*%
%TA.AperFunction,ComponentPad*%
%ADD13C,1.400000*%
%TD*%
%TA.AperFunction,ComponentPad*%
%ADD14R,1.905000X2.000000*%
%TD*%
%TA.AperFunction,ComponentPad*%
%ADD15O,1.905000X2.000000*%
%TD*%
%TA.AperFunction,ComponentPad*%
%ADD16C,1.508000*%
%TD*%
%TA.AperFunction,ComponentPad*%
%ADD17R,1.700000X1.700000*%
%TD*%
%TA.AperFunction,ComponentPad*%
%ADD18C,1.700000*%
%TD*%
%TA.AperFunction,ComponentPad*%
%ADD19R,1.800000X1.800000*%
%TD*%
%TA.AperFunction,ComponentPad*%
%ADD20C,1.800000*%
%TD*%
%TA.AperFunction,ComponentPad*%
%ADD21R,3.500000X3.500000*%
%TD*%
%TA.AperFunction,ComponentPad*%
%ADD22RoundRect,0.750000X-0.750000X-1.000000X0.750000X-1.000000X0.750000X1.000000X-0.750000X1.000000X0*%
%TD*%
%TA.AperFunction,ComponentPad*%
%ADD23RoundRect,0.875000X-0.875000X-0.875000X0.875000X-0.875000X0.875000X0.875000X-0.875000X0.875000X0*%
%TD*%
%TA.AperFunction,ViaPad*%
%ADD24C,0.600000*%
%TD*%
%TA.AperFunction,Conductor*%
%ADD25C,0.800000*%
%TD*%
%TA.AperFunction,Conductor*%
%ADD26C,0.200000*%
%TD*%
%TA.AperFunction,Conductor*%
%ADD27C,0.500000*%
%TD*%
%TA.AperFunction,Conductor*%
%ADD28C,0.400000*%
%TD*%
%TA.AperFunction,Conductor*%
%ADD29C,1.000000*%
%TD*%
%TA.AperFunction,Conductor*%
%ADD30C,0.600000*%
%TD*%
%TA.AperFunction,Conductor*%
%ADD31C,0.700000*%
%TD*%
G04 APERTURE END LIST*
D10*
%TO.P,C1,1*%
%TO.N,12V*%
X114162000Y-67609500D03*
%TO.P,C1,2*%
%TO.N,GND*%
X116662000Y-67609500D03*
%TD*%
D11*
%TO.P,J7,1,Pin_1*%
%TO.N,GND*%
X127858000Y-104439500D03*
D12*
%TO.P,J7,2,Pin_2*%
%TO.N,Net-(J1-Pin_2)*%
X122778000Y-104439500D03*
%TD*%
D13*
%TO.P,R1,1*%
%TO.N,Net-(D1-A)*%
X126075000Y-74975500D03*
%TO.P,R1,2*%
%TO.N,12V*%
X120995000Y-74975500D03*
%TD*%
%TO.P,R3,1*%
%TO.N,GND*%
X122270000Y-97835500D03*
%TO.P,R3,2*%
%TO.N,Net-(U2-ADJ)*%
X127350000Y-97835500D03*
%TD*%
D10*
%TO.P,C2,1*%
%TO.N,5V*%
X109082000Y-67609500D03*
%TO.P,C2,2*%
%TO.N,GND*%
X111582000Y-67609500D03*
%TD*%
D11*
%TO.P,J5,1,Pin_1*%
%TO.N,GND*%
X122778000Y-59989500D03*
D12*
%TO.P,J5,2,Pin_2*%
%TO.N,Net-(J2-Pin_2)*%
X127858000Y-59989500D03*
%TD*%
D14*
%TO.P,U1,1,VI*%
%TO.N,12V*%
X110332000Y-98785500D03*
D15*
%TO.P,U1,2,GND*%
%TO.N,GND*%
X112872000Y-98785500D03*
%TO.P,U1,3,VO*%
%TO.N,5V*%
X115412000Y-98785500D03*
%TD*%
D14*
%TO.P,U2,1,ADJ*%
%TO.N,Net-(U2-ADJ)*%
X115412000Y-71993500D03*
D15*
%TO.P,U2,2,VO*%
%TO.N,3.3V*%
X112872000Y-71993500D03*
%TO.P,U2,3,VI*%
%TO.N,12V*%
X110332000Y-71993500D03*
%TD*%
D13*
%TO.P,R2,1*%
%TO.N,Net-(U2-ADJ)*%
X122270000Y-94025500D03*
%TO.P,R2,2*%
%TO.N,3.3V*%
X127350000Y-94025500D03*
%TD*%
D10*
%TO.P,C3,1*%
%TO.N,3.3V*%
X109082000Y-93263500D03*
%TO.P,C3,2*%
%TO.N,GND*%
X111582000Y-93263500D03*
%TD*%
D16*
%TO.P,S1,1*%
%TO.N,12V*%
X128112000Y-86833500D03*
%TO.P,S1,2*%
X128112000Y-84333500D03*
%TO.P,S1,3*%
%TO.N,unconnected-(S1-Pad3)*%
X128112000Y-81833500D03*
%TD*%
D17*
%TO.P,J2,1,Pin_1*%
%TO.N,GND*%
X134716000Y-103880700D03*
D18*
%TO.P,J2,2,Pin_2*%
%TO.N,Net-(J2-Pin_2)*%
X134716000Y-106420700D03*
%TD*%
D17*
%TO.P,J1,1,Pin_1*%
%TO.N,GND*%
X134716000Y-57952500D03*
D18*
%TO.P,J1,2,Pin_2*%
%TO.N,Net-(J1-Pin_2)*%
X134716000Y-60492500D03*
%TD*%
D19*
%TO.P,D1,1,K*%
%TO.N,GND*%
X122011000Y-69895500D03*
D20*
%TO.P,D1,2,A*%
%TO.N,Net-(D1-A)*%
X124551000Y-69895500D03*
%TD*%
D21*
%TO.P,J6,1*%
%TO.N,12V*%
X121412000Y-83103500D03*
D22*
%TO.P,J6,2*%
%TO.N,GND*%
X115412000Y-83103500D03*
D23*
%TO.P,J6,3*%
X118412000Y-87803500D03*
%TD*%
D17*
%TO.P,J4,1,Pin_1*%
%TO.N,3.3V*%
X112364000Y-106725500D03*
D18*
%TO.P,J4,2,Pin_2*%
%TO.N,Net-(J2-Pin_2)*%
X114904000Y-106725500D03*
%TO.P,J4,3,Pin_3*%
%TO.N,5V*%
X117444000Y-106725500D03*
%TD*%
D17*
%TO.P,J3,1,Pin_1*%
%TO.N,3.3V*%
X112364000Y-57703500D03*
D18*
%TO.P,J3,2,Pin_2*%
%TO.N,Net-(J1-Pin_2)*%
X114904000Y-57703500D03*
%TO.P,J3,3,Pin_3*%
%TO.N,5V*%
X117444000Y-57703500D03*
%TD*%
D24*
%TO.N,5V*%
X113136200Y-74501500D03*
%TD*%
D25*
%TO.N,12V*%
X120995000Y-74975500D02*
X121412000Y-75392500D01*
D26*
X110332000Y-98785500D02*
X109077800Y-98785500D01*
D27*
X128112000Y-84333500D02*
X128112000Y-86833500D01*
D25*
X121412000Y-75392500D02*
X121412000Y-83103500D01*
D26*
X107885000Y-73186300D02*
X109077800Y-71993500D01*
X109077800Y-71993500D02*
X110332000Y-71993500D01*
X109077800Y-98785500D02*
X107885000Y-97592700D01*
X107885000Y-97592700D02*
X107885000Y-73186300D01*
D25*
%TO.N,GND*%
X118412000Y-93977500D02*
X118412000Y-87803500D01*
D28*
X112872000Y-98785500D02*
X112872000Y-97483800D01*
X112872000Y-97483800D02*
X112872000Y-95662100D01*
X112872000Y-94553500D02*
X111582000Y-93263500D01*
D26*
X114142000Y-70129500D02*
X114142000Y-81833500D01*
D28*
X122011000Y-69895500D02*
X122011000Y-62558200D01*
D26*
X116662000Y-67609500D02*
X114142000Y-70129500D01*
X114142000Y-81833500D02*
X115412000Y-83103500D01*
D29*
X118412000Y-87803500D02*
X115412000Y-84803500D01*
D28*
X112872000Y-95620800D02*
X112872000Y-94553500D01*
X122778000Y-59989500D02*
X122778000Y-61791200D01*
D26*
X112872000Y-95662100D02*
X112872000Y-95620800D01*
X115412000Y-83953500D02*
X115412000Y-83103500D01*
X115412000Y-84803500D02*
X115412000Y-83994800D01*
D28*
X122011000Y-62558200D02*
X122778000Y-61791200D01*
D26*
X115412000Y-83994800D02*
X115412000Y-83953500D01*
D25*
X122270000Y-97835500D02*
X118412000Y-93977500D01*
D26*
%TO.N,5V*%
X115412000Y-91543400D02*
X115412000Y-98785500D01*
X113136200Y-89267600D02*
X115412000Y-91543400D01*
D27*
X115412000Y-102153500D02*
X117444000Y-104185500D01*
D26*
X113136200Y-74501500D02*
X113136200Y-89267600D01*
D27*
X117444000Y-104185500D02*
X117444000Y-106725500D01*
X115412000Y-98785500D02*
X115412000Y-102153500D01*
%TO.N,3.3V*%
X110188800Y-93263500D02*
X110188800Y-75372700D01*
D26*
X110188800Y-94370300D02*
X111601900Y-95783400D01*
X112872000Y-59363200D02*
X112364000Y-58855200D01*
D27*
X110188800Y-75372700D02*
X110630800Y-74930700D01*
D26*
X112364000Y-105573800D02*
X112364000Y-106725500D01*
D28*
X109082000Y-93263500D02*
X110188800Y-93263500D01*
D26*
X112872000Y-71993500D02*
X112872000Y-59363200D01*
X110188800Y-93263500D02*
X110188800Y-94370300D01*
X112872000Y-72435500D02*
X112872000Y-71993500D01*
X111601900Y-95783400D02*
X111601900Y-104811700D01*
D27*
X110630800Y-74676700D02*
X112872000Y-72435500D01*
D26*
X111601900Y-104811700D02*
X112364000Y-105573800D01*
D27*
X110630800Y-74930700D02*
X110630800Y-74676700D01*
D26*
X112364000Y-57703500D02*
X112364000Y-58855200D01*
D30*
%TO.N,Net-(D1-A)*%
X126075000Y-71419500D02*
X126075000Y-74975500D01*
X124551000Y-69895500D02*
X126075000Y-71419500D01*
D27*
%TO.N,Net-(J1-Pin_2)*%
X124048000Y-103169500D02*
X124048000Y-75229500D01*
X119476000Y-62275500D02*
X114904000Y-57703500D01*
D28*
X124048000Y-75229500D02*
X119476000Y-70657500D01*
X119476000Y-70657500D02*
X119476000Y-62275500D01*
D31*
X122778000Y-104439500D02*
X124048000Y-103169500D01*
D27*
%TO.N,Net-(J2-Pin_2)*%
X130498600Y-62630100D02*
X127858000Y-59989500D01*
X132633200Y-106420700D02*
X130498600Y-104286100D01*
X134716000Y-106420700D02*
X132633200Y-106420700D01*
X130498600Y-104286100D02*
X130498600Y-62630100D01*
D26*
%TO.N,Net-(U2-ADJ)*%
X116666200Y-71993500D02*
X119178900Y-74506200D01*
X119178900Y-74506200D02*
X119178900Y-84832000D01*
X119178900Y-84832000D02*
X122270000Y-87923100D01*
X115412000Y-71993500D02*
X116666200Y-71993500D01*
X122270000Y-87923100D02*
X122270000Y-94025500D01*
%TD*%
%TA.AperFunction,Conductor*%
%TO.N,GND*%
G36*
X136757629Y-55665525D02*
G01*
X136809417Y-55673727D01*
X136846301Y-55685712D01*
X136884211Y-55705028D01*
X136886115Y-55706411D01*
X136887339Y-55706678D01*
X136915593Y-55727829D01*
X136945670Y-55757906D01*
X136968472Y-55789290D01*
X136987786Y-55827195D01*
X136999773Y-55864088D01*
X137007430Y-55912433D01*
X137007973Y-55915858D01*
X137009500Y-55935257D01*
X137009500Y-63027742D01*
X137007973Y-63047141D01*
X136999773Y-63098911D01*
X136987785Y-63135807D01*
X136968474Y-63173707D01*
X136945670Y-63205093D01*
X136915593Y-63235170D01*
X136884207Y-63257974D01*
X136846307Y-63277285D01*
X136809411Y-63289273D01*
X136779068Y-63294079D01*
X136757639Y-63297473D01*
X136738243Y-63299000D01*
X133800809Y-63299000D01*
X133618326Y-63321157D01*
X133496670Y-63335929D01*
X133345775Y-63373121D01*
X133199190Y-63409251D01*
X132973746Y-63494751D01*
X132912730Y-63517892D01*
X132912727Y-63517893D01*
X132912723Y-63517895D01*
X132912722Y-63517895D01*
X132641459Y-63660266D01*
X132641448Y-63660272D01*
X132389307Y-63834311D01*
X132389301Y-63834316D01*
X132159979Y-64037477D01*
X132159977Y-64037479D01*
X131956816Y-64266801D01*
X131956811Y-64266807D01*
X131782772Y-64518948D01*
X131782766Y-64518959D01*
X131640395Y-64790222D01*
X131640395Y-64790223D01*
X131640393Y-64790227D01*
X131640392Y-64790230D01*
X131617251Y-64851246D01*
X131531751Y-65076690D01*
X131531750Y-65076696D01*
X131499469Y-65207668D01*
X131493497Y-65231896D01*
X131458341Y-65292277D01*
X131396121Y-65324065D01*
X131326593Y-65317169D01*
X131271830Y-65273778D01*
X131249220Y-65207668D01*
X131249100Y-65202221D01*
X131249100Y-62556179D01*
X131220259Y-62411192D01*
X131220258Y-62411191D01*
X131220258Y-62411187D01*
X131194672Y-62349417D01*
X131163687Y-62274611D01*
X131163680Y-62274598D01*
X131081552Y-62151685D01*
X131081551Y-62151684D01*
X130977016Y-62047149D01*
X129758570Y-60828702D01*
X129725085Y-60767379D01*
X129730069Y-60697687D01*
X129731690Y-60693568D01*
X129756398Y-60633919D01*
X129822770Y-60386213D01*
X133365500Y-60386213D01*
X133365500Y-60598786D01*
X133392202Y-60767379D01*
X133398754Y-60808743D01*
X133420672Y-60876200D01*
X133464444Y-61010914D01*
X133560951Y-61200320D01*
X133685890Y-61372286D01*
X133836213Y-61522609D01*
X134008179Y-61647548D01*
X134008181Y-61647549D01*
X134008184Y-61647551D01*
X134197588Y-61744057D01*
X134399757Y-61809746D01*
X134609713Y-61843000D01*
X134609714Y-61843000D01*
X134822286Y-61843000D01*
X134822287Y-61843000D01*
X135032243Y-61809746D01*
X135234412Y-61744057D01*
X135423816Y-61647551D01*
X135493570Y-61596872D01*
X135595786Y-61522609D01*
X135595788Y-61522606D01*
X135595792Y-61522604D01*
X135746104Y-61372292D01*
X135746106Y-61372288D01*
X135746109Y-61372286D01*
X135871048Y-61200320D01*
X135871047Y-61200320D01*
X135871051Y-61200316D01*
X135967557Y-61010912D01*
X136033246Y-60808743D01*
X136066500Y-60598787D01*
X136066500Y-60386213D01*
X136033246Y-60176257D01*
X135967557Y-59974088D01*
X135871051Y-59784684D01*
X135871049Y-59784681D01*
X135871048Y-59784679D01*
X135746109Y-59612713D01*
X135632181Y-59498785D01*
X135598696Y-59437462D01*
X135603680Y-59367770D01*
X135645552Y-59311837D01*
X135676529Y-59294922D01*
X135808086Y-59245854D01*
X135808093Y-59245850D01*
X135923187Y-59159690D01*
X135923190Y-59159687D01*
X136009350Y-59044593D01*
X136009354Y-59044586D01*
X136059596Y-58909879D01*
X136059598Y-58909872D01*
X136065999Y-58850344D01*
X136066000Y-58850327D01*
X136066000Y-58202500D01*
X135149012Y-58202500D01*
X135181925Y-58145493D01*
X135216000Y-58018326D01*
X135216000Y-57886674D01*
X135181925Y-57759507D01*
X135149012Y-57702500D01*
X136066000Y-57702500D01*
X136066000Y-57054672D01*
X136065999Y-57054655D01*
X136059598Y-56995127D01*
X136059596Y-56995120D01*
X136009354Y-56860413D01*
X136009350Y-56860406D01*
X135923190Y-56745312D01*
X135923187Y-56745309D01*
X135808093Y-56659149D01*
X135808086Y-56659145D01*
X135673379Y-56608903D01*
X135673372Y-56608901D01*
X135613844Y-56602500D01*
X134966000Y-56602500D01*
X134966000Y-57519488D01*
X134908993Y-57486575D01*
X134781826Y-57452500D01*
X134650174Y-57452500D01*
X134523007Y-57486575D01*
X134466000Y-57519488D01*
X134466000Y-56602500D01*
X133818155Y-56602500D01*
X133758627Y-56608901D01*
X133758620Y-56608903D01*
X133623913Y-56659145D01*
X133623906Y-56659149D01*
X133508812Y-56745309D01*
X133508809Y-56745312D01*
X133422649Y-56860406D01*
X133422645Y-56860413D01*
X133372403Y-56995120D01*
X133372401Y-56995127D01*
X133366000Y-57054655D01*
X133366000Y-57702500D01*
X134282988Y-57702500D01*
X134250075Y-57759507D01*
X134216000Y-57886674D01*
X134216000Y-58018326D01*
X134250075Y-58145493D01*
X134282988Y-58202500D01*
X133366000Y-58202500D01*
X133366000Y-58850344D01*
X133372401Y-58909872D01*
X133372403Y-58909879D01*
X133422645Y-59044586D01*
X133422649Y-59044593D01*
X133508809Y-59159687D01*
X133508812Y-59159690D01*
X133623906Y-59245850D01*
X133623913Y-59245854D01*
X133755470Y-59294922D01*
X133811404Y-59336793D01*
X133835821Y-59402258D01*
X133820969Y-59470531D01*
X133799819Y-59498785D01*
X133685889Y-59612715D01*
X133560951Y-59784679D01*
X133464444Y-59974085D01*
X133398753Y-60176260D01*
X133365500Y-60386213D01*
X129822770Y-60386213D01*
X129824270Y-60380616D01*
X129858500Y-60120620D01*
X129858500Y-59858380D01*
X129824270Y-59598384D01*
X129756398Y-59345081D01*
X129742628Y-59311837D01*
X129656046Y-59102809D01*
X129656041Y-59102799D01*
X129524924Y-58875696D01*
X129365281Y-58667648D01*
X129365274Y-58667640D01*
X129179860Y-58482226D01*
X129179851Y-58482218D01*
X128971803Y-58322575D01*
X128744700Y-58191458D01*
X128744690Y-58191453D01*
X128502428Y-58091105D01*
X128502421Y-58091103D01*
X128502419Y-58091102D01*
X128249116Y-58023230D01*
X128191339Y-58015623D01*
X127989127Y-57989000D01*
X127989120Y-57989000D01*
X127726880Y-57989000D01*
X127726872Y-57989000D01*
X127495772Y-58019426D01*
X127466884Y-58023230D01*
X127381364Y-58046145D01*
X127213581Y-58091102D01*
X127213571Y-58091105D01*
X126971309Y-58191453D01*
X126971299Y-58191458D01*
X126744196Y-58322575D01*
X126536148Y-58482218D01*
X126350718Y-58667648D01*
X126191075Y-58875696D01*
X126059958Y-59102799D01*
X126059953Y-59102809D01*
X125959605Y-59345071D01*
X125959602Y-59345081D01*
X125918418Y-59498785D01*
X125891730Y-59598385D01*
X125857500Y-59858372D01*
X125857500Y-60120627D01*
X125864825Y-60176260D01*
X125891730Y-60380616D01*
X125959602Y-60633918D01*
X125959605Y-60633928D01*
X126059953Y-60876190D01*
X126059958Y-60876200D01*
X126191075Y-61103303D01*
X126350718Y-61311351D01*
X126350726Y-61311360D01*
X126536140Y-61496774D01*
X126536148Y-61496781D01*
X126744196Y-61656424D01*
X126971299Y-61787541D01*
X126971309Y-61787546D01*
X127211403Y-61886996D01*
X127213581Y-61887898D01*
X127466884Y-61955770D01*
X127715188Y-61988460D01*
X127723074Y-61989499D01*
X127726880Y-61990000D01*
X127726887Y-61990000D01*
X127989113Y-61990000D01*
X127989120Y-61990000D01*
X128249116Y-61955770D01*
X128502419Y-61887898D01*
X128562068Y-61863189D01*
X128631537Y-61855721D01*
X128694016Y-61886996D01*
X128697202Y-61890070D01*
X129711781Y-62904648D01*
X129745266Y-62965971D01*
X129748100Y-62992329D01*
X129748100Y-102372757D01*
X129728415Y-102439796D01*
X129675611Y-102485551D01*
X129606453Y-102495495D01*
X129580768Y-102488939D01*
X129465382Y-102445903D01*
X129465372Y-102445901D01*
X129405844Y-102439500D01*
X128108000Y-102439500D01*
X128108000Y-103720435D01*
X128079684Y-103708707D01*
X127932853Y-103679500D01*
X127783147Y-103679500D01*
X127636316Y-103708707D01*
X127608000Y-103720435D01*
X127608000Y-102439500D01*
X126310155Y-102439500D01*
X126250627Y-102445901D01*
X126250620Y-102445903D01*
X126115913Y-102496145D01*
X126115906Y-102496149D01*
X126000812Y-102582309D01*
X126000809Y-102582312D01*
X125914649Y-102697406D01*
X125914645Y-102697413D01*
X125864403Y-102832120D01*
X125864401Y-102832127D01*
X125858000Y-102891655D01*
X125858000Y-104189500D01*
X127138936Y-104189500D01*
X127127207Y-104217816D01*
X127098000Y-104364647D01*
X127098000Y-104514353D01*
X127127207Y-104661184D01*
X127138936Y-104689500D01*
X125858000Y-104689500D01*
X125858000Y-105987344D01*
X125864401Y-106046872D01*
X125864403Y-106046879D01*
X125914645Y-106181586D01*
X125914649Y-106181593D01*
X126000809Y-106296687D01*
X126000812Y-106296690D01*
X126115906Y-106382850D01*
X126115913Y-106382854D01*
X126250620Y-106433096D01*
X126250627Y-106433098D01*
X126310155Y-106439499D01*
X126310172Y-106439500D01*
X127608000Y-106439500D01*
X127608000Y-105158564D01*
X127636316Y-105170293D01*
X127783147Y-105199500D01*
X127932853Y-105199500D01*
X128079684Y-105170293D01*
X128108000Y-105158564D01*
X128108000Y-106439500D01*
X129405828Y-106439500D01*
X129405844Y-106439499D01*
X129465372Y-106433098D01*
X129465379Y-106433096D01*
X129600086Y-106382854D01*
X129600093Y-106382850D01*
X129715187Y-106296690D01*
X129715190Y-106296687D01*
X129801350Y-106181593D01*
X129801354Y-106181586D01*
X129851596Y-106046879D01*
X129851598Y-106046872D01*
X129857999Y-105987344D01*
X129858000Y-105987327D01*
X129858000Y-105006229D01*
X129877685Y-104939190D01*
X129930489Y-104893435D01*
X129999647Y-104883491D01*
X130063203Y-104912516D01*
X130069667Y-104918535D01*
X132050249Y-106899116D01*
X132145597Y-106994464D01*
X132154785Y-107003652D01*
X132277698Y-107085780D01*
X132277711Y-107085787D01*
X132380869Y-107128516D01*
X132414287Y-107142358D01*
X132414291Y-107142358D01*
X132414292Y-107142359D01*
X132559279Y-107171200D01*
X132559282Y-107171200D01*
X133528779Y-107171200D01*
X133595818Y-107190885D01*
X133629097Y-107222315D01*
X133685892Y-107300488D01*
X133836213Y-107450809D01*
X134008179Y-107575748D01*
X134008181Y-107575749D01*
X134008184Y-107575751D01*
X134197588Y-107672257D01*
X134399757Y-107737946D01*
X134609713Y-107771200D01*
X134609714Y-107771200D01*
X134822286Y-107771200D01*
X134822287Y-107771200D01*
X135032243Y-107737946D01*
X135234412Y-107672257D01*
X135423816Y-107575751D01*
X135445789Y-107559786D01*
X135595786Y-107450809D01*
X135595788Y-107450806D01*
X135595792Y-107450804D01*
X135746104Y-107300492D01*
X135746106Y-107300488D01*
X135746109Y-107300486D01*
X135871048Y-107128520D01*
X135871047Y-107128520D01*
X135871051Y-107128516D01*
X135967557Y-106939112D01*
X136033246Y-106736943D01*
X136066500Y-106526987D01*
X136066500Y-106314413D01*
X136033246Y-106104457D01*
X135967557Y-105902288D01*
X135871051Y-105712884D01*
X135871049Y-105712881D01*
X135871048Y-105712879D01*
X135746109Y-105540913D01*
X135632181Y-105426985D01*
X135598696Y-105365662D01*
X135603680Y-105295970D01*
X135645552Y-105240037D01*
X135676529Y-105223122D01*
X135808086Y-105174054D01*
X135808093Y-105174050D01*
X135923187Y-105087890D01*
X135923190Y-105087887D01*
X136009350Y-104972793D01*
X136009354Y-104972786D01*
X136059596Y-104838079D01*
X136059598Y-104838072D01*
X136065999Y-104778544D01*
X136066000Y-104778527D01*
X136066000Y-104130700D01*
X135149012Y-104130700D01*
X135181925Y-104073693D01*
X135216000Y-103946526D01*
X135216000Y-103814874D01*
X135181925Y-103687707D01*
X135149012Y-103630700D01*
X136066000Y-103630700D01*
X136066000Y-102982872D01*
X136065999Y-102982855D01*
X136059598Y-102923327D01*
X136059596Y-102923320D01*
X136009354Y-102788613D01*
X136009350Y-102788606D01*
X135923190Y-102673512D01*
X135923187Y-102673509D01*
X135808093Y-102587349D01*
X135808086Y-102587345D01*
X135673379Y-102537103D01*
X135673372Y-102537101D01*
X135613844Y-102530700D01*
X134966000Y-102530700D01*
X134966000Y-103447688D01*
X134908993Y-103414775D01*
X134781826Y-103380700D01*
X134650174Y-103380700D01*
X134523007Y-103414775D01*
X134466000Y-103447688D01*
X134466000Y-102530700D01*
X133818155Y-102530700D01*
X133758627Y-102537101D01*
X133758620Y-102537103D01*
X133623913Y-102587345D01*
X133623906Y-102587349D01*
X133508812Y-102673509D01*
X133508809Y-102673512D01*
X133422649Y-102788606D01*
X133422645Y-102788613D01*
X133372403Y-102923320D01*
X133372401Y-102923327D01*
X133366000Y-102982855D01*
X133366000Y-103630700D01*
X134282988Y-103630700D01*
X134250075Y-103687707D01*
X134216000Y-103814874D01*
X134216000Y-103946526D01*
X134250075Y-104073693D01*
X134282988Y-104130700D01*
X133366000Y-104130700D01*
X133366000Y-104778544D01*
X133372401Y-104838072D01*
X133372403Y-104838079D01*
X133422645Y-104972786D01*
X133422649Y-104972793D01*
X133508809Y-105087887D01*
X133508812Y-105087890D01*
X133623906Y-105174050D01*
X133623913Y-105174054D01*
X133755470Y-105223122D01*
X133811404Y-105264993D01*
X133835821Y-105330458D01*
X133820969Y-105398731D01*
X133799819Y-105426985D01*
X133685892Y-105540912D01*
X133629097Y-105619085D01*
X133573767Y-105661751D01*
X133528779Y-105670200D01*
X132995429Y-105670200D01*
X132928390Y-105650515D01*
X132907748Y-105633881D01*
X131285419Y-104011551D01*
X131251934Y-103950228D01*
X131249100Y-103923870D01*
X131249100Y-99226778D01*
X131268785Y-99159739D01*
X131321589Y-99113984D01*
X131390747Y-99104040D01*
X131454303Y-99133065D01*
X131492077Y-99191843D01*
X131493488Y-99197071D01*
X131500523Y-99225610D01*
X131531751Y-99352310D01*
X131601038Y-99535003D01*
X131640392Y-99638770D01*
X131640394Y-99638774D01*
X131640395Y-99638776D01*
X131640395Y-99638777D01*
X131782766Y-99910040D01*
X131782772Y-99910051D01*
X131956811Y-100162192D01*
X131956816Y-100162198D01*
X132159977Y-100391520D01*
X132159979Y-100391522D01*
X132389301Y-100594683D01*
X132389307Y-100594688D01*
X132508567Y-100677006D01*
X132641447Y-100768727D01*
X132912730Y-100911108D01*
X133135621Y-100995639D01*
X133199190Y-101019748D01*
X133199192Y-101019748D01*
X133199196Y-101019750D01*
X133496670Y-101093071D01*
X133731874Y-101121629D01*
X133800809Y-101130000D01*
X133800812Y-101130000D01*
X133888108Y-101130000D01*
X136682108Y-101130000D01*
X136741039Y-101130000D01*
X136754922Y-101130780D01*
X136763353Y-101131730D01*
X136848831Y-101141361D01*
X136875892Y-101147537D01*
X136958481Y-101176437D01*
X136983491Y-101188480D01*
X137057581Y-101235034D01*
X137079290Y-101252347D01*
X137141152Y-101314209D01*
X137158465Y-101335918D01*
X137205017Y-101410005D01*
X137217064Y-101435022D01*
X137245960Y-101517601D01*
X137252139Y-101544672D01*
X137262720Y-101638577D01*
X137263500Y-101652461D01*
X137263500Y-108496538D01*
X137262720Y-108510422D01*
X137252139Y-108604327D01*
X137245960Y-108631398D01*
X137217064Y-108713977D01*
X137205017Y-108738994D01*
X137158465Y-108813081D01*
X137141152Y-108834790D01*
X137079290Y-108896652D01*
X137057581Y-108913965D01*
X136983494Y-108960517D01*
X136958477Y-108972564D01*
X136875898Y-109001460D01*
X136848827Y-109007639D01*
X136754923Y-109018220D01*
X136741039Y-109019000D01*
X110081751Y-109019000D01*
X110074264Y-109018774D01*
X109809035Y-109002730D01*
X109794170Y-109000925D01*
X109536501Y-108953705D01*
X109521963Y-108950121D01*
X109271881Y-108872193D01*
X109257880Y-108866884D01*
X109018996Y-108759371D01*
X109005737Y-108752412D01*
X108781562Y-108616893D01*
X108769239Y-108608387D01*
X108563029Y-108446832D01*
X108551821Y-108436902D01*
X108366597Y-108251678D01*
X108356667Y-108240470D01*
X108343156Y-108223224D01*
X108195108Y-108034254D01*
X108186610Y-108021943D01*
X108051084Y-107797756D01*
X108044131Y-107784510D01*
X107936613Y-107545614D01*
X107931306Y-107531618D01*
X107900675Y-107433320D01*
X107853377Y-107281535D01*
X107849794Y-107266998D01*
X107802574Y-107009329D01*
X107800769Y-106994464D01*
X107784726Y-106729236D01*
X107784500Y-106721749D01*
X107784500Y-98640797D01*
X107804185Y-98573758D01*
X107856989Y-98528003D01*
X107926147Y-98518059D01*
X107989703Y-98547084D01*
X107996181Y-98553116D01*
X108592939Y-99149874D01*
X108592949Y-99149885D01*
X108597279Y-99154215D01*
X108597280Y-99154216D01*
X108709084Y-99266020D01*
X108795895Y-99316139D01*
X108795894Y-99316139D01*
X108809324Y-99323892D01*
X108816998Y-99328323D01*
X108865215Y-99378889D01*
X108879000Y-99435711D01*
X108879000Y-99833370D01*
X108879001Y-99833376D01*
X108885408Y-99892983D01*
X108935702Y-100027828D01*
X108935706Y-100027835D01*
X109021952Y-100143044D01*
X109021955Y-100143047D01*
X109137164Y-100229293D01*
X109137171Y-100229297D01*
X109272017Y-100279591D01*
X109272016Y-100279591D01*
X109278944Y-100280335D01*
X109331627Y-100286000D01*
X110877400Y-100285999D01*
X110944439Y-100305684D01*
X110990194Y-100358487D01*
X111001400Y-100409999D01*
X111001400Y-104725030D01*
X111001399Y-104725048D01*
X111001399Y-104890754D01*
X111001398Y-104890754D01*
X111007229Y-104912516D01*
X111038664Y-105029830D01*
X111042324Y-105043487D01*
X111057746Y-105070198D01*
X111057747Y-105070200D01*
X111121377Y-105180412D01*
X111121381Y-105180417D01*
X111228240Y-105287276D01*
X111261725Y-105348599D01*
X111256741Y-105418291D01*
X111214870Y-105474223D01*
X111156455Y-105517952D01*
X111156452Y-105517955D01*
X111070206Y-105633164D01*
X111070202Y-105633171D01*
X111019908Y-105768017D01*
X111013501Y-105827616D01*
X111013500Y-105827635D01*
X111013500Y-107623370D01*
X111013501Y-107623376D01*
X111019908Y-107682983D01*
X111070202Y-107817828D01*
X111070206Y-107817835D01*
X111156452Y-107933044D01*
X111156455Y-107933047D01*
X111271664Y-108019293D01*
X111271671Y-108019297D01*
X111406517Y-108069591D01*
X111406516Y-108069591D01*
X111413444Y-108070335D01*
X111466127Y-108076000D01*
X113261872Y-108075999D01*
X113321483Y-108069591D01*
X113456331Y-108019296D01*
X113571546Y-107933046D01*
X113657796Y-107817831D01*
X113706810Y-107686416D01*
X113748681Y-107630484D01*
X113814145Y-107606066D01*
X113882418Y-107620917D01*
X113910673Y-107642069D01*
X114024213Y-107755609D01*
X114196179Y-107880548D01*
X114196181Y-107880549D01*
X114196184Y-107880551D01*
X114385588Y-107977057D01*
X114587757Y-108042746D01*
X114797713Y-108076000D01*
X114797714Y-108076000D01*
X115010286Y-108076000D01*
X115010287Y-108076000D01*
X115220243Y-108042746D01*
X115422412Y-107977057D01*
X115611816Y-107880551D01*
X115698138Y-107817835D01*
X115783786Y-107755609D01*
X115783788Y-107755606D01*
X115783792Y-107755604D01*
X115934104Y-107605292D01*
X115934106Y-107605288D01*
X115934109Y-107605286D01*
X116059048Y-107433320D01*
X116059047Y-107433320D01*
X116059051Y-107433316D01*
X116063514Y-107424554D01*
X116111488Y-107373759D01*
X116179308Y-107356963D01*
X116245444Y-107379499D01*
X116284486Y-107424556D01*
X116288951Y-107433320D01*
X116413890Y-107605286D01*
X116564213Y-107755609D01*
X116736179Y-107880548D01*
X116736181Y-107880549D01*
X116736184Y-107880551D01*
X116925588Y-107977057D01*
X117127757Y-108042746D01*
X117337713Y-108076000D01*
X117337714Y-108076000D01*
X117550286Y-108076000D01*
X117550287Y-108076000D01*
X117760243Y-108042746D01*
X117962412Y-107977057D01*
X118151816Y-107880551D01*
X118238138Y-107817835D01*
X118323786Y-107755609D01*
X118323788Y-107755606D01*
X118323792Y-107755604D01*
X118474104Y-107605292D01*
X118474106Y-107605288D01*
X118474109Y-107605286D01*
X118599048Y-107433320D01*
X118599047Y-107433320D01*
X118599051Y-107433316D01*
X118695557Y-107243912D01*
X118761246Y-107041743D01*
X118794500Y-106831787D01*
X118794500Y-106619213D01*
X118761246Y-106409257D01*
X118695557Y-106207088D01*
X118599051Y-106017684D01*
X118599049Y-106017681D01*
X118599048Y-106017679D01*
X118474109Y-105845713D01*
X118323794Y-105695398D01*
X118323788Y-105695393D01*
X118245615Y-105638597D01*
X118202949Y-105583267D01*
X118194500Y-105538279D01*
X118194500Y-104111579D01*
X118165659Y-103966592D01*
X118165658Y-103966591D01*
X118165658Y-103966587D01*
X118158882Y-103950228D01*
X118109087Y-103830011D01*
X118109083Y-103830004D01*
X118074906Y-103778854D01*
X118026952Y-103707084D01*
X116198819Y-101878951D01*
X116165334Y-101817628D01*
X116162500Y-101791270D01*
X116162500Y-100146917D01*
X116182185Y-100079878D01*
X116213615Y-100046599D01*
X116358566Y-99941286D01*
X116520286Y-99779566D01*
X116654717Y-99594538D01*
X116758548Y-99390758D01*
X116770519Y-99353915D01*
X116829221Y-99173249D01*
X116829221Y-99173248D01*
X116829222Y-99173245D01*
X116865000Y-98947354D01*
X116865000Y-98843382D01*
X121615669Y-98843382D01*
X121615670Y-98843383D01*
X121641059Y-98861829D01*
X121809362Y-98947585D01*
X121988997Y-99005951D01*
X122175553Y-99035500D01*
X122364447Y-99035500D01*
X122551002Y-99005951D01*
X122730637Y-98947585D01*
X122898937Y-98861831D01*
X122924328Y-98843383D01*
X122924328Y-98843382D01*
X122270001Y-98189054D01*
X122270000Y-98189054D01*
X121615669Y-98843382D01*
X116865000Y-98843382D01*
X116865000Y-98623646D01*
X116829222Y-98397755D01*
X116829221Y-98397751D01*
X116829221Y-98397750D01*
X116758549Y-98180244D01*
X116725596Y-98115570D01*
X116654717Y-97976462D01*
X116520286Y-97791434D01*
X116469904Y-97741052D01*
X121070000Y-97741052D01*
X121070000Y-97929947D01*
X121099548Y-98116502D01*
X121157914Y-98296137D01*
X121243666Y-98464433D01*
X121262116Y-98489828D01*
X121916446Y-97835500D01*
X121916446Y-97835499D01*
X121870369Y-97789422D01*
X121920000Y-97789422D01*
X121920000Y-97881578D01*
X121943852Y-97970595D01*
X121989930Y-98050405D01*
X122055095Y-98115570D01*
X122134905Y-98161648D01*
X122223922Y-98185500D01*
X122316078Y-98185500D01*
X122405095Y-98161648D01*
X122484905Y-98115570D01*
X122550070Y-98050405D01*
X122596148Y-97970595D01*
X122620000Y-97881578D01*
X122620000Y-97789422D01*
X122596148Y-97700405D01*
X122550070Y-97620595D01*
X122484905Y-97555430D01*
X122405095Y-97509352D01*
X122316078Y-97485500D01*
X122223922Y-97485500D01*
X122134905Y-97509352D01*
X122055095Y-97555430D01*
X121989930Y-97620595D01*
X121943852Y-97700405D01*
X121920000Y-97789422D01*
X121870369Y-97789422D01*
X121262116Y-97181169D01*
X121262116Y-97181170D01*
X121243669Y-97206560D01*
X121157914Y-97374862D01*
X121099548Y-97554497D01*
X121070000Y-97741052D01*
X116469904Y-97741052D01*
X116358566Y-97629714D01*
X116173538Y-97495283D01*
X116147363Y-97481946D01*
X116080205Y-97447727D01*
X116029409Y-97399752D01*
X116012500Y-97337242D01*
X116012500Y-96827616D01*
X121615669Y-96827616D01*
X122270000Y-97481946D01*
X122270001Y-97481946D01*
X122924328Y-96827616D01*
X122898933Y-96809166D01*
X122730637Y-96723414D01*
X122551002Y-96665048D01*
X122364447Y-96635500D01*
X122175553Y-96635500D01*
X121988997Y-96665048D01*
X121809362Y-96723414D01*
X121641060Y-96809169D01*
X121615670Y-96827616D01*
X121615669Y-96827616D01*
X116012500Y-96827616D01*
X116012500Y-91464345D01*
X116012500Y-91464343D01*
X115971577Y-91311616D01*
X115971577Y-91311615D01*
X115971577Y-91311614D01*
X115942639Y-91261495D01*
X115942637Y-91261492D01*
X115892520Y-91174684D01*
X115780716Y-91062880D01*
X115780715Y-91062879D01*
X115776385Y-91058549D01*
X115776374Y-91058539D01*
X113773019Y-89055184D01*
X113739534Y-88993861D01*
X113736700Y-88967503D01*
X113736700Y-85219885D01*
X113756385Y-85152846D01*
X113809189Y-85107091D01*
X113878347Y-85097147D01*
X113931316Y-85117957D01*
X114042619Y-85195068D01*
X114042625Y-85195071D01*
X114247480Y-85288122D01*
X114465667Y-85343099D01*
X114597810Y-85353499D01*
X115161999Y-85353499D01*
X115162000Y-85353498D01*
X115162000Y-84536512D01*
X115219007Y-84569425D01*
X115346174Y-84603500D01*
X115477826Y-84603500D01*
X115604993Y-84569425D01*
X115662000Y-84536512D01*
X115662000Y-85353499D01*
X116226182Y-85353499D01*
X116226197Y-85353498D01*
X116358332Y-85343099D01*
X116576519Y-85288122D01*
X116781374Y-85195071D01*
X116781380Y-85195068D01*
X116966323Y-85066940D01*
X116966335Y-85066930D01*
X117125430Y-84907835D01*
X117125440Y-84907823D01*
X117253568Y-84722880D01*
X117253571Y-84722874D01*
X117346622Y-84518019D01*
X117401599Y-84299832D01*
X117411999Y-84167696D01*
X117412000Y-84167684D01*
X117412000Y-83353500D01*
X115912000Y-83353500D01*
X115912000Y-82853500D01*
X117411999Y-82853500D01*
X117411999Y-82039317D01*
X117411998Y-82039302D01*
X117401599Y-81907167D01*
X117346622Y-81688980D01*
X117253571Y-81484125D01*
X117253568Y-81484119D01*
X117125440Y-81299176D01*
X117125430Y-81299164D01*
X116966335Y-81140069D01*
X116966323Y-81140059D01*
X116781380Y-81011931D01*
X116781374Y-81011928D01*
X116576519Y-80918877D01*
X116358332Y-80863900D01*
X116226196Y-80853500D01*
X115662000Y-80853500D01*
X115662000Y-81670488D01*
X115604993Y-81637575D01*
X115477826Y-81603500D01*
X115346174Y-81603500D01*
X115219007Y-81637575D01*
X115162000Y-81670488D01*
X115162000Y-80853500D01*
X114597817Y-80853500D01*
X114597802Y-80853501D01*
X114465667Y-80863900D01*
X114247480Y-80918877D01*
X114042626Y-81011927D01*
X113931316Y-81089043D01*
X113864999Y-81111039D01*
X113797317Y-81093691D01*
X113749759Y-81042505D01*
X113736700Y-80987114D01*
X113736700Y-75081265D01*
X113756385Y-75014226D01*
X113757598Y-75012374D01*
X113762781Y-75004618D01*
X113845594Y-74880679D01*
X113848359Y-74874005D01*
X113876404Y-74806297D01*
X113905937Y-74734997D01*
X113936700Y-74580342D01*
X113936700Y-74422658D01*
X113936700Y-74422655D01*
X113936699Y-74422653D01*
X113921779Y-74347647D01*
X113905937Y-74268003D01*
X113877059Y-74198284D01*
X113845597Y-74122327D01*
X113845590Y-74122314D01*
X113757989Y-73991211D01*
X113757986Y-73991207D01*
X113646492Y-73879713D01*
X113646488Y-73879710D01*
X113515385Y-73792109D01*
X113515372Y-73792102D01*
X113369701Y-73731764D01*
X113369691Y-73731761D01*
X113214776Y-73700946D01*
X113152865Y-73668561D01*
X113118291Y-73607845D01*
X113122032Y-73538075D01*
X113162898Y-73481404D01*
X113207665Y-73459892D01*
X113207612Y-73459728D01*
X113208836Y-73459329D01*
X113210044Y-73458750D01*
X113212241Y-73458222D01*
X113212245Y-73458222D01*
X113212248Y-73458220D01*
X113212252Y-73458220D01*
X113429755Y-73387549D01*
X113429755Y-73387548D01*
X113429758Y-73387548D01*
X113633538Y-73283717D01*
X113816245Y-73150972D01*
X113882046Y-73127494D01*
X113950100Y-73143319D01*
X113998795Y-73193424D01*
X114005308Y-73207959D01*
X114015702Y-73235828D01*
X114015706Y-73235835D01*
X114101952Y-73351044D01*
X114101955Y-73351047D01*
X114217164Y-73437293D01*
X114217171Y-73437297D01*
X114352017Y-73487591D01*
X114352016Y-73487591D01*
X114358944Y-73488335D01*
X114411627Y-73494000D01*
X116412372Y-73493999D01*
X116471983Y-73487591D01*
X116606831Y-73437296D01*
X116722046Y-73351046D01*
X116808296Y-73235831D01*
X116809050Y-73233809D01*
X116810344Y-73232080D01*
X116812547Y-73228046D01*
X116813126Y-73228362D01*
X116850913Y-73177874D01*
X116916375Y-73153449D01*
X116984649Y-73168293D01*
X117012916Y-73189451D01*
X118542081Y-74718616D01*
X118575566Y-74779939D01*
X118578400Y-74806297D01*
X118578400Y-84745330D01*
X118578399Y-84745348D01*
X118578399Y-84911054D01*
X118578398Y-84911054D01*
X118619323Y-85063786D01*
X118619324Y-85063787D01*
X118638584Y-85097147D01*
X118646374Y-85110639D01*
X118698380Y-85200716D01*
X118698382Y-85200718D01*
X118817249Y-85319585D01*
X118817255Y-85319590D01*
X118839484Y-85341819D01*
X118872969Y-85403142D01*
X118867985Y-85472834D01*
X118826113Y-85528767D01*
X118760649Y-85553184D01*
X118751803Y-85553500D01*
X118662000Y-85553500D01*
X118662000Y-87303500D01*
X118162000Y-87303500D01*
X118162000Y-85553500D01*
X117443423Y-85553500D01*
X117443411Y-85553501D01*
X117390808Y-85556294D01*
X117161012Y-85600737D01*
X116942024Y-85683379D01*
X116740158Y-85801839D01*
X116740151Y-85801844D01*
X116561213Y-85952711D01*
X116561211Y-85952713D01*
X116410344Y-86131651D01*
X116410339Y-86131658D01*
X116291879Y-86333524D01*
X116209237Y-86552512D01*
X116164794Y-86782308D01*
X116164794Y-86782309D01*
X116162001Y-86834882D01*
X116162000Y-86834921D01*
X116162000Y-87553500D01*
X116978988Y-87553500D01*
X116946075Y-87610507D01*
X116912000Y-87737674D01*
X116912000Y-87869326D01*
X116946075Y-87996493D01*
X116978988Y-88053500D01*
X116162001Y-88053500D01*
X116162001Y-88772088D01*
X116164794Y-88824691D01*
X116209237Y-89054487D01*
X116291879Y-89273475D01*
X116410339Y-89475341D01*
X116410344Y-89475348D01*
X116561211Y-89654286D01*
X116561213Y-89654288D01*
X116740151Y-89805155D01*
X116740158Y-89805160D01*
X116942024Y-89923620D01*
X117161012Y-90006262D01*
X117390809Y-90050705D01*
X117443382Y-90053498D01*
X117443421Y-90053499D01*
X118161999Y-90053499D01*
X118162000Y-90053498D01*
X118162000Y-88303500D01*
X118662000Y-88303500D01*
X118662000Y-90053499D01*
X119380576Y-90053499D01*
X119380588Y-90053498D01*
X119433191Y-90050705D01*
X119662987Y-90006262D01*
X119881975Y-89923620D01*
X120083841Y-89805160D01*
X120083848Y-89805155D01*
X120262786Y-89654288D01*
X120262788Y-89654286D01*
X120413655Y-89475348D01*
X120413660Y-89475341D01*
X120532120Y-89273475D01*
X120614762Y-89054487D01*
X120659205Y-88824691D01*
X120659205Y-88824690D01*
X120661998Y-88772117D01*
X120662000Y-88772078D01*
X120662000Y-88053500D01*
X119845012Y-88053500D01*
X119877925Y-87996493D01*
X119912000Y-87869326D01*
X119912000Y-87737674D01*
X119877925Y-87610507D01*
X119845012Y-87553500D01*
X120661999Y-87553500D01*
X120661999Y-87463696D01*
X120681684Y-87396657D01*
X120734488Y-87350902D01*
X120803646Y-87340958D01*
X120867202Y-87369983D01*
X120873680Y-87376015D01*
X121633181Y-88135516D01*
X121666666Y-88196839D01*
X121669500Y-88223197D01*
X121669500Y-92914707D01*
X121649815Y-92981746D01*
X121618386Y-93015025D01*
X121487925Y-93109811D01*
X121354312Y-93243424D01*
X121354312Y-93243425D01*
X121354310Y-93243427D01*
X121339727Y-93263499D01*
X121243240Y-93396300D01*
X121157454Y-93564663D01*
X121099059Y-93744381D01*
X121069500Y-93931013D01*
X121069500Y-94119986D01*
X121099059Y-94306618D01*
X121157454Y-94486336D01*
X121237873Y-94644166D01*
X121243240Y-94654699D01*
X121354310Y-94807573D01*
X121487927Y-94941190D01*
X121640801Y-95052260D01*
X121720347Y-95092790D01*
X121809163Y-95138045D01*
X121809165Y-95138045D01*
X121809168Y-95138047D01*
X121905497Y-95169346D01*
X121988881Y-95196440D01*
X122175514Y-95226000D01*
X122175519Y-95226000D01*
X122364486Y-95226000D01*
X122551118Y-95196440D01*
X122730832Y-95138047D01*
X122899199Y-95052260D01*
X123052073Y-94941190D01*
X123085819Y-94907444D01*
X123147142Y-94873959D01*
X123216834Y-94878943D01*
X123272767Y-94920815D01*
X123297184Y-94986279D01*
X123297500Y-94995125D01*
X123297500Y-97110190D01*
X123277815Y-97177229D01*
X123261181Y-97197871D01*
X122623554Y-97835499D01*
X122623554Y-97835500D01*
X123261181Y-98473127D01*
X123294666Y-98534450D01*
X123297500Y-98560808D01*
X123297500Y-102348737D01*
X123277815Y-102415776D01*
X123225011Y-102461531D01*
X123157314Y-102471676D01*
X122909127Y-102439000D01*
X122909120Y-102439000D01*
X122646880Y-102439000D01*
X122646872Y-102439000D01*
X122415772Y-102469426D01*
X122386884Y-102473230D01*
X122253407Y-102508995D01*
X122133581Y-102541102D01*
X122133571Y-102541105D01*
X121891309Y-102641453D01*
X121891299Y-102641458D01*
X121664196Y-102772575D01*
X121456148Y-102932218D01*
X121270718Y-103117648D01*
X121111075Y-103325696D01*
X120979958Y-103552799D01*
X120979953Y-103552809D01*
X120879605Y-103795071D01*
X120879602Y-103795081D01*
X120821600Y-104011551D01*
X120811730Y-104048385D01*
X120777500Y-104308372D01*
X120777500Y-104570627D01*
X120793151Y-104689500D01*
X120811730Y-104830616D01*
X120875926Y-105070200D01*
X120879602Y-105083918D01*
X120879605Y-105083928D01*
X120979953Y-105326190D01*
X120979958Y-105326200D01*
X121111075Y-105553303D01*
X121270718Y-105761351D01*
X121270726Y-105761360D01*
X121456140Y-105946774D01*
X121456148Y-105946781D01*
X121664196Y-106106424D01*
X121891299Y-106237541D01*
X121891309Y-106237546D01*
X122034096Y-106296690D01*
X122133581Y-106337898D01*
X122386884Y-106405770D01*
X122635188Y-106438460D01*
X122643074Y-106439499D01*
X122646880Y-106440000D01*
X122646887Y-106440000D01*
X122909113Y-106440000D01*
X122909120Y-106440000D01*
X123169116Y-106405770D01*
X123422419Y-106337898D01*
X123664697Y-106237543D01*
X123891803Y-106106424D01*
X124099851Y-105946782D01*
X124099855Y-105946777D01*
X124099860Y-105946774D01*
X124285274Y-105761360D01*
X124285277Y-105761355D01*
X124285282Y-105761351D01*
X124444924Y-105553303D01*
X124576043Y-105326197D01*
X124588564Y-105295970D01*
X124636427Y-105180417D01*
X124676398Y-105083919D01*
X124744270Y-104830616D01*
X124778500Y-104570620D01*
X124778500Y-104308380D01*
X124744270Y-104048384D01*
X124683964Y-103823318D01*
X124685627Y-103753472D01*
X124705520Y-103716914D01*
X124705241Y-103716728D01*
X124707294Y-103713654D01*
X124707893Y-103712555D01*
X124708621Y-103711666D01*
X124708626Y-103711662D01*
X124801704Y-103572363D01*
X124865816Y-103417582D01*
X124898499Y-103253267D01*
X124898499Y-103085733D01*
X124865816Y-102921419D01*
X124807834Y-102781438D01*
X124807685Y-102781071D01*
X124807546Y-102779717D01*
X124798500Y-102734237D01*
X124798500Y-97741013D01*
X126149500Y-97741013D01*
X126149500Y-97929986D01*
X126179059Y-98116618D01*
X126237454Y-98296336D01*
X126289129Y-98397753D01*
X126323240Y-98464699D01*
X126434310Y-98617573D01*
X126567927Y-98751190D01*
X126720801Y-98862260D01*
X126800347Y-98902790D01*
X126889163Y-98948045D01*
X126889165Y-98948045D01*
X126889168Y-98948047D01*
X126985497Y-98979346D01*
X127068881Y-99006440D01*
X127255514Y-99036000D01*
X127255519Y-99036000D01*
X127444486Y-99036000D01*
X127631118Y-99006440D01*
X127632623Y-99005951D01*
X127810832Y-98948047D01*
X127979199Y-98862260D01*
X128132073Y-98751190D01*
X128265690Y-98617573D01*
X128376760Y-98464699D01*
X128462547Y-98296332D01*
X128520940Y-98116618D01*
X128531427Y-98050405D01*
X128550500Y-97929986D01*
X128550500Y-97741013D01*
X128520940Y-97554381D01*
X128479860Y-97427952D01*
X128462547Y-97374668D01*
X128462545Y-97374665D01*
X128462545Y-97374663D01*
X128411149Y-97273794D01*
X128376760Y-97206301D01*
X128265690Y-97053427D01*
X128132073Y-96919810D01*
X127979199Y-96808740D01*
X127810836Y-96722954D01*
X127631118Y-96664559D01*
X127444486Y-96635000D01*
X127444481Y-96635000D01*
X127255519Y-96635000D01*
X127255514Y-96635000D01*
X127068881Y-96664559D01*
X126889163Y-96722954D01*
X126720800Y-96808740D01*
X126633579Y-96872110D01*
X126567927Y-96919810D01*
X126567925Y-96919812D01*
X126567924Y-96919812D01*
X126434312Y-97053424D01*
X126434312Y-97053425D01*
X126434310Y-97053427D01*
X126393069Y-97110190D01*
X126323240Y-97206300D01*
X126237454Y-97374663D01*
X126179059Y-97554381D01*
X126149500Y-97741013D01*
X124798500Y-97741013D01*
X124798500Y-93931013D01*
X126149500Y-93931013D01*
X126149500Y-94119986D01*
X126179059Y-94306618D01*
X126237454Y-94486336D01*
X126317873Y-94644166D01*
X126323240Y-94654699D01*
X126434310Y-94807573D01*
X126567927Y-94941190D01*
X126720801Y-95052260D01*
X126800347Y-95092790D01*
X126889163Y-95138045D01*
X126889165Y-95138045D01*
X126889168Y-95138047D01*
X126985497Y-95169346D01*
X127068881Y-95196440D01*
X127255514Y-95226000D01*
X127255519Y-95226000D01*
X127444486Y-95226000D01*
X127631118Y-95196440D01*
X127810832Y-95138047D01*
X127979199Y-95052260D01*
X128132073Y-94941190D01*
X128265690Y-94807573D01*
X128376760Y-94654699D01*
X128462547Y-94486332D01*
X128520940Y-94306618D01*
X128550500Y-94119986D01*
X128550500Y-93931013D01*
X128520940Y-93744381D01*
X128468692Y-93583580D01*
X128462547Y-93564668D01*
X128462545Y-93564665D01*
X128462545Y-93564663D01*
X128387762Y-93417894D01*
X128376760Y-93396301D01*
X128265690Y-93243427D01*
X128132073Y-93109810D01*
X127979199Y-92998740D01*
X127950500Y-92984117D01*
X127810836Y-92912954D01*
X127631118Y-92854559D01*
X127444486Y-92825000D01*
X127444481Y-92825000D01*
X127255519Y-92825000D01*
X127255514Y-92825000D01*
X127068881Y-92854559D01*
X126889163Y-92912954D01*
X126720800Y-92998740D01*
X126659347Y-93043389D01*
X126567927Y-93109810D01*
X126567925Y-93109812D01*
X126567924Y-93109812D01*
X126434312Y-93243424D01*
X126434312Y-93243425D01*
X126434310Y-93243427D01*
X126419727Y-93263499D01*
X126323240Y-93396300D01*
X126237454Y-93564663D01*
X126179059Y-93744381D01*
X126149500Y-93931013D01*
X124798500Y-93931013D01*
X124798500Y-81734763D01*
X126857500Y-81734763D01*
X126857500Y-81932236D01*
X126888389Y-82127263D01*
X126949408Y-82315058D01*
X126949409Y-82315061D01*
X127039056Y-82491001D01*
X127039058Y-82491004D01*
X127155115Y-82650746D01*
X127294753Y-82790384D01*
X127444234Y-82898986D01*
X127454499Y-82906444D01*
X127585151Y-82973015D01*
X127635947Y-83020990D01*
X127652742Y-83088811D01*
X127630204Y-83154946D01*
X127585151Y-83193984D01*
X127468017Y-83253667D01*
X127454495Y-83260558D01*
X127294753Y-83376615D01*
X127155115Y-83516253D01*
X127039058Y-83675995D01*
X126949408Y-83851941D01*
X126888389Y-84039736D01*
X126857500Y-84234763D01*
X126857500Y-84432236D01*
X126888389Y-84627263D01*
X126949408Y-84815058D01*
X126949409Y-84815061D01*
X126998322Y-84911057D01*
X127039058Y-84991004D01*
X127155115Y-85150746D01*
X127155121Y-85150752D01*
X127294748Y-85290379D01*
X127310382Y-85301737D01*
X127353049Y-85357064D01*
X127361500Y-85402057D01*
X127361500Y-85764941D01*
X127341815Y-85831980D01*
X127310385Y-85865259D01*
X127294754Y-85876615D01*
X127294749Y-85876619D01*
X127155115Y-86016253D01*
X127039058Y-86175995D01*
X126949408Y-86351941D01*
X126888389Y-86539736D01*
X126857500Y-86734763D01*
X126857500Y-86932236D01*
X126888389Y-87127263D01*
X126945653Y-87303500D01*
X126949409Y-87315061D01*
X127039056Y-87491001D01*
X127039058Y-87491004D01*
X127155115Y-87650746D01*
X127294753Y-87790384D01*
X127403410Y-87869326D01*
X127454499Y-87906444D01*
X127630439Y-87996091D01*
X127755637Y-88036770D01*
X127818236Y-88057110D01*
X128013264Y-88088000D01*
X128013269Y-88088000D01*
X128210736Y-88088000D01*
X128405763Y-88057110D01*
X128416873Y-88053500D01*
X128593561Y-87996091D01*
X128769501Y-87906444D01*
X128859192Y-87841279D01*
X128929246Y-87790384D01*
X128929248Y-87790381D01*
X128929252Y-87790379D01*
X129068879Y-87650752D01*
X129068881Y-87650748D01*
X129068884Y-87650746D01*
X129119779Y-87580692D01*
X129184944Y-87491001D01*
X129274591Y-87315061D01*
X129335610Y-87127263D01*
X129366500Y-86932236D01*
X129366500Y-86734763D01*
X129335610Y-86539736D01*
X129315270Y-86477137D01*
X129274591Y-86351939D01*
X129184944Y-86175999D01*
X129152724Y-86131651D01*
X129068884Y-86016253D01*
X128929250Y-85876619D01*
X128929245Y-85876615D01*
X128913615Y-85865259D01*
X128870949Y-85809929D01*
X128862500Y-85764941D01*
X128862500Y-85402057D01*
X128882185Y-85335018D01*
X128913616Y-85301738D01*
X128929252Y-85290379D01*
X129068879Y-85150752D01*
X129068881Y-85150748D01*
X129068884Y-85150746D01*
X129119779Y-85080692D01*
X129184944Y-84991001D01*
X129274591Y-84815061D01*
X129335610Y-84627263D01*
X129352913Y-84518019D01*
X129366500Y-84432236D01*
X129366500Y-84234763D01*
X129335610Y-84039736D01*
X129315270Y-83977137D01*
X129274591Y-83851939D01*
X129184944Y-83675999D01*
X129177486Y-83665734D01*
X129068884Y-83516253D01*
X128929246Y-83376615D01*
X128769505Y-83260558D01*
X128763830Y-83257666D01*
X128638846Y-83193983D01*
X128588052Y-83146010D01*
X128571257Y-83078189D01*
X128593794Y-83012054D01*
X128638845Y-82973017D01*
X128769501Y-82906444D01*
X128842373Y-82853500D01*
X128929246Y-82790384D01*
X128929248Y-82790381D01*
X128929252Y-82790379D01*
X129068879Y-82650752D01*
X129068881Y-82650748D01*
X129068884Y-82650746D01*
X129119779Y-82580692D01*
X129184944Y-82491001D01*
X129274591Y-82315061D01*
X129335610Y-82127263D01*
X129366500Y-81932236D01*
X129366500Y-81734763D01*
X129335610Y-81539736D01*
X129315270Y-81477137D01*
X129274591Y-81351939D01*
X129184944Y-81175999D01*
X129158832Y-81140059D01*
X129068884Y-81016253D01*
X128929246Y-80876615D01*
X128769504Y-80760558D01*
X128769503Y-80760557D01*
X128769501Y-80760556D01*
X128593561Y-80670909D01*
X128593558Y-80670908D01*
X128405763Y-80609889D01*
X128210736Y-80579000D01*
X128210731Y-80579000D01*
X128013269Y-80579000D01*
X128013264Y-80579000D01*
X127818236Y-80609889D01*
X127630441Y-80670908D01*
X127454495Y-80760558D01*
X127294753Y-80876615D01*
X127155115Y-81016253D01*
X127039058Y-81175995D01*
X126949408Y-81351941D01*
X126888389Y-81539736D01*
X126857500Y-81734763D01*
X124798500Y-81734763D01*
X124798500Y-75631054D01*
X124818185Y-75564015D01*
X124870989Y-75518260D01*
X124940147Y-75508316D01*
X125003703Y-75537341D01*
X125032984Y-75574758D01*
X125048240Y-75604699D01*
X125159310Y-75757573D01*
X125292927Y-75891190D01*
X125445801Y-76002260D01*
X125523793Y-76041999D01*
X125614163Y-76088045D01*
X125614165Y-76088045D01*
X125614168Y-76088047D01*
X125710497Y-76119346D01*
X125793881Y-76146440D01*
X125980514Y-76176000D01*
X125980519Y-76176000D01*
X126169486Y-76176000D01*
X126356118Y-76146440D01*
X126535832Y-76088047D01*
X126704199Y-76002260D01*
X126857073Y-75891190D01*
X126990690Y-75757573D01*
X127101760Y-75604699D01*
X127187547Y-75436332D01*
X127245940Y-75256618D01*
X127275500Y-75069986D01*
X127275500Y-74881013D01*
X127245940Y-74694381D01*
X127208887Y-74580346D01*
X127187547Y-74514668D01*
X127187545Y-74514665D01*
X127187545Y-74514663D01*
X127124185Y-74390313D01*
X127101760Y-74346301D01*
X126990690Y-74193427D01*
X126911819Y-74114556D01*
X126878334Y-74053233D01*
X126875500Y-74026875D01*
X126875500Y-71340657D01*
X126875499Y-71340653D01*
X126861021Y-71267864D01*
X126861020Y-71267862D01*
X126859758Y-71261515D01*
X126844737Y-71186002D01*
X126810788Y-71104042D01*
X126802461Y-71083938D01*
X126784397Y-71040327D01*
X126784390Y-71040314D01*
X126696790Y-70909212D01*
X126646969Y-70859391D01*
X126585289Y-70797711D01*
X125974544Y-70186966D01*
X125941059Y-70125643D01*
X125939752Y-70079892D01*
X125951500Y-70005722D01*
X125951500Y-69785278D01*
X125917015Y-69567549D01*
X125882955Y-69462721D01*
X125848896Y-69357896D01*
X125848895Y-69357893D01*
X125814237Y-69289875D01*
X125748815Y-69161478D01*
X125732260Y-69138692D01*
X125619247Y-68983141D01*
X125619243Y-68983136D01*
X125463363Y-68827256D01*
X125463358Y-68827252D01*
X125285025Y-68697687D01*
X125285024Y-68697686D01*
X125285022Y-68697685D01*
X125222096Y-68665622D01*
X125088606Y-68597604D01*
X125088603Y-68597603D01*
X124878952Y-68529485D01*
X124770086Y-68512242D01*
X124661222Y-68495000D01*
X124440778Y-68495000D01*
X124368201Y-68506495D01*
X124223047Y-68529485D01*
X124013396Y-68597603D01*
X124013393Y-68597604D01*
X123816974Y-68697687D01*
X123638641Y-68827252D01*
X123638636Y-68827256D01*
X123588075Y-68877817D01*
X123526752Y-68911301D01*
X123457060Y-68906316D01*
X123401127Y-68864445D01*
X123384213Y-68833468D01*
X123354354Y-68753413D01*
X123354350Y-68753406D01*
X123268190Y-68638312D01*
X123268187Y-68638309D01*
X123153093Y-68552149D01*
X123153086Y-68552145D01*
X123018379Y-68501903D01*
X123018372Y-68501901D01*
X122958844Y-68495500D01*
X122261000Y-68495500D01*
X122261000Y-69520222D01*
X122184694Y-69476167D01*
X122070244Y-69445500D01*
X121951756Y-69445500D01*
X121837306Y-69476167D01*
X121761000Y-69520222D01*
X121761000Y-68495500D01*
X121063155Y-68495500D01*
X121003627Y-68501901D01*
X121003620Y-68501903D01*
X120868913Y-68552145D01*
X120868906Y-68552149D01*
X120753812Y-68638309D01*
X120753809Y-68638312D01*
X120667649Y-68753406D01*
X120667645Y-68753413D01*
X120617403Y-68888120D01*
X120617401Y-68888127D01*
X120611000Y-68947655D01*
X120611000Y-69645500D01*
X121635722Y-69645500D01*
X121591667Y-69721806D01*
X121561000Y-69836256D01*
X121561000Y-69954744D01*
X121591667Y-70069194D01*
X121635722Y-70145500D01*
X120611000Y-70145500D01*
X120611000Y-70502481D01*
X120591315Y-70569520D01*
X120538511Y-70615275D01*
X120469353Y-70625219D01*
X120405797Y-70596194D01*
X120399319Y-70590162D01*
X120212819Y-70403662D01*
X120179334Y-70342339D01*
X120176500Y-70315981D01*
X120176500Y-62570157D01*
X120185939Y-62522705D01*
X120197656Y-62494416D01*
X120197658Y-62494412D01*
X120226500Y-62349417D01*
X120226500Y-62201582D01*
X120226500Y-62201579D01*
X120197659Y-62056592D01*
X120197658Y-62056591D01*
X120197658Y-62056587D01*
X120170077Y-61990000D01*
X120141087Y-61920011D01*
X120141080Y-61919998D01*
X120058951Y-61797084D01*
X120058948Y-61797080D01*
X117520003Y-59258135D01*
X117486518Y-59196812D01*
X117491502Y-59127120D01*
X117533374Y-59071187D01*
X117588284Y-59047981D01*
X117760243Y-59020746D01*
X117962412Y-58955057D01*
X118151816Y-58858551D01*
X118238138Y-58795835D01*
X118323786Y-58733609D01*
X118323788Y-58733606D01*
X118323792Y-58733604D01*
X118474104Y-58583292D01*
X118474106Y-58583288D01*
X118474109Y-58583286D01*
X118576996Y-58441672D01*
X118577008Y-58441655D01*
X120778000Y-58441655D01*
X120778000Y-59739500D01*
X122058936Y-59739500D01*
X122047207Y-59767816D01*
X122018000Y-59914647D01*
X122018000Y-60064353D01*
X122047207Y-60211184D01*
X122058936Y-60239500D01*
X120778000Y-60239500D01*
X120778000Y-61537344D01*
X120784401Y-61596872D01*
X120784403Y-61596879D01*
X120834645Y-61731586D01*
X120834649Y-61731593D01*
X120920809Y-61846687D01*
X120920812Y-61846690D01*
X121035906Y-61932850D01*
X121035913Y-61932854D01*
X121170620Y-61983096D01*
X121170627Y-61983098D01*
X121230155Y-61989499D01*
X121230172Y-61989500D01*
X122528000Y-61989500D01*
X122528000Y-60708564D01*
X122556316Y-60720293D01*
X122703147Y-60749500D01*
X122852853Y-60749500D01*
X122999684Y-60720293D01*
X123028000Y-60708564D01*
X123028000Y-61989500D01*
X124325828Y-61989500D01*
X124325844Y-61989499D01*
X124385372Y-61983098D01*
X124385379Y-61983096D01*
X124520086Y-61932854D01*
X124520093Y-61932850D01*
X124635187Y-61846690D01*
X124635190Y-61846687D01*
X124721350Y-61731593D01*
X124721354Y-61731586D01*
X124771596Y-61596879D01*
X124771598Y-61596872D01*
X124777999Y-61537344D01*
X124778000Y-61537327D01*
X124778000Y-60239500D01*
X123497064Y-60239500D01*
X123508793Y-60211184D01*
X123538000Y-60064353D01*
X123538000Y-59914647D01*
X123508793Y-59767816D01*
X123497064Y-59739500D01*
X124778000Y-59739500D01*
X124778000Y-58441672D01*
X124777999Y-58441655D01*
X124771598Y-58382127D01*
X124771596Y-58382120D01*
X124721354Y-58247413D01*
X124721350Y-58247406D01*
X124635190Y-58132312D01*
X124635187Y-58132309D01*
X124520093Y-58046149D01*
X124520086Y-58046145D01*
X124385379Y-57995903D01*
X124385372Y-57995901D01*
X124325844Y-57989500D01*
X123028000Y-57989500D01*
X123028000Y-59270435D01*
X122999684Y-59258707D01*
X122852853Y-59229500D01*
X122703147Y-59229500D01*
X122556316Y-59258707D01*
X122528000Y-59270435D01*
X122528000Y-57989500D01*
X121230155Y-57989500D01*
X121170627Y-57995901D01*
X121170620Y-57995903D01*
X121035913Y-58046145D01*
X121035906Y-58046149D01*
X120920812Y-58132309D01*
X120920809Y-58132312D01*
X120834649Y-58247406D01*
X120834645Y-58247413D01*
X120784403Y-58382120D01*
X120784401Y-58382127D01*
X120778000Y-58441655D01*
X118577008Y-58441655D01*
X118599051Y-58411316D01*
X118613924Y-58382127D01*
X118613961Y-58382055D01*
X118676401Y-58259507D01*
X118695557Y-58221912D01*
X118761246Y-58019743D01*
X118794500Y-57809787D01*
X118794500Y-57597213D01*
X118761246Y-57387257D01*
X118695557Y-57185088D01*
X118599051Y-56995684D01*
X118599049Y-56995681D01*
X118599048Y-56995679D01*
X118474109Y-56823713D01*
X118323786Y-56673390D01*
X118151820Y-56548451D01*
X117962414Y-56451944D01*
X117962413Y-56451943D01*
X117962412Y-56451943D01*
X117760243Y-56386254D01*
X117760241Y-56386253D01*
X117760240Y-56386253D01*
X117597072Y-56360410D01*
X117550287Y-56353000D01*
X117337713Y-56353000D01*
X117290928Y-56360410D01*
X117127760Y-56386253D01*
X116925585Y-56451944D01*
X116736179Y-56548451D01*
X116564213Y-56673390D01*
X116413890Y-56823713D01*
X116288949Y-56995682D01*
X116284484Y-57004446D01*
X116236509Y-57055242D01*
X116168688Y-57072036D01*
X116102553Y-57049498D01*
X116063516Y-57004446D01*
X116059050Y-56995682D01*
X115934109Y-56823713D01*
X115783786Y-56673390D01*
X115611820Y-56548451D01*
X115422414Y-56451944D01*
X115422413Y-56451943D01*
X115422412Y-56451943D01*
X115220243Y-56386254D01*
X115220241Y-56386253D01*
X115220240Y-56386253D01*
X115057072Y-56360410D01*
X115010287Y-56353000D01*
X114797713Y-56353000D01*
X114750928Y-56360410D01*
X114587760Y-56386253D01*
X114385585Y-56451944D01*
X114196179Y-56548451D01*
X114024215Y-56673389D01*
X113910673Y-56786931D01*
X113849350Y-56820415D01*
X113779658Y-56815431D01*
X113723725Y-56773559D01*
X113706810Y-56742582D01*
X113657797Y-56611171D01*
X113657793Y-56611164D01*
X113571547Y-56495955D01*
X113571544Y-56495952D01*
X113456335Y-56409706D01*
X113456328Y-56409702D01*
X113321482Y-56359408D01*
X113321483Y-56359408D01*
X113261883Y-56353001D01*
X113261881Y-56353000D01*
X113261873Y-56353000D01*
X113261864Y-56353000D01*
X111466129Y-56353000D01*
X111466123Y-56353001D01*
X111406516Y-56359408D01*
X111271671Y-56409702D01*
X111271664Y-56409706D01*
X111156455Y-56495952D01*
X111156452Y-56495955D01*
X111070206Y-56611164D01*
X111070202Y-56611171D01*
X111019908Y-56746017D01*
X111013501Y-56805616D01*
X111013500Y-56805635D01*
X111013500Y-58601370D01*
X111013501Y-58601376D01*
X111019908Y-58660983D01*
X111070202Y-58795828D01*
X111070206Y-58795835D01*
X111156452Y-58911044D01*
X111156455Y-58911047D01*
X111271664Y-58997293D01*
X111271671Y-58997297D01*
X111316618Y-59014061D01*
X111406517Y-59047591D01*
X111466127Y-59054000D01*
X111713787Y-59053999D01*
X111780826Y-59073683D01*
X111821174Y-59115999D01*
X111883477Y-59223912D01*
X111883481Y-59223917D01*
X112002349Y-59342785D01*
X112002355Y-59342790D01*
X112235181Y-59575616D01*
X112268666Y-59636939D01*
X112271500Y-59663297D01*
X112271500Y-66299443D01*
X112251815Y-66366482D01*
X112199011Y-66412237D01*
X112129853Y-66422181D01*
X112091210Y-66409930D01*
X112081035Y-66404746D01*
X111886417Y-66341509D01*
X111684317Y-66309500D01*
X111479683Y-66309500D01*
X111277582Y-66341509D01*
X111082968Y-66404744D01*
X110900644Y-66497643D01*
X110856077Y-66530023D01*
X110856077Y-66530024D01*
X111535553Y-67209500D01*
X111529339Y-67209500D01*
X111427606Y-67236759D01*
X111336394Y-67289420D01*
X111261920Y-67363894D01*
X111209259Y-67455106D01*
X111182000Y-67556839D01*
X111182000Y-67563053D01*
X110502524Y-66883577D01*
X110502523Y-66883577D01*
X110470143Y-66928144D01*
X110442765Y-66981878D01*
X110394790Y-67032674D01*
X110326969Y-67049469D01*
X110260834Y-67026931D01*
X110221795Y-66981878D01*
X110194284Y-66927885D01*
X110073971Y-66762286D01*
X109929213Y-66617528D01*
X109763613Y-66497215D01*
X109763612Y-66497214D01*
X109763610Y-66497213D01*
X109706653Y-66468191D01*
X109581223Y-66404281D01*
X109386534Y-66341022D01*
X109211995Y-66313378D01*
X109184352Y-66309000D01*
X108979648Y-66309000D01*
X108955329Y-66312851D01*
X108777465Y-66341022D01*
X108582776Y-66404281D01*
X108400386Y-66497215D01*
X108234786Y-66617528D01*
X108090028Y-66762286D01*
X108008818Y-66874065D01*
X107953489Y-66916731D01*
X107883875Y-66922710D01*
X107822080Y-66890105D01*
X107787723Y-66829266D01*
X107784500Y-66801180D01*
X107784500Y-57199927D01*
X107784816Y-57191081D01*
X107785245Y-57185085D01*
X107799455Y-56986386D01*
X107801973Y-56968879D01*
X107825569Y-56860413D01*
X107844654Y-56772682D01*
X107849629Y-56755735D01*
X107919806Y-56567584D01*
X107927144Y-56551517D01*
X108023375Y-56375282D01*
X108032925Y-56360421D01*
X108153264Y-56199668D01*
X108164836Y-56186314D01*
X108306814Y-56044336D01*
X108320168Y-56032764D01*
X108480921Y-55912425D01*
X108495782Y-55902875D01*
X108672017Y-55806644D01*
X108688084Y-55799306D01*
X108876235Y-55729129D01*
X108893182Y-55724154D01*
X109089381Y-55681472D01*
X109106886Y-55678955D01*
X109311582Y-55664316D01*
X109320428Y-55664000D01*
X109381892Y-55664000D01*
X136682108Y-55664000D01*
X136738243Y-55664000D01*
X136757629Y-55665525D01*
G37*
%TD.AperFunction*%
%TA.AperFunction,Conductor*%
G36*
X113122000Y-100264008D02*
G01*
X113212128Y-100249734D01*
X113429570Y-100179082D01*
X113633276Y-100075288D01*
X113818242Y-99940902D01*
X113979905Y-99779239D01*
X114041371Y-99694637D01*
X114096701Y-99651970D01*
X114166314Y-99645991D01*
X114228109Y-99678596D01*
X114242007Y-99694634D01*
X114303714Y-99779566D01*
X114465434Y-99941286D01*
X114584558Y-100027835D01*
X114610385Y-100046599D01*
X114653051Y-100101929D01*
X114661500Y-100146917D01*
X114661500Y-102227418D01*
X114661500Y-102227420D01*
X114661499Y-102227420D01*
X114690340Y-102372407D01*
X114690343Y-102372417D01*
X114746914Y-102508991D01*
X114746916Y-102508995D01*
X114768369Y-102541102D01*
X114768368Y-102541102D01*
X114829046Y-102631914D01*
X114829052Y-102631921D01*
X116657181Y-104460049D01*
X116690666Y-104521372D01*
X116693500Y-104547730D01*
X116693500Y-105538279D01*
X116673815Y-105605318D01*
X116642385Y-105638597D01*
X116564211Y-105695393D01*
X116564205Y-105695398D01*
X116413890Y-105845713D01*
X116288949Y-106017682D01*
X116284484Y-106026446D01*
X116236509Y-106077242D01*
X116168688Y-106094036D01*
X116102553Y-106071498D01*
X116063516Y-106026446D01*
X116059050Y-106017682D01*
X115934109Y-105845713D01*
X115783786Y-105695390D01*
X115611820Y-105570451D01*
X115422414Y-105473944D01*
X115422413Y-105473943D01*
X115422412Y-105473943D01*
X115220243Y-105408254D01*
X115220241Y-105408253D01*
X115220240Y-105408253D01*
X115058957Y-105382708D01*
X115010287Y-105375000D01*
X114797713Y-105375000D01*
X114749042Y-105382708D01*
X114587760Y-105408253D01*
X114385585Y-105473944D01*
X114196179Y-105570451D01*
X114024215Y-105695389D01*
X113910673Y-105808931D01*
X113849350Y-105842415D01*
X113779658Y-105837431D01*
X113723725Y-105795559D01*
X113706810Y-105764582D01*
X113657797Y-105633171D01*
X113657793Y-105633164D01*
X113571547Y-105517955D01*
X113571544Y-105517952D01*
X113456335Y-105431706D01*
X113456328Y-105431702D01*
X113321482Y-105381408D01*
X113321483Y-105381408D01*
X113261883Y-105375001D01*
X113261881Y-105375000D01*
X113261873Y-105375000D01*
X113261865Y-105375000D01*
X113014212Y-105375000D01*
X113002696Y-105371618D01*
X112990747Y-105372760D01*
X112969790Y-105361956D01*
X112947173Y-105355315D01*
X112937760Y-105345443D01*
X112928644Y-105340744D01*
X112906829Y-105313005D01*
X112906826Y-105313002D01*
X112876607Y-105260661D01*
X112844520Y-105205084D01*
X112732716Y-105093280D01*
X112732715Y-105093279D01*
X112728385Y-105088949D01*
X112728374Y-105088939D01*
X112238719Y-104599284D01*
X112205234Y-104537961D01*
X112202400Y-104511603D01*
X112202400Y-100313353D01*
X112222085Y-100246314D01*
X112274889Y-100200559D01*
X112344047Y-100190615D01*
X112364719Y-100195422D01*
X112531871Y-100249734D01*
X112622000Y-100264009D01*
X112622000Y-99276247D01*
X112659708Y-99298018D01*
X112799591Y-99335500D01*
X112944409Y-99335500D01*
X113084292Y-99298018D01*
X113122000Y-99276247D01*
X113122000Y-100264008D01*
G37*
%TD.AperFunction*%
%TA.AperFunction,Conductor*%
G36*
X112274380Y-74197000D02*
G01*
X112330313Y-74238872D01*
X112354730Y-74304336D01*
X112352664Y-74337373D01*
X112335700Y-74422659D01*
X112335700Y-74580346D01*
X112366461Y-74734989D01*
X112366464Y-74735001D01*
X112426802Y-74880672D01*
X112426809Y-74880685D01*
X112483784Y-74965953D01*
X112509619Y-75004618D01*
X112514802Y-75012374D01*
X112535680Y-75079051D01*
X112535700Y-75081265D01*
X112535700Y-89180930D01*
X112535699Y-89180948D01*
X112535699Y-89346654D01*
X112535698Y-89346654D01*
X112576623Y-89499385D01*
X112605558Y-89549500D01*
X112605559Y-89549504D01*
X112605560Y-89549504D01*
X112655679Y-89636314D01*
X112655681Y-89636317D01*
X112774549Y-89755185D01*
X112774555Y-89755190D01*
X114775181Y-91755816D01*
X114808666Y-91817139D01*
X114811500Y-91843497D01*
X114811500Y-97337242D01*
X114791815Y-97404281D01*
X114743795Y-97447727D01*
X114650461Y-97495283D01*
X114569121Y-97554381D01*
X114465434Y-97629714D01*
X114465432Y-97629716D01*
X114465431Y-97629716D01*
X114303716Y-97791431D01*
X114303709Y-97791440D01*
X114242007Y-97876364D01*
X114186677Y-97919030D01*
X114117063Y-97925008D01*
X114055269Y-97892401D01*
X114041372Y-97876363D01*
X113979907Y-97791763D01*
X113979902Y-97791757D01*
X113818242Y-97630097D01*
X113633276Y-97495711D01*
X113429568Y-97391917D01*
X113212124Y-97321265D01*
X113122000Y-97306990D01*
X113122000Y-98294752D01*
X113084292Y-98272982D01*
X112944409Y-98235500D01*
X112799591Y-98235500D01*
X112659708Y-98272982D01*
X112622000Y-98294752D01*
X112622000Y-97306990D01*
X112621999Y-97306990D01*
X112531873Y-97321265D01*
X112364717Y-97375577D01*
X112294876Y-97377572D01*
X112235044Y-97341491D01*
X112204216Y-97278790D01*
X112202400Y-97257646D01*
X112202400Y-95704345D01*
X112202400Y-95704343D01*
X112161477Y-95551616D01*
X112161477Y-95551615D01*
X112161477Y-95551614D01*
X112132539Y-95501495D01*
X112132537Y-95501492D01*
X112082420Y-95414684D01*
X111970616Y-95302880D01*
X111970615Y-95302879D01*
X111966285Y-95298549D01*
X111966274Y-95298539D01*
X111442916Y-94775181D01*
X111409431Y-94713858D01*
X111414415Y-94644166D01*
X111456287Y-94588233D01*
X111521751Y-94563816D01*
X111530597Y-94563500D01*
X111684317Y-94563500D01*
X111886417Y-94531490D01*
X112081031Y-94468255D01*
X112263349Y-94375359D01*
X112307921Y-94342974D01*
X111628447Y-93663500D01*
X111634661Y-93663500D01*
X111736394Y-93636241D01*
X111827606Y-93583580D01*
X111902080Y-93509106D01*
X111954741Y-93417894D01*
X111982000Y-93316161D01*
X111982000Y-93309947D01*
X112661474Y-93989421D01*
X112693859Y-93944849D01*
X112786755Y-93762531D01*
X112849990Y-93567917D01*
X112882000Y-93365817D01*
X112882000Y-93161182D01*
X112849990Y-92959082D01*
X112786755Y-92764468D01*
X112693859Y-92582150D01*
X112661474Y-92537577D01*
X112661474Y-92537576D01*
X111982000Y-93217051D01*
X111982000Y-93210839D01*
X111954741Y-93109106D01*
X111902080Y-93017894D01*
X111827606Y-92943420D01*
X111736394Y-92890759D01*
X111634661Y-92863500D01*
X111628446Y-92863500D01*
X112307922Y-92184024D01*
X112307921Y-92184023D01*
X112263359Y-92151647D01*
X112263350Y-92151641D01*
X112081031Y-92058744D01*
X111886417Y-91995509D01*
X111684317Y-91963500D01*
X111479683Y-91963500D01*
X111277582Y-91995509D01*
X111101619Y-92052685D01*
X111031778Y-92054680D01*
X110971945Y-92018600D01*
X110941116Y-91955899D01*
X110939300Y-91934754D01*
X110939300Y-75734929D01*
X110958985Y-75667890D01*
X110975619Y-75647248D01*
X111213748Y-75409119D01*
X111213751Y-75409116D01*
X111295884Y-75286195D01*
X111352458Y-75149613D01*
X111378196Y-75020223D01*
X111410581Y-74958312D01*
X111412074Y-74956792D01*
X112143367Y-74225499D01*
X112204688Y-74192016D01*
X112274380Y-74197000D01*
G37*
%TD.AperFunction*%
%TA.AperFunction,Conductor*%
G36*
X122261000Y-71295500D02*
G01*
X122958828Y-71295500D01*
X122958844Y-71295499D01*
X123018372Y-71289098D01*
X123018379Y-71289096D01*
X123153086Y-71238854D01*
X123153093Y-71238850D01*
X123268187Y-71152690D01*
X123268190Y-71152687D01*
X123354350Y-71037593D01*
X123354354Y-71037586D01*
X123384213Y-70957531D01*
X123426084Y-70901597D01*
X123491548Y-70877180D01*
X123559821Y-70892031D01*
X123588076Y-70913183D01*
X123638636Y-70963743D01*
X123638641Y-70963747D01*
X123744046Y-71040327D01*
X123816978Y-71093315D01*
X123933501Y-71152687D01*
X124013393Y-71193395D01*
X124013396Y-71193396D01*
X124118221Y-71227455D01*
X124223049Y-71261515D01*
X124440778Y-71296000D01*
X124440779Y-71296000D01*
X124661219Y-71296000D01*
X124661222Y-71296000D01*
X124735389Y-71284252D01*
X124804679Y-71293206D01*
X124842466Y-71319044D01*
X125238181Y-71714759D01*
X125271666Y-71776082D01*
X125274500Y-71802440D01*
X125274500Y-74026875D01*
X125254815Y-74093914D01*
X125238181Y-74114556D01*
X125159312Y-74193424D01*
X125159312Y-74193425D01*
X125159310Y-74193427D01*
X125136007Y-74225501D01*
X125048240Y-74346300D01*
X124962454Y-74514663D01*
X124904060Y-74694380D01*
X124894028Y-74757717D01*
X124864098Y-74820852D01*
X124804786Y-74857782D01*
X124734924Y-74856784D01*
X124676691Y-74818173D01*
X124668453Y-74807209D01*
X124630951Y-74751084D01*
X124630948Y-74751080D01*
X124526419Y-74646551D01*
X124526415Y-74646548D01*
X124403501Y-74564419D01*
X124403491Y-74564414D01*
X124375199Y-74552695D01*
X124334971Y-74525815D01*
X121316338Y-71507181D01*
X121282853Y-71445858D01*
X121287837Y-71376166D01*
X121329709Y-71320233D01*
X121395173Y-71295816D01*
X121404019Y-71295500D01*
X121761000Y-71295500D01*
X121761000Y-70270777D01*
X121837306Y-70314833D01*
X121951756Y-70345500D01*
X122070244Y-70345500D01*
X122184694Y-70314833D01*
X122261000Y-70270777D01*
X122261000Y-71295500D01*
G37*
%TD.AperFunction*%
%TA.AperFunction,Conductor*%
G36*
X113882418Y-58598917D02*
G01*
X113910673Y-58620069D01*
X114024213Y-58733609D01*
X114196179Y-58858548D01*
X114196181Y-58858549D01*
X114196184Y-58858551D01*
X114385588Y-58955057D01*
X114587757Y-59020746D01*
X114797713Y-59054000D01*
X114797714Y-59054000D01*
X115010286Y-59054000D01*
X115010287Y-59054000D01*
X115105728Y-59038883D01*
X115175021Y-59047837D01*
X115212807Y-59073675D01*
X118739181Y-62600048D01*
X118772666Y-62661371D01*
X118775500Y-62687729D01*
X118775500Y-70588506D01*
X118775500Y-70726494D01*
X118775500Y-70726496D01*
X118775499Y-70726496D01*
X118802418Y-70861822D01*
X118802421Y-70861832D01*
X118855222Y-70989307D01*
X118931885Y-71104042D01*
X118931888Y-71104046D01*
X121438666Y-73610823D01*
X121472151Y-73672146D01*
X121467167Y-73741838D01*
X121425295Y-73797771D01*
X121359831Y-73822188D01*
X121312666Y-73816435D01*
X121276118Y-73804559D01*
X121089486Y-73775000D01*
X121089481Y-73775000D01*
X120900519Y-73775000D01*
X120900514Y-73775000D01*
X120713881Y-73804559D01*
X120534163Y-73862954D01*
X120365800Y-73948740D01*
X120307350Y-73991207D01*
X120212927Y-74059810D01*
X120212925Y-74059812D01*
X120212924Y-74059812D01*
X120079312Y-74193424D01*
X120079305Y-74193433D01*
X119967260Y-74347647D01*
X119911930Y-74390313D01*
X119842317Y-74396291D01*
X119780522Y-74363685D01*
X119747168Y-74306853D01*
X119738477Y-74274417D01*
X119738473Y-74274409D01*
X119659424Y-74137490D01*
X119659421Y-74137486D01*
X119659420Y-74137484D01*
X119547616Y-74025680D01*
X119547615Y-74025679D01*
X119543285Y-74021349D01*
X119543274Y-74021339D01*
X117153790Y-71631855D01*
X117153788Y-71631852D01*
X117034917Y-71512981D01*
X117034916Y-71512980D01*
X116948104Y-71462860D01*
X116948104Y-71462859D01*
X116948099Y-71462857D01*
X116936547Y-71456187D01*
X116926995Y-71450672D01*
X116878781Y-71400102D01*
X116864999Y-71343287D01*
X116864999Y-70945629D01*
X116864998Y-70945623D01*
X116858591Y-70886016D01*
X116808297Y-70751171D01*
X116808293Y-70751164D01*
X116722047Y-70635955D01*
X116722044Y-70635952D01*
X116606835Y-70549706D01*
X116606828Y-70549702D01*
X116471982Y-70499408D01*
X116471983Y-70499408D01*
X116412383Y-70493001D01*
X116412381Y-70493000D01*
X116412373Y-70493000D01*
X116412364Y-70493000D01*
X114411629Y-70493000D01*
X114411623Y-70493001D01*
X114352016Y-70499408D01*
X114217171Y-70549702D01*
X114217164Y-70549706D01*
X114101955Y-70635952D01*
X114101952Y-70635955D01*
X114015706Y-70751164D01*
X114015703Y-70751170D01*
X114005308Y-70779041D01*
X113963436Y-70834974D01*
X113897972Y-70859391D01*
X113829699Y-70844539D01*
X113816250Y-70836031D01*
X113633538Y-70703283D01*
X113540205Y-70655727D01*
X113489409Y-70607752D01*
X113472500Y-70545242D01*
X113472500Y-68920116D01*
X113492185Y-68853077D01*
X113544989Y-68807322D01*
X113614147Y-68797378D01*
X113652796Y-68809632D01*
X113662781Y-68814720D01*
X113780832Y-68853077D01*
X113857465Y-68877977D01*
X113958557Y-68893988D01*
X114059648Y-68910000D01*
X114059649Y-68910000D01*
X114264351Y-68910000D01*
X114264352Y-68910000D01*
X114466534Y-68877977D01*
X114661219Y-68814720D01*
X114843610Y-68721787D01*
X114936590Y-68654232D01*
X115009213Y-68601471D01*
X115009215Y-68601468D01*
X115009219Y-68601466D01*
X115153966Y-68456719D01*
X115153968Y-68456715D01*
X115153971Y-68456713D01*
X115274286Y-68291111D01*
X115274415Y-68290859D01*
X115301795Y-68237121D01*
X115349769Y-68186326D01*
X115417589Y-68169530D01*
X115483725Y-68192067D01*
X115522765Y-68237121D01*
X115550141Y-68290850D01*
X115550147Y-68290859D01*
X115582523Y-68335421D01*
X115582524Y-68335422D01*
X116262000Y-67655946D01*
X116262000Y-67662161D01*
X116289259Y-67763894D01*
X116341920Y-67855106D01*
X116416394Y-67929580D01*
X116507606Y-67982241D01*
X116609339Y-68009500D01*
X116615553Y-68009500D01*
X115936076Y-68688974D01*
X115980650Y-68721359D01*
X116162968Y-68814255D01*
X116357582Y-68877490D01*
X116559683Y-68909500D01*
X116764317Y-68909500D01*
X116966417Y-68877490D01*
X117161031Y-68814255D01*
X117343349Y-68721359D01*
X117387921Y-68688974D01*
X116708447Y-68009500D01*
X116714661Y-68009500D01*
X116816394Y-67982241D01*
X116907606Y-67929580D01*
X116982080Y-67855106D01*
X117034741Y-67763894D01*
X117062000Y-67662161D01*
X117062000Y-67655948D01*
X117741474Y-68335422D01*
X117741474Y-68335421D01*
X117773859Y-68290849D01*
X117866755Y-68108531D01*
X117929990Y-67913917D01*
X117962000Y-67711817D01*
X117962000Y-67507182D01*
X117929990Y-67305082D01*
X117866755Y-67110468D01*
X117773859Y-66928150D01*
X117741474Y-66883577D01*
X117741474Y-66883576D01*
X117062000Y-67563051D01*
X117062000Y-67556839D01*
X117034741Y-67455106D01*
X116982080Y-67363894D01*
X116907606Y-67289420D01*
X116816394Y-67236759D01*
X116714661Y-67209500D01*
X116708446Y-67209500D01*
X117387922Y-66530024D01*
X117387921Y-66530023D01*
X117343359Y-66497647D01*
X117343350Y-66497641D01*
X117161031Y-66404744D01*
X116966417Y-66341509D01*
X116764317Y-66309500D01*
X116559683Y-66309500D01*
X116357582Y-66341509D01*
X116162968Y-66404744D01*
X115980644Y-66497643D01*
X115936077Y-66530023D01*
X115936077Y-66530024D01*
X116615554Y-67209500D01*
X116609339Y-67209500D01*
X116507606Y-67236759D01*
X116416394Y-67289420D01*
X116341920Y-67363894D01*
X116289259Y-67455106D01*
X116262000Y-67556839D01*
X116262000Y-67563053D01*
X115582524Y-66883577D01*
X115582523Y-66883577D01*
X115550143Y-66928144D01*
X115522765Y-66981878D01*
X115474790Y-67032674D01*
X115406969Y-67049469D01*
X115340834Y-67026931D01*
X115301795Y-66981878D01*
X115274284Y-66927885D01*
X115153971Y-66762286D01*
X115009213Y-66617528D01*
X114843613Y-66497215D01*
X114843612Y-66497214D01*
X114843610Y-66497213D01*
X114786653Y-66468191D01*
X114661223Y-66404281D01*
X114466534Y-66341022D01*
X114291995Y-66313378D01*
X114264352Y-66309000D01*
X114059648Y-66309000D01*
X114035329Y-66312851D01*
X113857465Y-66341022D01*
X113662776Y-66404281D01*
X113652795Y-66409368D01*
X113584126Y-66422264D01*
X113519385Y-66395988D01*
X113479128Y-66338881D01*
X113472500Y-66298883D01*
X113472500Y-59284145D01*
X113472500Y-59284143D01*
X113431577Y-59131416D01*
X113431576Y-59131414D01*
X113429473Y-59123565D01*
X113430926Y-59123175D01*
X113424421Y-59062720D01*
X113455690Y-59000238D01*
X113472136Y-58985464D01*
X113571546Y-58911046D01*
X113657796Y-58795831D01*
X113706810Y-58664416D01*
X113748681Y-58608484D01*
X113814145Y-58584066D01*
X113882418Y-58598917D01*
G37*
%TD.AperFunction*%
%TA.AperFunction,Conductor*%
G36*
X111182000Y-67662161D02*
G01*
X111209259Y-67763894D01*
X111261920Y-67855106D01*
X111336394Y-67929580D01*
X111427606Y-67982241D01*
X111529339Y-68009500D01*
X111535552Y-68009500D01*
X110856076Y-68688974D01*
X110900650Y-68721359D01*
X111082968Y-68814255D01*
X111277582Y-68877490D01*
X111479683Y-68909500D01*
X111684317Y-68909500D01*
X111886417Y-68877490D01*
X112081033Y-68814254D01*
X112091204Y-68809072D01*
X112159873Y-68796175D01*
X112224614Y-68822451D01*
X112264871Y-68879557D01*
X112271500Y-68919556D01*
X112271500Y-70545242D01*
X112251815Y-70612281D01*
X112203795Y-70655727D01*
X112110461Y-70703283D01*
X112044551Y-70751170D01*
X111925434Y-70837714D01*
X111925432Y-70837716D01*
X111925431Y-70837716D01*
X111763715Y-70999432D01*
X111702318Y-71083938D01*
X111646987Y-71126603D01*
X111577374Y-71132582D01*
X111515579Y-71099976D01*
X111501682Y-71083938D01*
X111490773Y-71068923D01*
X111440286Y-70999434D01*
X111278566Y-70837714D01*
X111093538Y-70703283D01*
X111000204Y-70655727D01*
X110889755Y-70599450D01*
X110672248Y-70528778D01*
X110486812Y-70499408D01*
X110446354Y-70493000D01*
X110217646Y-70493000D01*
X110177188Y-70499408D01*
X109991753Y-70528778D01*
X109991750Y-70528778D01*
X109774244Y-70599450D01*
X109570461Y-70703283D01*
X109504551Y-70751170D01*
X109385434Y-70837714D01*
X109385432Y-70837716D01*
X109385431Y-70837716D01*
X109223716Y-70999431D01*
X109223716Y-70999432D01*
X109223714Y-70999434D01*
X109165980Y-71078896D01*
X109089283Y-71184461D01*
X109005607Y-71348684D01*
X108986944Y-71368443D01*
X108971007Y-71390457D01*
X108961881Y-71394980D01*
X108957632Y-71399480D01*
X108940305Y-71407864D01*
X108933873Y-71410380D01*
X108846015Y-71433923D01*
X108795895Y-71462860D01*
X108752636Y-71487834D01*
X108709085Y-71512979D01*
X108709082Y-71512981D01*
X107996181Y-72225883D01*
X107934858Y-72259368D01*
X107865166Y-72254384D01*
X107809233Y-72212512D01*
X107784816Y-72147048D01*
X107784500Y-72138202D01*
X107784500Y-68417819D01*
X107804185Y-68350780D01*
X107856989Y-68305025D01*
X107926147Y-68295081D01*
X107989703Y-68324106D01*
X108008818Y-68344934D01*
X108019599Y-68359773D01*
X108090030Y-68456715D01*
X108234786Y-68601471D01*
X108355226Y-68688974D01*
X108400390Y-68721787D01*
X108516607Y-68781003D01*
X108582776Y-68814718D01*
X108582778Y-68814718D01*
X108582781Y-68814720D01*
X108687137Y-68848627D01*
X108777465Y-68877977D01*
X108878557Y-68893988D01*
X108979648Y-68910000D01*
X108979649Y-68910000D01*
X109184351Y-68910000D01*
X109184352Y-68910000D01*
X109386534Y-68877977D01*
X109581219Y-68814720D01*
X109763610Y-68721787D01*
X109856590Y-68654232D01*
X109929213Y-68601471D01*
X109929215Y-68601468D01*
X109929219Y-68601466D01*
X110073966Y-68456719D01*
X110073968Y-68456715D01*
X110073971Y-68456713D01*
X110194286Y-68291111D01*
X110194415Y-68290859D01*
X110221795Y-68237121D01*
X110269769Y-68186326D01*
X110337589Y-68169530D01*
X110403725Y-68192067D01*
X110442765Y-68237121D01*
X110470141Y-68290850D01*
X110470147Y-68290859D01*
X110502523Y-68335421D01*
X110502524Y-68335422D01*
X111182000Y-67655946D01*
X111182000Y-67662161D01*
G37*
%TD.AperFunction*%
%TD*%
M02*
