%TF.GenerationSoftware,KiCad,Pcbnew,9.0.3*%
%TF.CreationDate,2025-07-16T16:29:30-04:00*%
%TF.ProjectId,Breadboard_Power_Supply,42726561-6462-46f6-9172-645f506f7765,rev?*%
%TF.SameCoordinates,Original*%
%TF.FileFunction,Copper,L2,Bot*%
%TF.FilePolarity,Positive*%
%FSLAX46Y46*%
G04 Gerber Fmt 4.6, Leading zero omitted, Abs format (unit mm)*
G04 Created by KiCad (PCBNEW 9.0.3) date 2025-07-16 16:29:30*
%MOMM*%
%LPD*%
G01*
G04 APERTURE LIST*
G04 Aperture macros list*
%AMRoundRect*
0 Rectangle with rounded corners*
0 $1 Rounding radius*
0 $2 $3 $4 $5 $6 $7 $8 $9 X,Y pos of 4 corners*
0 Add a 4 corners polygon primitive as box body*
4,1,4,$2,$3,$4,$5,$6,$7,$8,$9,$2,$3,0*
0 Add four circle primitives for the rounded corners*
1,1,$1+$1,$2,$3*
1,1,$1+$1,$4,$5*
1,1,$1+$1,$6,$7*
1,1,$1+$1,$8,$9*
0 Add four rect primitives between the rounded corners*
20,1,$1+$1,$2,$3,$4,$5,0*
20,1,$1+$1,$4,$5,$6,$7,0*
20,1,$1+$1,$6,$7,$8,$9,0*
20,1,$1+$1,$8,$9,$2,$3,0*%
G04 Aperture macros list end*
%TA.AperFunction,ComponentPad*%
%ADD10C,1.600000*%
%TD*%
%TA.AperFunction,ComponentPad*%
%ADD11R,3.000000X3.000000*%
%TD*%
%TA.AperFunction,ComponentPad*%
%ADD12C,3.000000*%
%TD*%
%TA.AperFunction,ComponentPad*%
%ADD13C,1.400000*%
%TD*%
%TA.AperFunction,ComponentPad*%
%ADD14R,1.905000X2.000000*%
%TD*%
%TA.AperFunction,ComponentPad*%
%ADD15O,1.905000X2.000000*%
%TD*%
%TA.AperFunction,ComponentPad*%
%ADD16C,1.508000*%
%TD*%
%TA.AperFunction,ComponentPad*%
%ADD17R,1.700000X1.700000*%
%TD*%
%TA.AperFunction,ComponentPad*%
%ADD18C,1.700000*%
%TD*%
%TA.AperFunction,ComponentPad*%
%ADD19R,1.800000X1.800000*%
%TD*%
%TA.AperFunction,ComponentPad*%
%ADD20C,1.800000*%
%TD*%
%TA.AperFunction,ComponentPad*%
%ADD21R,3.500000X3.500000*%
%TD*%
%TA.AperFunction,ComponentPad*%
%ADD22RoundRect,0.750000X-0.750000X-1.000000X0.750000X-1.000000X0.750000X1.000000X-0.750000X1.000000X0*%
%TD*%
%TA.AperFunction,ComponentPad*%
%ADD23RoundRect,0.875000X-0.875000X-0.875000X0.875000X-0.875000X0.875000X0.875000X-0.875000X0.875000X0*%
%TD*%
%TA.AperFunction,ViaPad*%
%ADD24C,0.600000*%
%TD*%
%TA.AperFunction,Conductor*%
%ADD25C,0.400000*%
%TD*%
%TA.AperFunction,Conductor*%
%ADD26C,0.500000*%
%TD*%
%TA.AperFunction,Conductor*%
%ADD27C,0.300000*%
%TD*%
%TA.AperFunction,Conductor*%
%ADD28C,0.600000*%
%TD*%
G04 APERTURE END LIST*
D10*
%TO.P,C1,1*%
%TO.N,12V*%
X114162000Y-67609500D03*
%TO.P,C1,2*%
%TO.N,GND*%
X116662000Y-67609500D03*
%TD*%
D11*
%TO.P,J7,1,Pin_1*%
%TO.N,GND*%
X127858000Y-104439500D03*
D12*
%TO.P,J7,2,Pin_2*%
%TO.N,Net-(J1-Pin_2)*%
X122778000Y-104439500D03*
%TD*%
D13*
%TO.P,R1,1*%
%TO.N,Net-(D1-A)*%
X126075000Y-74975500D03*
%TO.P,R1,2*%
%TO.N,12V*%
X120995000Y-74975500D03*
%TD*%
%TO.P,R3,1*%
%TO.N,GND*%
X122270000Y-97835500D03*
%TO.P,R3,2*%
%TO.N,Net-(U2-ADJ)*%
X127350000Y-97835500D03*
%TD*%
D10*
%TO.P,C2,1*%
%TO.N,5V*%
X109082000Y-67609500D03*
%TO.P,C2,2*%
%TO.N,GND*%
X111582000Y-67609500D03*
%TD*%
D11*
%TO.P,J5,1,Pin_1*%
%TO.N,GND*%
X122778000Y-59989500D03*
D12*
%TO.P,J5,2,Pin_2*%
%TO.N,Net-(J2-Pin_2)*%
X127858000Y-59989500D03*
%TD*%
D14*
%TO.P,U1,1,VI*%
%TO.N,12V*%
X110332000Y-98785500D03*
D15*
%TO.P,U1,2,GND*%
%TO.N,GND*%
X112872000Y-98785500D03*
%TO.P,U1,3,VO*%
%TO.N,5V*%
X115412000Y-98785500D03*
%TD*%
D14*
%TO.P,U2,1,ADJ*%
%TO.N,Net-(U2-ADJ)*%
X115412000Y-71993500D03*
D15*
%TO.P,U2,2,VO*%
%TO.N,3.3V*%
X112872000Y-71993500D03*
%TO.P,U2,3,VI*%
%TO.N,12V*%
X110332000Y-71993500D03*
%TD*%
D13*
%TO.P,R2,1*%
%TO.N,Net-(U2-ADJ)*%
X122270000Y-94025500D03*
%TO.P,R2,2*%
%TO.N,3.3V*%
X127350000Y-94025500D03*
%TD*%
D10*
%TO.P,C3,1*%
%TO.N,3.3V*%
X109082000Y-93263500D03*
%TO.P,C3,2*%
%TO.N,GND*%
X111582000Y-93263500D03*
%TD*%
D16*
%TO.P,S1,1*%
%TO.N,12V*%
X128112000Y-86833500D03*
%TO.P,S1,2*%
X128112000Y-84333500D03*
%TO.P,S1,3*%
%TO.N,unconnected-(S1-Pad3)*%
X128112000Y-81833500D03*
%TD*%
D17*
%TO.P,J2,1,Pin_1*%
%TO.N,GND*%
X134716000Y-103880700D03*
D18*
%TO.P,J2,2,Pin_2*%
%TO.N,Net-(J2-Pin_2)*%
X134716000Y-106420700D03*
%TD*%
D17*
%TO.P,J1,1,Pin_1*%
%TO.N,GND*%
X134716000Y-57952500D03*
D18*
%TO.P,J1,2,Pin_2*%
%TO.N,Net-(J1-Pin_2)*%
X134716000Y-60492500D03*
%TD*%
D19*
%TO.P,D1,1,K*%
%TO.N,GND*%
X122011000Y-69895500D03*
D20*
%TO.P,D1,2,A*%
%TO.N,Net-(D1-A)*%
X124551000Y-69895500D03*
%TD*%
D21*
%TO.P,J6,1*%
%TO.N,12V*%
X121412000Y-83103500D03*
D22*
%TO.P,J6,2*%
%TO.N,GND*%
X115412000Y-83103500D03*
D23*
%TO.P,J6,3*%
X118412000Y-87803500D03*
%TD*%
D17*
%TO.P,J4,1,Pin_1*%
%TO.N,3.3V*%
X112364000Y-106725500D03*
D18*
%TO.P,J4,2,Pin_2*%
%TO.N,Net-(J2-Pin_2)*%
X114904000Y-106725500D03*
%TO.P,J4,3,Pin_3*%
%TO.N,5V*%
X117444000Y-106725500D03*
%TD*%
D17*
%TO.P,J3,1,Pin_1*%
%TO.N,3.3V*%
X112364000Y-57703500D03*
D18*
%TO.P,J3,2,Pin_2*%
%TO.N,Net-(J1-Pin_2)*%
X114904000Y-57703500D03*
%TO.P,J3,3,Pin_3*%
%TO.N,5V*%
X117444000Y-57703500D03*
%TD*%
D24*
%TO.N,5V*%
X113136200Y-74501500D03*
%TD*%
D25*
%TO.N,12V*%
X111586200Y-70185300D02*
X111586200Y-70739300D01*
D26*
X111586200Y-70739300D02*
X110332000Y-71993500D01*
D27*
X111790000Y-73451500D02*
X110332000Y-71993500D01*
D25*
X114162000Y-67609500D02*
X111586200Y-70185300D01*
D27*
X119471000Y-73451500D02*
X111790000Y-73451500D01*
D26*
X121412000Y-83103500D02*
X126882000Y-83103500D01*
D27*
X120995000Y-74975500D02*
X119471000Y-73451500D01*
D26*
X126882000Y-83103500D02*
X128112000Y-84333500D01*
D25*
%TO.N,GND*%
X113360000Y-65831500D02*
X114884000Y-65831500D01*
X124579700Y-59989500D02*
X126616700Y-57952500D01*
X111582000Y-67609500D02*
X113360000Y-65831500D01*
D26*
X133005500Y-104439500D02*
X133564300Y-103880700D01*
X127858000Y-102407500D02*
X126842000Y-101391500D01*
X125826000Y-101391500D02*
X122270000Y-97835500D01*
X120809300Y-69895500D02*
X118523300Y-67609500D01*
X122778000Y-59989500D02*
X124579700Y-59989500D01*
X122011000Y-69895500D02*
X120809300Y-69895500D01*
X114396000Y-96565500D02*
X112872000Y-98089500D01*
X118523300Y-67609500D02*
X116662000Y-67609500D01*
X112872000Y-98089500D02*
X112872000Y-98785500D01*
D25*
X126616700Y-57952500D02*
X134716000Y-57952500D01*
D26*
X127858000Y-104439500D02*
X133005500Y-104439500D01*
X121000000Y-96565500D02*
X114396000Y-96565500D01*
D25*
X114884000Y-65831500D02*
X116662000Y-67609500D01*
D26*
X126842000Y-101391500D02*
X125826000Y-101391500D01*
X122270000Y-97835500D02*
X121000000Y-96565500D01*
D28*
X134716000Y-103880700D02*
X133564300Y-103880700D01*
D26*
X127858000Y-104439500D02*
X127858000Y-102407500D01*
D27*
%TO.N,5V*%
X108300000Y-72943500D02*
X109858000Y-74501500D01*
D26*
X109082000Y-67609500D02*
X108300000Y-68391500D01*
D25*
X117444000Y-57703500D02*
X117444000Y-58846500D01*
D26*
X109082000Y-67208500D02*
X109082000Y-67609500D01*
D27*
X109858000Y-74501500D02*
X113136200Y-74501500D01*
D25*
X117444000Y-58846500D02*
X109082000Y-67208500D01*
D27*
X108300000Y-68391500D02*
X108300000Y-72943500D01*
D26*
%TO.N,3.3V*%
X109082000Y-93263500D02*
X111114000Y-91231500D01*
X124556000Y-91231500D02*
X127350000Y-94025500D01*
X111114000Y-91231500D02*
X124556000Y-91231500D01*
%TO.N,Net-(J1-Pin_2)*%
X134716000Y-60492500D02*
X135737000Y-60492500D01*
D25*
X135737000Y-60492500D02*
X136240000Y-59989500D01*
X116086500Y-56521000D02*
X114904000Y-57703500D01*
X136240000Y-56941500D02*
X135819500Y-56521000D01*
X116428000Y-56179500D02*
X116086500Y-56521000D01*
X136240000Y-59989500D02*
X136240000Y-56941500D01*
X135819500Y-56521000D02*
X135478000Y-56179500D01*
X135478000Y-56179500D02*
X116428000Y-56179500D01*
%TO.N,Net-(J2-Pin_2)*%
X132379200Y-108757500D02*
X134716000Y-106420700D01*
X116936000Y-108757500D02*
X132379200Y-108757500D01*
X114904000Y-106725500D02*
X116936000Y-108757500D01*
D26*
%TO.N,Net-(U2-ADJ)*%
X127350000Y-97835500D02*
X126080000Y-97835500D01*
X126080000Y-97835500D02*
X122270000Y-94025500D01*
%TD*%
%TA.AperFunction,Conductor*%
%TO.N,GND*%
G36*
X133313772Y-56899685D02*
G01*
X133359527Y-56952489D01*
X133370022Y-57017256D01*
X133366000Y-57054655D01*
X133366000Y-57702500D01*
X134282988Y-57702500D01*
X134250075Y-57759507D01*
X134216000Y-57886674D01*
X134216000Y-58018326D01*
X134250075Y-58145493D01*
X134282988Y-58202500D01*
X133366000Y-58202500D01*
X133366000Y-58850344D01*
X133372401Y-58909872D01*
X133372403Y-58909879D01*
X133422645Y-59044586D01*
X133422649Y-59044593D01*
X133508809Y-59159687D01*
X133508812Y-59159690D01*
X133623906Y-59245850D01*
X133623913Y-59245854D01*
X133755470Y-59294922D01*
X133811404Y-59336793D01*
X133835821Y-59402258D01*
X133820969Y-59470531D01*
X133799819Y-59498785D01*
X133685889Y-59612715D01*
X133560951Y-59784679D01*
X133464444Y-59974085D01*
X133398753Y-60176260D01*
X133371316Y-60349495D01*
X133365500Y-60386213D01*
X133365500Y-60598787D01*
X133398754Y-60808743D01*
X133451448Y-60970919D01*
X133464444Y-61010914D01*
X133560951Y-61200320D01*
X133685890Y-61372286D01*
X133836213Y-61522609D01*
X134008179Y-61647548D01*
X134008181Y-61647549D01*
X134008184Y-61647551D01*
X134197588Y-61744057D01*
X134399757Y-61809746D01*
X134609713Y-61843000D01*
X134609714Y-61843000D01*
X134822286Y-61843000D01*
X134822287Y-61843000D01*
X135032243Y-61809746D01*
X135234412Y-61744057D01*
X135423816Y-61647551D01*
X135493570Y-61596872D01*
X135595786Y-61522609D01*
X135595788Y-61522606D01*
X135595792Y-61522604D01*
X135746104Y-61372292D01*
X135816432Y-61275491D01*
X135871762Y-61232825D01*
X135892548Y-61226761D01*
X135955913Y-61214158D01*
X136092495Y-61157584D01*
X136215416Y-61075451D01*
X136319951Y-60970916D01*
X136402084Y-60847995D01*
X136413803Y-60819700D01*
X136440680Y-60779475D01*
X136784113Y-60436043D01*
X136784117Y-60436035D01*
X136787971Y-60431341D01*
X136789548Y-60432635D01*
X136835996Y-60393809D01*
X136905320Y-60385093D01*
X136968351Y-60415240D01*
X137005078Y-60474679D01*
X137009500Y-60507499D01*
X137009500Y-63027742D01*
X137007973Y-63047141D01*
X136999773Y-63098911D01*
X136987785Y-63135807D01*
X136968474Y-63173707D01*
X136945670Y-63205093D01*
X136915593Y-63235170D01*
X136884207Y-63257974D01*
X136846307Y-63277285D01*
X136809411Y-63289273D01*
X136779068Y-63294079D01*
X136757639Y-63297473D01*
X136738243Y-63299000D01*
X133800809Y-63299000D01*
X133618326Y-63321157D01*
X133496670Y-63335929D01*
X133345775Y-63373121D01*
X133199190Y-63409251D01*
X132973746Y-63494751D01*
X132912730Y-63517892D01*
X132912727Y-63517893D01*
X132912723Y-63517895D01*
X132912722Y-63517895D01*
X132641459Y-63660266D01*
X132641448Y-63660272D01*
X132389307Y-63834311D01*
X132389301Y-63834316D01*
X132159979Y-64037477D01*
X132159977Y-64037479D01*
X131956816Y-64266801D01*
X131956811Y-64266807D01*
X131782772Y-64518948D01*
X131782766Y-64518959D01*
X131640395Y-64790222D01*
X131640395Y-64790223D01*
X131640393Y-64790227D01*
X131640392Y-64790230D01*
X131617251Y-64851246D01*
X131531751Y-65076690D01*
X131531750Y-65076696D01*
X131458429Y-65374170D01*
X131443657Y-65495826D01*
X131421500Y-65678309D01*
X131421500Y-98750690D01*
X131421561Y-98751190D01*
X131458429Y-99054830D01*
X131475283Y-99123208D01*
X131531751Y-99352309D01*
X131559506Y-99425491D01*
X131640392Y-99638770D01*
X131640394Y-99638774D01*
X131640395Y-99638776D01*
X131640395Y-99638777D01*
X131782766Y-99910040D01*
X131782772Y-99910051D01*
X131956811Y-100162192D01*
X131956816Y-100162198D01*
X132159977Y-100391520D01*
X132159979Y-100391522D01*
X132389301Y-100594683D01*
X132389307Y-100594688D01*
X132508567Y-100677006D01*
X132641447Y-100768727D01*
X132912730Y-100911108D01*
X133135621Y-100995639D01*
X133199190Y-101019748D01*
X133199192Y-101019748D01*
X133199196Y-101019750D01*
X133496670Y-101093071D01*
X133731874Y-101121629D01*
X133800809Y-101130000D01*
X133800812Y-101130000D01*
X133888108Y-101130000D01*
X136682108Y-101130000D01*
X136741039Y-101130000D01*
X136754922Y-101130780D01*
X136763353Y-101131730D01*
X136848831Y-101141361D01*
X136875892Y-101147537D01*
X136958481Y-101176437D01*
X136983491Y-101188480D01*
X137057581Y-101235034D01*
X137079290Y-101252347D01*
X137141152Y-101314209D01*
X137158465Y-101335918D01*
X137205017Y-101410005D01*
X137217064Y-101435022D01*
X137245960Y-101517601D01*
X137252139Y-101544672D01*
X137262720Y-101638577D01*
X137263500Y-101652461D01*
X137263500Y-108496538D01*
X137262720Y-108510422D01*
X137252139Y-108604327D01*
X137245960Y-108631398D01*
X137217064Y-108713977D01*
X137205017Y-108738994D01*
X137158465Y-108813081D01*
X137141152Y-108834790D01*
X137079290Y-108896652D01*
X137057581Y-108913965D01*
X136983494Y-108960517D01*
X136958477Y-108972564D01*
X136875898Y-109001460D01*
X136848827Y-109007639D01*
X136754923Y-109018220D01*
X136741039Y-109019000D01*
X133407719Y-109019000D01*
X133340680Y-108999315D01*
X133294925Y-108946511D01*
X133284981Y-108877353D01*
X133314006Y-108813797D01*
X133320038Y-108807319D01*
X133523030Y-108604327D01*
X134346150Y-107781205D01*
X134407471Y-107747722D01*
X134453227Y-107746415D01*
X134511244Y-107755604D01*
X134609713Y-107771200D01*
X134609714Y-107771200D01*
X134822286Y-107771200D01*
X134822287Y-107771200D01*
X135032243Y-107737946D01*
X135234412Y-107672257D01*
X135423816Y-107575751D01*
X135445789Y-107559786D01*
X135595786Y-107450809D01*
X135595788Y-107450806D01*
X135595792Y-107450804D01*
X135746104Y-107300492D01*
X135746106Y-107300488D01*
X135746109Y-107300486D01*
X135871048Y-107128520D01*
X135871047Y-107128520D01*
X135871051Y-107128516D01*
X135967557Y-106939112D01*
X136033246Y-106736943D01*
X136066500Y-106526987D01*
X136066500Y-106314413D01*
X136033246Y-106104457D01*
X135967557Y-105902288D01*
X135871051Y-105712884D01*
X135871049Y-105712881D01*
X135871048Y-105712879D01*
X135746109Y-105540913D01*
X135632181Y-105426985D01*
X135598696Y-105365662D01*
X135603680Y-105295970D01*
X135645552Y-105240037D01*
X135676529Y-105223122D01*
X135808086Y-105174054D01*
X135808093Y-105174050D01*
X135923187Y-105087890D01*
X135923190Y-105087887D01*
X136009350Y-104972793D01*
X136009354Y-104972786D01*
X136059596Y-104838079D01*
X136059598Y-104838072D01*
X136065999Y-104778544D01*
X136066000Y-104778527D01*
X136066000Y-104130700D01*
X135149012Y-104130700D01*
X135181925Y-104073693D01*
X135216000Y-103946526D01*
X135216000Y-103814874D01*
X135181925Y-103687707D01*
X135149012Y-103630700D01*
X136066000Y-103630700D01*
X136066000Y-102982872D01*
X136065999Y-102982855D01*
X136059598Y-102923327D01*
X136059596Y-102923320D01*
X136009354Y-102788613D01*
X136009350Y-102788606D01*
X135923190Y-102673512D01*
X135923187Y-102673509D01*
X135808093Y-102587349D01*
X135808086Y-102587345D01*
X135673379Y-102537103D01*
X135673372Y-102537101D01*
X135613844Y-102530700D01*
X134966000Y-102530700D01*
X134966000Y-103447688D01*
X134908993Y-103414775D01*
X134781826Y-103380700D01*
X134650174Y-103380700D01*
X134523007Y-103414775D01*
X134466000Y-103447688D01*
X134466000Y-102530700D01*
X133818155Y-102530700D01*
X133758627Y-102537101D01*
X133758620Y-102537103D01*
X133623913Y-102587345D01*
X133623906Y-102587349D01*
X133508812Y-102673509D01*
X133508809Y-102673512D01*
X133422649Y-102788606D01*
X133422645Y-102788613D01*
X133372403Y-102923320D01*
X133372401Y-102923327D01*
X133366000Y-102982855D01*
X133366000Y-103630700D01*
X134282988Y-103630700D01*
X134250075Y-103687707D01*
X134216000Y-103814874D01*
X134216000Y-103946526D01*
X134250075Y-104073693D01*
X134282988Y-104130700D01*
X133366000Y-104130700D01*
X133366000Y-104778544D01*
X133372401Y-104838072D01*
X133372403Y-104838079D01*
X133422645Y-104972786D01*
X133422649Y-104972793D01*
X133508809Y-105087887D01*
X133508812Y-105087890D01*
X133623906Y-105174050D01*
X133623913Y-105174054D01*
X133755470Y-105223122D01*
X133811404Y-105264993D01*
X133835821Y-105330458D01*
X133820969Y-105398731D01*
X133799819Y-105426985D01*
X133685889Y-105540915D01*
X133560951Y-105712879D01*
X133464444Y-105902285D01*
X133464443Y-105902287D01*
X133464443Y-105902288D01*
X133431598Y-106003372D01*
X133398753Y-106104460D01*
X133365500Y-106314413D01*
X133365500Y-106526987D01*
X133365499Y-106526987D01*
X133390284Y-106683471D01*
X133381329Y-106752764D01*
X133355492Y-106790549D01*
X132125362Y-108020681D01*
X132064039Y-108054166D01*
X132037681Y-108057000D01*
X118290589Y-108057000D01*
X118223550Y-108037315D01*
X118177795Y-107984511D01*
X118167851Y-107915353D01*
X118196876Y-107851797D01*
X118217704Y-107832682D01*
X118323785Y-107755609D01*
X118323783Y-107755609D01*
X118323792Y-107755604D01*
X118474104Y-107605292D01*
X118474106Y-107605288D01*
X118474109Y-107605286D01*
X118599048Y-107433320D01*
X118599047Y-107433320D01*
X118599051Y-107433316D01*
X118695557Y-107243912D01*
X118761246Y-107041743D01*
X118794500Y-106831787D01*
X118794500Y-106619213D01*
X118761246Y-106409257D01*
X118695557Y-106207088D01*
X118599051Y-106017684D01*
X118599049Y-106017681D01*
X118599048Y-106017679D01*
X118474109Y-105845713D01*
X118323786Y-105695390D01*
X118151820Y-105570451D01*
X117962414Y-105473944D01*
X117962413Y-105473943D01*
X117962412Y-105473943D01*
X117760243Y-105408254D01*
X117760241Y-105408253D01*
X117760240Y-105408253D01*
X117598957Y-105382708D01*
X117550287Y-105375000D01*
X117337713Y-105375000D01*
X117289042Y-105382708D01*
X117127760Y-105408253D01*
X116925585Y-105473944D01*
X116736179Y-105570451D01*
X116564213Y-105695390D01*
X116413890Y-105845713D01*
X116288949Y-106017682D01*
X116284484Y-106026446D01*
X116236509Y-106077242D01*
X116168688Y-106094036D01*
X116102553Y-106071498D01*
X116063516Y-106026446D01*
X116059050Y-106017682D01*
X115934109Y-105845713D01*
X115783786Y-105695390D01*
X115611820Y-105570451D01*
X115422414Y-105473944D01*
X115422413Y-105473943D01*
X115422412Y-105473943D01*
X115220243Y-105408254D01*
X115220241Y-105408253D01*
X115220240Y-105408253D01*
X115058957Y-105382708D01*
X115010287Y-105375000D01*
X114797713Y-105375000D01*
X114749042Y-105382708D01*
X114587760Y-105408253D01*
X114385585Y-105473944D01*
X114196179Y-105570451D01*
X114024215Y-105695389D01*
X113910673Y-105808931D01*
X113849350Y-105842415D01*
X113779658Y-105837431D01*
X113723725Y-105795559D01*
X113706810Y-105764582D01*
X113657797Y-105633171D01*
X113657793Y-105633164D01*
X113571547Y-105517955D01*
X113571544Y-105517952D01*
X113456335Y-105431706D01*
X113456328Y-105431702D01*
X113321482Y-105381408D01*
X113321483Y-105381408D01*
X113261883Y-105375001D01*
X113261881Y-105375000D01*
X113261873Y-105375000D01*
X113261864Y-105375000D01*
X111466129Y-105375000D01*
X111466123Y-105375001D01*
X111406516Y-105381408D01*
X111271671Y-105431702D01*
X111271664Y-105431706D01*
X111156455Y-105517952D01*
X111156452Y-105517955D01*
X111070206Y-105633164D01*
X111070202Y-105633171D01*
X111019908Y-105768017D01*
X111013501Y-105827616D01*
X111013500Y-105827635D01*
X111013500Y-107623370D01*
X111013501Y-107623376D01*
X111019908Y-107682983D01*
X111070202Y-107817828D01*
X111070206Y-107817835D01*
X111156452Y-107933044D01*
X111156455Y-107933047D01*
X111271664Y-108019293D01*
X111271671Y-108019297D01*
X111406517Y-108069591D01*
X111406516Y-108069591D01*
X111413444Y-108070335D01*
X111466127Y-108076000D01*
X113261872Y-108075999D01*
X113321483Y-108069591D01*
X113456331Y-108019296D01*
X113571546Y-107933046D01*
X113657796Y-107817831D01*
X113706810Y-107686416D01*
X113748681Y-107630484D01*
X113814145Y-107606066D01*
X113882418Y-107620917D01*
X113910673Y-107642069D01*
X114024213Y-107755609D01*
X114196179Y-107880548D01*
X114196181Y-107880549D01*
X114196184Y-107880551D01*
X114385588Y-107977057D01*
X114587757Y-108042746D01*
X114797713Y-108076000D01*
X114797714Y-108076000D01*
X115010286Y-108076000D01*
X115010287Y-108076000D01*
X115166771Y-108051215D01*
X115236064Y-108060170D01*
X115273850Y-108086007D01*
X115995162Y-108807319D01*
X116028647Y-108868642D01*
X116023663Y-108938334D01*
X115981791Y-108994267D01*
X115916327Y-109018684D01*
X115907481Y-109019000D01*
X110081751Y-109019000D01*
X110074264Y-109018774D01*
X109809035Y-109002730D01*
X109794170Y-109000925D01*
X109536501Y-108953705D01*
X109521963Y-108950121D01*
X109271881Y-108872193D01*
X109257880Y-108866884D01*
X109018996Y-108759371D01*
X109005737Y-108752412D01*
X108781562Y-108616893D01*
X108769239Y-108608387D01*
X108563029Y-108446832D01*
X108551821Y-108436902D01*
X108366597Y-108251678D01*
X108356667Y-108240470D01*
X108343156Y-108223224D01*
X108195108Y-108034254D01*
X108186610Y-108021943D01*
X108051084Y-107797756D01*
X108044131Y-107784510D01*
X107936613Y-107545614D01*
X107931306Y-107531618D01*
X107900675Y-107433320D01*
X107853377Y-107281535D01*
X107849794Y-107266998D01*
X107802574Y-107009329D01*
X107800769Y-106994464D01*
X107784726Y-106729236D01*
X107784500Y-106721749D01*
X107784500Y-104308372D01*
X120777500Y-104308372D01*
X120777500Y-104570627D01*
X120789423Y-104661184D01*
X120811730Y-104830616D01*
X120849826Y-104972793D01*
X120879602Y-105083918D01*
X120879605Y-105083928D01*
X120979953Y-105326190D01*
X120979958Y-105326200D01*
X121111075Y-105553303D01*
X121270718Y-105761351D01*
X121270726Y-105761360D01*
X121456140Y-105946774D01*
X121456148Y-105946781D01*
X121664196Y-106106424D01*
X121891299Y-106237541D01*
X121891309Y-106237546D01*
X122034096Y-106296690D01*
X122133581Y-106337898D01*
X122386884Y-106405770D01*
X122635188Y-106438460D01*
X122643074Y-106439499D01*
X122646880Y-106440000D01*
X122646887Y-106440000D01*
X122909113Y-106440000D01*
X122909120Y-106440000D01*
X123169116Y-106405770D01*
X123422419Y-106337898D01*
X123664697Y-106237543D01*
X123891803Y-106106424D01*
X124099851Y-105946782D01*
X124099855Y-105946777D01*
X124099860Y-105946774D01*
X124285274Y-105761360D01*
X124285277Y-105761355D01*
X124285282Y-105761351D01*
X124444924Y-105553303D01*
X124576043Y-105326197D01*
X124588564Y-105295970D01*
X124676394Y-105083928D01*
X124676398Y-105083919D01*
X124744270Y-104830616D01*
X124778500Y-104570620D01*
X124778500Y-104308380D01*
X124744270Y-104048384D01*
X124676398Y-103795081D01*
X124584696Y-103573693D01*
X124576046Y-103552809D01*
X124576041Y-103552799D01*
X124444924Y-103325696D01*
X124285281Y-103117648D01*
X124285274Y-103117640D01*
X124099860Y-102932226D01*
X124099851Y-102932218D01*
X124046989Y-102891655D01*
X125858000Y-102891655D01*
X125858000Y-104189500D01*
X127138936Y-104189500D01*
X127127207Y-104217816D01*
X127098000Y-104364647D01*
X127098000Y-104514353D01*
X127127207Y-104661184D01*
X127138936Y-104689500D01*
X125858000Y-104689500D01*
X125858000Y-105987344D01*
X125864401Y-106046872D01*
X125864403Y-106046879D01*
X125914645Y-106181586D01*
X125914649Y-106181593D01*
X126000809Y-106296687D01*
X126000812Y-106296690D01*
X126115906Y-106382850D01*
X126115913Y-106382854D01*
X126250620Y-106433096D01*
X126250627Y-106433098D01*
X126310155Y-106439499D01*
X126310172Y-106439500D01*
X127608000Y-106439500D01*
X127608000Y-105158564D01*
X127636316Y-105170293D01*
X127783147Y-105199500D01*
X127932853Y-105199500D01*
X128079684Y-105170293D01*
X128108000Y-105158564D01*
X128108000Y-106439500D01*
X129405828Y-106439500D01*
X129405844Y-106439499D01*
X129465372Y-106433098D01*
X129465379Y-106433096D01*
X129600086Y-106382854D01*
X129600093Y-106382850D01*
X129715187Y-106296690D01*
X129715190Y-106296687D01*
X129801350Y-106181593D01*
X129801354Y-106181586D01*
X129851596Y-106046879D01*
X129851598Y-106046872D01*
X129857999Y-105987344D01*
X129858000Y-105987327D01*
X129858000Y-104689500D01*
X128577064Y-104689500D01*
X128588793Y-104661184D01*
X128618000Y-104514353D01*
X128618000Y-104364647D01*
X128588793Y-104217816D01*
X128577064Y-104189500D01*
X129858000Y-104189500D01*
X129858000Y-102891672D01*
X129857999Y-102891655D01*
X129851598Y-102832127D01*
X129851596Y-102832120D01*
X129801354Y-102697413D01*
X129801350Y-102697406D01*
X129715190Y-102582312D01*
X129715187Y-102582309D01*
X129600093Y-102496149D01*
X129600086Y-102496145D01*
X129465379Y-102445903D01*
X129465372Y-102445901D01*
X129405844Y-102439500D01*
X128108000Y-102439500D01*
X128108000Y-103720435D01*
X128079684Y-103708707D01*
X127932853Y-103679500D01*
X127783147Y-103679500D01*
X127636316Y-103708707D01*
X127608000Y-103720435D01*
X127608000Y-102439500D01*
X126310155Y-102439500D01*
X126250627Y-102445901D01*
X126250620Y-102445903D01*
X126115913Y-102496145D01*
X126115906Y-102496149D01*
X126000812Y-102582309D01*
X126000809Y-102582312D01*
X125914649Y-102697406D01*
X125914645Y-102697413D01*
X125864403Y-102832120D01*
X125864401Y-102832127D01*
X125858000Y-102891655D01*
X124046989Y-102891655D01*
X123891803Y-102772575D01*
X123664700Y-102641458D01*
X123664690Y-102641453D01*
X123422428Y-102541105D01*
X123422421Y-102541103D01*
X123422419Y-102541102D01*
X123169116Y-102473230D01*
X123111339Y-102465623D01*
X122909127Y-102439000D01*
X122909120Y-102439000D01*
X122646880Y-102439000D01*
X122646872Y-102439000D01*
X122415772Y-102469426D01*
X122386884Y-102473230D01*
X122301364Y-102496145D01*
X122133581Y-102541102D01*
X122133571Y-102541105D01*
X121891309Y-102641453D01*
X121891299Y-102641458D01*
X121664196Y-102772575D01*
X121456148Y-102932218D01*
X121270718Y-103117648D01*
X121111075Y-103325696D01*
X120979958Y-103552799D01*
X120979953Y-103552809D01*
X120879605Y-103795071D01*
X120879602Y-103795081D01*
X120811730Y-104048385D01*
X120777500Y-104308372D01*
X107784500Y-104308372D01*
X107784500Y-97737635D01*
X108879000Y-97737635D01*
X108879000Y-99833370D01*
X108879001Y-99833376D01*
X108885408Y-99892983D01*
X108935702Y-100027828D01*
X108935706Y-100027835D01*
X109021952Y-100143044D01*
X109021955Y-100143047D01*
X109137164Y-100229293D01*
X109137171Y-100229297D01*
X109272017Y-100279591D01*
X109272016Y-100279591D01*
X109278944Y-100280335D01*
X109331627Y-100286000D01*
X111332372Y-100285999D01*
X111391983Y-100279591D01*
X111526831Y-100229296D01*
X111642046Y-100143046D01*
X111728296Y-100027831D01*
X111738872Y-99999474D01*
X111780740Y-99943541D01*
X111846204Y-99919122D01*
X111914477Y-99933972D01*
X111927940Y-99942488D01*
X112110723Y-100075288D01*
X112314429Y-100179082D01*
X112531871Y-100249734D01*
X112622000Y-100264009D01*
X112622000Y-99276247D01*
X112659708Y-99298018D01*
X112799591Y-99335500D01*
X112944409Y-99335500D01*
X113084292Y-99298018D01*
X113122000Y-99276247D01*
X113122000Y-100264008D01*
X113212128Y-100249734D01*
X113429570Y-100179082D01*
X113633276Y-100075288D01*
X113818242Y-99940902D01*
X113979905Y-99779239D01*
X114041371Y-99694637D01*
X114096701Y-99651970D01*
X114166314Y-99645991D01*
X114228109Y-99678596D01*
X114242007Y-99694634D01*
X114303714Y-99779566D01*
X114465434Y-99941286D01*
X114650462Y-100075717D01*
X114724443Y-100113412D01*
X114854244Y-100179549D01*
X115071751Y-100250221D01*
X115071752Y-100250221D01*
X115071755Y-100250222D01*
X115297646Y-100286000D01*
X115297647Y-100286000D01*
X115526353Y-100286000D01*
X115526354Y-100286000D01*
X115752245Y-100250222D01*
X115752248Y-100250221D01*
X115752249Y-100250221D01*
X115969755Y-100179549D01*
X115969755Y-100179548D01*
X115969758Y-100179548D01*
X116173538Y-100075717D01*
X116358566Y-99941286D01*
X116520286Y-99779566D01*
X116654717Y-99594538D01*
X116758548Y-99390758D01*
X116788681Y-99298018D01*
X116829221Y-99173249D01*
X116829221Y-99173248D01*
X116829222Y-99173245D01*
X116865000Y-98947354D01*
X116865000Y-98843382D01*
X121615669Y-98843382D01*
X121615670Y-98843383D01*
X121641059Y-98861829D01*
X121809362Y-98947585D01*
X121988997Y-99005951D01*
X122175553Y-99035500D01*
X122364447Y-99035500D01*
X122551002Y-99005951D01*
X122730637Y-98947585D01*
X122898937Y-98861831D01*
X122924328Y-98843383D01*
X122924328Y-98843382D01*
X122270001Y-98189054D01*
X122270000Y-98189054D01*
X121615669Y-98843382D01*
X116865000Y-98843382D01*
X116865000Y-98623646D01*
X116829222Y-98397755D01*
X116829221Y-98397751D01*
X116829221Y-98397750D01*
X116758549Y-98180244D01*
X116725596Y-98115570D01*
X116654717Y-97976462D01*
X116520286Y-97791434D01*
X116469904Y-97741052D01*
X121070000Y-97741052D01*
X121070000Y-97929947D01*
X121099548Y-98116502D01*
X121157914Y-98296137D01*
X121243666Y-98464433D01*
X121262116Y-98489828D01*
X121916446Y-97835500D01*
X121916446Y-97835499D01*
X121870369Y-97789422D01*
X121920000Y-97789422D01*
X121920000Y-97881578D01*
X121943852Y-97970595D01*
X121989930Y-98050405D01*
X122055095Y-98115570D01*
X122134905Y-98161648D01*
X122223922Y-98185500D01*
X122316078Y-98185500D01*
X122405095Y-98161648D01*
X122484905Y-98115570D01*
X122550070Y-98050405D01*
X122596148Y-97970595D01*
X122620000Y-97881578D01*
X122620000Y-97835499D01*
X122623554Y-97835499D01*
X122623554Y-97835500D01*
X123277882Y-98489828D01*
X123277883Y-98489828D01*
X123296331Y-98464437D01*
X123382085Y-98296137D01*
X123440451Y-98116502D01*
X123470000Y-97929947D01*
X123470000Y-97741052D01*
X123440451Y-97554497D01*
X123382085Y-97374862D01*
X123296329Y-97206559D01*
X123277883Y-97181170D01*
X123277882Y-97181169D01*
X122623554Y-97835499D01*
X122620000Y-97835499D01*
X122620000Y-97789422D01*
X122596148Y-97700405D01*
X122550070Y-97620595D01*
X122484905Y-97555430D01*
X122405095Y-97509352D01*
X122316078Y-97485500D01*
X122223922Y-97485500D01*
X122134905Y-97509352D01*
X122055095Y-97555430D01*
X121989930Y-97620595D01*
X121943852Y-97700405D01*
X121920000Y-97789422D01*
X121870369Y-97789422D01*
X121262116Y-97181169D01*
X121262116Y-97181170D01*
X121243669Y-97206560D01*
X121157914Y-97374862D01*
X121099548Y-97554497D01*
X121070000Y-97741052D01*
X116469904Y-97741052D01*
X116358566Y-97629714D01*
X116173538Y-97495283D01*
X116147363Y-97481946D01*
X115969755Y-97391450D01*
X115752248Y-97320778D01*
X115566812Y-97291408D01*
X115526354Y-97285000D01*
X115297646Y-97285000D01*
X115257188Y-97291408D01*
X115071753Y-97320778D01*
X115071750Y-97320778D01*
X114854244Y-97391450D01*
X114650461Y-97495283D01*
X114584550Y-97543171D01*
X114465434Y-97629714D01*
X114465432Y-97629716D01*
X114465431Y-97629716D01*
X114303716Y-97791431D01*
X114303709Y-97791440D01*
X114242007Y-97876364D01*
X114186677Y-97919030D01*
X114117063Y-97925008D01*
X114055269Y-97892401D01*
X114041372Y-97876363D01*
X113979907Y-97791763D01*
X113979902Y-97791757D01*
X113818242Y-97630097D01*
X113633276Y-97495711D01*
X113429568Y-97391917D01*
X113212124Y-97321265D01*
X113122000Y-97306990D01*
X113122000Y-98294752D01*
X113084292Y-98272982D01*
X112944409Y-98235500D01*
X112799591Y-98235500D01*
X112659708Y-98272982D01*
X112622000Y-98294752D01*
X112622000Y-97306990D01*
X112621999Y-97306990D01*
X112531875Y-97321265D01*
X112314431Y-97391917D01*
X112110719Y-97495713D01*
X111927939Y-97628510D01*
X111862132Y-97651990D01*
X111794079Y-97636164D01*
X111745384Y-97586058D01*
X111738875Y-97571533D01*
X111728296Y-97543169D01*
X111728295Y-97543167D01*
X111728293Y-97543164D01*
X111642047Y-97427955D01*
X111642044Y-97427952D01*
X111526835Y-97341706D01*
X111526828Y-97341702D01*
X111391982Y-97291408D01*
X111391983Y-97291408D01*
X111332383Y-97285001D01*
X111332381Y-97285000D01*
X111332373Y-97285000D01*
X111332364Y-97285000D01*
X109331629Y-97285000D01*
X109331623Y-97285001D01*
X109272016Y-97291408D01*
X109137171Y-97341702D01*
X109137164Y-97341706D01*
X109021955Y-97427952D01*
X109021952Y-97427955D01*
X108935706Y-97543164D01*
X108935702Y-97543171D01*
X108885408Y-97678017D01*
X108879001Y-97737616D01*
X108879000Y-97737635D01*
X107784500Y-97737635D01*
X107784500Y-96827616D01*
X121615669Y-96827616D01*
X122270000Y-97481946D01*
X122270001Y-97481946D01*
X122924328Y-96827616D01*
X122898933Y-96809166D01*
X122730637Y-96723414D01*
X122551002Y-96665048D01*
X122364447Y-96635500D01*
X122175553Y-96635500D01*
X121988997Y-96665048D01*
X121809362Y-96723414D01*
X121641060Y-96809169D01*
X121615670Y-96827616D01*
X121615669Y-96827616D01*
X107784500Y-96827616D01*
X107784500Y-94071819D01*
X107804185Y-94004780D01*
X107856989Y-93959025D01*
X107926147Y-93949081D01*
X107989703Y-93978106D01*
X108008818Y-93998934D01*
X108019599Y-94013773D01*
X108090030Y-94110715D01*
X108234786Y-94255471D01*
X108355226Y-94342974D01*
X108400390Y-94375787D01*
X108516607Y-94435003D01*
X108582776Y-94468718D01*
X108582778Y-94468718D01*
X108582781Y-94468720D01*
X108687137Y-94502627D01*
X108777465Y-94531977D01*
X108878557Y-94547988D01*
X108979648Y-94564000D01*
X108979649Y-94564000D01*
X109184351Y-94564000D01*
X109184352Y-94564000D01*
X109386534Y-94531977D01*
X109581219Y-94468720D01*
X109763610Y-94375787D01*
X109858814Y-94306618D01*
X109929213Y-94255471D01*
X109929215Y-94255468D01*
X109929219Y-94255466D01*
X110073966Y-94110719D01*
X110073968Y-94110715D01*
X110073971Y-94110713D01*
X110194286Y-93945111D01*
X110194415Y-93944859D01*
X110221795Y-93891121D01*
X110269769Y-93840326D01*
X110337589Y-93823530D01*
X110403725Y-93846067D01*
X110442765Y-93891121D01*
X110470141Y-93944850D01*
X110470147Y-93944859D01*
X110502523Y-93989421D01*
X110502524Y-93989422D01*
X111182000Y-93309946D01*
X111182000Y-93316161D01*
X111209259Y-93417894D01*
X111261920Y-93509106D01*
X111336394Y-93583580D01*
X111427606Y-93636241D01*
X111529339Y-93663500D01*
X111535553Y-93663500D01*
X110856076Y-94342974D01*
X110900650Y-94375359D01*
X111082968Y-94468255D01*
X111277582Y-94531490D01*
X111479683Y-94563500D01*
X111684317Y-94563500D01*
X111886417Y-94531490D01*
X112081031Y-94468255D01*
X112263349Y-94375359D01*
X112307921Y-94342974D01*
X111628447Y-93663500D01*
X111634661Y-93663500D01*
X111736394Y-93636241D01*
X111827606Y-93583580D01*
X111902080Y-93509106D01*
X111954741Y-93417894D01*
X111982000Y-93316161D01*
X111982000Y-93309947D01*
X112661474Y-93989421D01*
X112693859Y-93944849D01*
X112700909Y-93931013D01*
X121069500Y-93931013D01*
X121069500Y-94119986D01*
X121099059Y-94306618D01*
X121157454Y-94486336D01*
X121243240Y-94654699D01*
X121354310Y-94807573D01*
X121487927Y-94941190D01*
X121640801Y-95052260D01*
X121720347Y-95092790D01*
X121809163Y-95138045D01*
X121809165Y-95138045D01*
X121809168Y-95138047D01*
X121905497Y-95169346D01*
X121988881Y-95196440D01*
X122175514Y-95226000D01*
X122357771Y-95226000D01*
X122424810Y-95245685D01*
X122445452Y-95262319D01*
X125497049Y-98313916D01*
X125601584Y-98418451D01*
X125601587Y-98418453D01*
X125601588Y-98418454D01*
X125724503Y-98500583D01*
X125724506Y-98500585D01*
X125774665Y-98521361D01*
X125781080Y-98524018D01*
X125861088Y-98557159D01*
X125977241Y-98580263D01*
X126000380Y-98584865D01*
X126006081Y-98586000D01*
X126006082Y-98586000D01*
X126006083Y-98586000D01*
X126153918Y-98586000D01*
X126351375Y-98586000D01*
X126418414Y-98605685D01*
X126439056Y-98622319D01*
X126567927Y-98751190D01*
X126720801Y-98862260D01*
X126800347Y-98902790D01*
X126889163Y-98948045D01*
X126889165Y-98948045D01*
X126889168Y-98948047D01*
X126985497Y-98979346D01*
X127068881Y-99006440D01*
X127255514Y-99036000D01*
X127255519Y-99036000D01*
X127444486Y-99036000D01*
X127631118Y-99006440D01*
X127632623Y-99005951D01*
X127810832Y-98948047D01*
X127979199Y-98862260D01*
X128132073Y-98751190D01*
X128265690Y-98617573D01*
X128376760Y-98464699D01*
X128462547Y-98296332D01*
X128520940Y-98116618D01*
X128531427Y-98050405D01*
X128550500Y-97929986D01*
X128550500Y-97741013D01*
X128520940Y-97554381D01*
X128479860Y-97427952D01*
X128462547Y-97374668D01*
X128462545Y-97374665D01*
X128462545Y-97374663D01*
X128416859Y-97285000D01*
X128376760Y-97206301D01*
X128265690Y-97053427D01*
X128132073Y-96919810D01*
X127979199Y-96808740D01*
X127810836Y-96722954D01*
X127631118Y-96664559D01*
X127444486Y-96635000D01*
X127444481Y-96635000D01*
X127255519Y-96635000D01*
X127255514Y-96635000D01*
X127068881Y-96664559D01*
X126889163Y-96722954D01*
X126720800Y-96808740D01*
X126633579Y-96872110D01*
X126567927Y-96919810D01*
X126567925Y-96919812D01*
X126567924Y-96919812D01*
X126484483Y-97003254D01*
X126423160Y-97036739D01*
X126353468Y-97031755D01*
X126309121Y-97003254D01*
X123506819Y-94200952D01*
X123473334Y-94139629D01*
X123470500Y-94113271D01*
X123470500Y-93931013D01*
X123440940Y-93744381D01*
X123388692Y-93583580D01*
X123382547Y-93564668D01*
X123382545Y-93564665D01*
X123382545Y-93564663D01*
X123296759Y-93396300D01*
X123274637Y-93365852D01*
X123185690Y-93243427D01*
X123052073Y-93109810D01*
X122899199Y-92998740D01*
X122821366Y-92959082D01*
X122730836Y-92912954D01*
X122551118Y-92854559D01*
X122364486Y-92825000D01*
X122364481Y-92825000D01*
X122175519Y-92825000D01*
X122175514Y-92825000D01*
X121988881Y-92854559D01*
X121809163Y-92912954D01*
X121640800Y-92998740D01*
X121579786Y-93043070D01*
X121487927Y-93109810D01*
X121487925Y-93109812D01*
X121487924Y-93109812D01*
X121354312Y-93243424D01*
X121354312Y-93243425D01*
X121354310Y-93243427D01*
X121339727Y-93263499D01*
X121243240Y-93396300D01*
X121157454Y-93564663D01*
X121099059Y-93744381D01*
X121069500Y-93931013D01*
X112700909Y-93931013D01*
X112732073Y-93869852D01*
X112732074Y-93869850D01*
X112786754Y-93762534D01*
X112849990Y-93567917D01*
X112882000Y-93365817D01*
X112882000Y-93161182D01*
X112849990Y-92959082D01*
X112786755Y-92764468D01*
X112693859Y-92582150D01*
X112661474Y-92537577D01*
X112661474Y-92537576D01*
X111982000Y-93217051D01*
X111982000Y-93210839D01*
X111954741Y-93109106D01*
X111902080Y-93017894D01*
X111827606Y-92943420D01*
X111736394Y-92890759D01*
X111634661Y-92863500D01*
X111628446Y-92863500D01*
X112307922Y-92184024D01*
X112306388Y-92164535D01*
X112295943Y-92150990D01*
X112289962Y-92081377D01*
X112322567Y-92019581D01*
X112383405Y-91985223D01*
X112411493Y-91982000D01*
X124193770Y-91982000D01*
X124260809Y-92001685D01*
X124281451Y-92018319D01*
X126113181Y-93850049D01*
X126146666Y-93911372D01*
X126149500Y-93937730D01*
X126149500Y-94119986D01*
X126179059Y-94306618D01*
X126237454Y-94486336D01*
X126323240Y-94654699D01*
X126434310Y-94807573D01*
X126567927Y-94941190D01*
X126720801Y-95052260D01*
X126800347Y-95092790D01*
X126889163Y-95138045D01*
X126889165Y-95138045D01*
X126889168Y-95138047D01*
X126985497Y-95169346D01*
X127068881Y-95196440D01*
X127255514Y-95226000D01*
X127255519Y-95226000D01*
X127444486Y-95226000D01*
X127631118Y-95196440D01*
X127810832Y-95138047D01*
X127979199Y-95052260D01*
X128132073Y-94941190D01*
X128265690Y-94807573D01*
X128376760Y-94654699D01*
X128462547Y-94486332D01*
X128520940Y-94306618D01*
X128529041Y-94255471D01*
X128550500Y-94119986D01*
X128550500Y-93931013D01*
X128520940Y-93744381D01*
X128468692Y-93583580D01*
X128462547Y-93564668D01*
X128462545Y-93564665D01*
X128462545Y-93564663D01*
X128376759Y-93396300D01*
X128354637Y-93365852D01*
X128265690Y-93243427D01*
X128132073Y-93109810D01*
X127979199Y-92998740D01*
X127901366Y-92959082D01*
X127810836Y-92912954D01*
X127631118Y-92854559D01*
X127444486Y-92825000D01*
X127444481Y-92825000D01*
X127262230Y-92825000D01*
X127195191Y-92805315D01*
X127174549Y-92788681D01*
X125034421Y-90648552D01*
X125034414Y-90648546D01*
X124960729Y-90599312D01*
X124960729Y-90599313D01*
X124911491Y-90566413D01*
X124774917Y-90509843D01*
X124774907Y-90509840D01*
X124629920Y-90481000D01*
X124629918Y-90481000D01*
X111040082Y-90481000D01*
X111040080Y-90481000D01*
X110895092Y-90509840D01*
X110895086Y-90509842D01*
X110758508Y-90566414D01*
X110758496Y-90566421D01*
X110709269Y-90599313D01*
X110635588Y-90648544D01*
X110635580Y-90648550D01*
X109347104Y-91937026D01*
X109285781Y-91970511D01*
X109240025Y-91971818D01*
X109184352Y-91963000D01*
X108979648Y-91963000D01*
X108955329Y-91966851D01*
X108777465Y-91995022D01*
X108582776Y-92058281D01*
X108400386Y-92151215D01*
X108234786Y-92271528D01*
X108090028Y-92416286D01*
X108008818Y-92528065D01*
X107953489Y-92570731D01*
X107883875Y-92576710D01*
X107822080Y-92544105D01*
X107787723Y-92483266D01*
X107784500Y-92455180D01*
X107784500Y-86834921D01*
X116162000Y-86834921D01*
X116162000Y-87553500D01*
X116978988Y-87553500D01*
X116946075Y-87610507D01*
X116912000Y-87737674D01*
X116912000Y-87869326D01*
X116946075Y-87996493D01*
X116978988Y-88053500D01*
X116162001Y-88053500D01*
X116162001Y-88772088D01*
X116164794Y-88824691D01*
X116209237Y-89054487D01*
X116291879Y-89273475D01*
X116410339Y-89475341D01*
X116410344Y-89475348D01*
X116561211Y-89654286D01*
X116561213Y-89654288D01*
X116740151Y-89805155D01*
X116740158Y-89805160D01*
X116942024Y-89923620D01*
X117161012Y-90006262D01*
X117390809Y-90050705D01*
X117443382Y-90053498D01*
X117443421Y-90053499D01*
X118161999Y-90053499D01*
X118162000Y-90053498D01*
X118162000Y-88303500D01*
X118662000Y-88303500D01*
X118662000Y-90053499D01*
X119380576Y-90053499D01*
X119380588Y-90053498D01*
X119433191Y-90050705D01*
X119662987Y-90006262D01*
X119881975Y-89923620D01*
X120083841Y-89805160D01*
X120083848Y-89805155D01*
X120262786Y-89654288D01*
X120262788Y-89654286D01*
X120413655Y-89475348D01*
X120413660Y-89475341D01*
X120532120Y-89273475D01*
X120614762Y-89054487D01*
X120659205Y-88824691D01*
X120659205Y-88824690D01*
X120661998Y-88772117D01*
X120662000Y-88772078D01*
X120662000Y-88053500D01*
X119845012Y-88053500D01*
X119877925Y-87996493D01*
X119912000Y-87869326D01*
X119912000Y-87737674D01*
X119877925Y-87610507D01*
X119845012Y-87553500D01*
X120661999Y-87553500D01*
X120661999Y-86834923D01*
X120661998Y-86834911D01*
X120659205Y-86782308D01*
X120614762Y-86552512D01*
X120532120Y-86333524D01*
X120413660Y-86131658D01*
X120413655Y-86131651D01*
X120262788Y-85952713D01*
X120262786Y-85952711D01*
X120083848Y-85801844D01*
X120083841Y-85801839D01*
X119881975Y-85683379D01*
X119662984Y-85600736D01*
X119657840Y-85599741D01*
X119595760Y-85567680D01*
X119560869Y-85507146D01*
X119564244Y-85437358D01*
X119604814Y-85380473D01*
X119669697Y-85354552D01*
X119681374Y-85353999D01*
X123209872Y-85353999D01*
X123269483Y-85347591D01*
X123404331Y-85297296D01*
X123519546Y-85211046D01*
X123605796Y-85095831D01*
X123656091Y-84960983D01*
X123662500Y-84901373D01*
X123662500Y-83978000D01*
X123682185Y-83910961D01*
X123734989Y-83865206D01*
X123786500Y-83854000D01*
X126519770Y-83854000D01*
X126586809Y-83873685D01*
X126607451Y-83890319D01*
X126825731Y-84108598D01*
X126859216Y-84169921D01*
X126860523Y-84215676D01*
X126857500Y-84234763D01*
X126857500Y-84432236D01*
X126888389Y-84627263D01*
X126949408Y-84815058D01*
X126949409Y-84815061D01*
X127023761Y-84960983D01*
X127039058Y-84991004D01*
X127155115Y-85150746D01*
X127294753Y-85290384D01*
X127444234Y-85398986D01*
X127454499Y-85406444D01*
X127585151Y-85473015D01*
X127635947Y-85520990D01*
X127652742Y-85588811D01*
X127630204Y-85654946D01*
X127585151Y-85693984D01*
X127468017Y-85753667D01*
X127454495Y-85760558D01*
X127294753Y-85876615D01*
X127155115Y-86016253D01*
X127039058Y-86175995D01*
X126949408Y-86351941D01*
X126888389Y-86539736D01*
X126857500Y-86734763D01*
X126857500Y-86932236D01*
X126888389Y-87127263D01*
X126945653Y-87303500D01*
X126949409Y-87315061D01*
X127039056Y-87491001D01*
X127039058Y-87491004D01*
X127155115Y-87650746D01*
X127294753Y-87790384D01*
X127403410Y-87869326D01*
X127454499Y-87906444D01*
X127630439Y-87996091D01*
X127755637Y-88036770D01*
X127818236Y-88057110D01*
X128013264Y-88088000D01*
X128013269Y-88088000D01*
X128210736Y-88088000D01*
X128405763Y-88057110D01*
X128416873Y-88053500D01*
X128593561Y-87996091D01*
X128769501Y-87906444D01*
X128859192Y-87841279D01*
X128929246Y-87790384D01*
X128929248Y-87790381D01*
X128929252Y-87790379D01*
X129068879Y-87650752D01*
X129068881Y-87650748D01*
X129068884Y-87650746D01*
X129139536Y-87553500D01*
X129184944Y-87491001D01*
X129274591Y-87315061D01*
X129335610Y-87127263D01*
X129366500Y-86932236D01*
X129366500Y-86734763D01*
X129335610Y-86539736D01*
X129315270Y-86477137D01*
X129274591Y-86351939D01*
X129184944Y-86175999D01*
X129152724Y-86131651D01*
X129068884Y-86016253D01*
X128929246Y-85876615D01*
X128769505Y-85760558D01*
X128763830Y-85757666D01*
X128638846Y-85693983D01*
X128588052Y-85646010D01*
X128571257Y-85578189D01*
X128593794Y-85512054D01*
X128638845Y-85473017D01*
X128769501Y-85406444D01*
X128841686Y-85353999D01*
X128929246Y-85290384D01*
X128929248Y-85290381D01*
X128929252Y-85290379D01*
X129068879Y-85150752D01*
X129068881Y-85150748D01*
X129068884Y-85150746D01*
X129119779Y-85080692D01*
X129184944Y-84991001D01*
X129274591Y-84815061D01*
X129335610Y-84627263D01*
X129352913Y-84518019D01*
X129366500Y-84432236D01*
X129366500Y-84234763D01*
X129335610Y-84039736D01*
X129287061Y-83890319D01*
X129274591Y-83851939D01*
X129184944Y-83675999D01*
X129177486Y-83665734D01*
X129068884Y-83516253D01*
X128929246Y-83376615D01*
X128769505Y-83260558D01*
X128763830Y-83257666D01*
X128638846Y-83193983D01*
X128588052Y-83146010D01*
X128571257Y-83078189D01*
X128593794Y-83012054D01*
X128638845Y-82973017D01*
X128769501Y-82906444D01*
X128842373Y-82853500D01*
X128929246Y-82790384D01*
X128929248Y-82790381D01*
X128929252Y-82790379D01*
X129068879Y-82650752D01*
X129068881Y-82650748D01*
X129068884Y-82650746D01*
X129119779Y-82580692D01*
X129184944Y-82491001D01*
X129274591Y-82315061D01*
X129335610Y-82127263D01*
X129366500Y-81932236D01*
X129366500Y-81734763D01*
X129335610Y-81539736D01*
X129315270Y-81477137D01*
X129274591Y-81351939D01*
X129184944Y-81175999D01*
X129158832Y-81140059D01*
X129068884Y-81016253D01*
X128929246Y-80876615D01*
X128769504Y-80760558D01*
X128769503Y-80760557D01*
X128769501Y-80760556D01*
X128593561Y-80670909D01*
X128593558Y-80670908D01*
X128405763Y-80609889D01*
X128210736Y-80579000D01*
X128210731Y-80579000D01*
X128013269Y-80579000D01*
X128013264Y-80579000D01*
X127818236Y-80609889D01*
X127630441Y-80670908D01*
X127454495Y-80760558D01*
X127294753Y-80876615D01*
X127155115Y-81016253D01*
X127039058Y-81175995D01*
X126949408Y-81351941D01*
X126888389Y-81539736D01*
X126857500Y-81734763D01*
X126857500Y-81932236D01*
X126888389Y-82127263D01*
X126908996Y-82190682D01*
X126910991Y-82260523D01*
X126874911Y-82320356D01*
X126812210Y-82351184D01*
X126791065Y-82353000D01*
X123786499Y-82353000D01*
X123719460Y-82333315D01*
X123673705Y-82280511D01*
X123662499Y-82229000D01*
X123662499Y-81305629D01*
X123662498Y-81305623D01*
X123662497Y-81305616D01*
X123656091Y-81246017D01*
X123616571Y-81140059D01*
X123605797Y-81111171D01*
X123605793Y-81111164D01*
X123519547Y-80995955D01*
X123519544Y-80995952D01*
X123404335Y-80909706D01*
X123404328Y-80909702D01*
X123269482Y-80859408D01*
X123269483Y-80859408D01*
X123209883Y-80853001D01*
X123209881Y-80853000D01*
X123209873Y-80853000D01*
X123209864Y-80853000D01*
X119614129Y-80853000D01*
X119614123Y-80853001D01*
X119554516Y-80859408D01*
X119419671Y-80909702D01*
X119419664Y-80909706D01*
X119304455Y-80995952D01*
X119304452Y-80995955D01*
X119218206Y-81111164D01*
X119218202Y-81111171D01*
X119167908Y-81246017D01*
X119161501Y-81305616D01*
X119161501Y-81305623D01*
X119161500Y-81305635D01*
X119161500Y-84901370D01*
X119161501Y-84901376D01*
X119167908Y-84960983D01*
X119218202Y-85095828D01*
X119218206Y-85095835D01*
X119304452Y-85211044D01*
X119304455Y-85211047D01*
X119419664Y-85297293D01*
X119419673Y-85297298D01*
X119468506Y-85315511D01*
X119524440Y-85357381D01*
X119548858Y-85422845D01*
X119534007Y-85491118D01*
X119484603Y-85540524D01*
X119418598Y-85555518D01*
X119380625Y-85553501D01*
X119380579Y-85553500D01*
X118662000Y-85553500D01*
X118662000Y-87303500D01*
X118162000Y-87303500D01*
X118162000Y-85553500D01*
X117443423Y-85553500D01*
X117443411Y-85553501D01*
X117390808Y-85556294D01*
X117161012Y-85600737D01*
X116942024Y-85683379D01*
X116740158Y-85801839D01*
X116740151Y-85801844D01*
X116561213Y-85952711D01*
X116561211Y-85952713D01*
X116410344Y-86131651D01*
X116410339Y-86131658D01*
X116291879Y-86333524D01*
X116209237Y-86552512D01*
X116164794Y-86782308D01*
X116164794Y-86782309D01*
X116162001Y-86834882D01*
X116162000Y-86834921D01*
X107784500Y-86834921D01*
X107784500Y-82039303D01*
X113412000Y-82039303D01*
X113412000Y-82853500D01*
X114912000Y-82853500D01*
X114912000Y-83353500D01*
X113412001Y-83353500D01*
X113412001Y-84167697D01*
X113422400Y-84299832D01*
X113477377Y-84518019D01*
X113570428Y-84722874D01*
X113570431Y-84722880D01*
X113698559Y-84907823D01*
X113698569Y-84907835D01*
X113857664Y-85066930D01*
X113857676Y-85066940D01*
X114042619Y-85195068D01*
X114042625Y-85195071D01*
X114247480Y-85288122D01*
X114465667Y-85343099D01*
X114597810Y-85353499D01*
X115161999Y-85353499D01*
X115162000Y-85353498D01*
X115162000Y-84536512D01*
X115219007Y-84569425D01*
X115346174Y-84603500D01*
X115477826Y-84603500D01*
X115604993Y-84569425D01*
X115662000Y-84536512D01*
X115662000Y-85353499D01*
X116226182Y-85353499D01*
X116226197Y-85353498D01*
X116358332Y-85343099D01*
X116576519Y-85288122D01*
X116781374Y-85195071D01*
X116781380Y-85195068D01*
X116966323Y-85066940D01*
X116966335Y-85066930D01*
X117125430Y-84907835D01*
X117125440Y-84907823D01*
X117253568Y-84722880D01*
X117253571Y-84722874D01*
X117346622Y-84518019D01*
X117401599Y-84299832D01*
X117411999Y-84167696D01*
X117412000Y-84167684D01*
X117412000Y-83353500D01*
X115912000Y-83353500D01*
X115912000Y-82853500D01*
X117411999Y-82853500D01*
X117411999Y-82039317D01*
X117411998Y-82039302D01*
X117401599Y-81907167D01*
X117346622Y-81688980D01*
X117253571Y-81484125D01*
X117253568Y-81484119D01*
X117125440Y-81299176D01*
X117125430Y-81299164D01*
X116966335Y-81140069D01*
X116966323Y-81140059D01*
X116781380Y-81011931D01*
X116781374Y-81011928D01*
X116576519Y-80918877D01*
X116358332Y-80863900D01*
X116226196Y-80853500D01*
X115662000Y-80853500D01*
X115662000Y-81670488D01*
X115604993Y-81637575D01*
X115477826Y-81603500D01*
X115346174Y-81603500D01*
X115219007Y-81637575D01*
X115162000Y-81670488D01*
X115162000Y-80853500D01*
X114597817Y-80853500D01*
X114597802Y-80853501D01*
X114465667Y-80863900D01*
X114247480Y-80918877D01*
X114042625Y-81011928D01*
X114042619Y-81011931D01*
X113857676Y-81140059D01*
X113857664Y-81140069D01*
X113698569Y-81299164D01*
X113698559Y-81299176D01*
X113570431Y-81484119D01*
X113570428Y-81484125D01*
X113477377Y-81688980D01*
X113422400Y-81907167D01*
X113412000Y-82039303D01*
X107784500Y-82039303D01*
X107784500Y-73647309D01*
X107804185Y-73580270D01*
X107856989Y-73534515D01*
X107926147Y-73524571D01*
X107989703Y-73553596D01*
X107996181Y-73559628D01*
X109443328Y-75006775D01*
X109521890Y-75059268D01*
X109521889Y-75059268D01*
X109549871Y-75077964D01*
X109549872Y-75077964D01*
X109549873Y-75077965D01*
X109668256Y-75127001D01*
X109668260Y-75127001D01*
X109668261Y-75127002D01*
X109793928Y-75152000D01*
X109793931Y-75152000D01*
X112631265Y-75152000D01*
X112698304Y-75171685D01*
X112700109Y-75172866D01*
X112757021Y-75210894D01*
X112757023Y-75210895D01*
X112757027Y-75210897D01*
X112867409Y-75256618D01*
X112902703Y-75271237D01*
X113057353Y-75301999D01*
X113057356Y-75302000D01*
X113057358Y-75302000D01*
X113215044Y-75302000D01*
X113215045Y-75301999D01*
X113369697Y-75271237D01*
X113515379Y-75210894D01*
X113646489Y-75123289D01*
X113757989Y-75011789D01*
X113845594Y-74880679D01*
X113905937Y-74734997D01*
X113936700Y-74580342D01*
X113936700Y-74422658D01*
X113936700Y-74422655D01*
X113936699Y-74422653D01*
X113905937Y-74268003D01*
X113905932Y-74267992D01*
X113904169Y-74262176D01*
X113906920Y-74261341D01*
X113900697Y-74204141D01*
X113931891Y-74141622D01*
X113991934Y-74105892D01*
X114022755Y-74102000D01*
X119150192Y-74102000D01*
X119217231Y-74121685D01*
X119237873Y-74138319D01*
X119775265Y-74675711D01*
X119808750Y-74737034D01*
X119810057Y-74782790D01*
X119794500Y-74881013D01*
X119794500Y-75069986D01*
X119824059Y-75256618D01*
X119882454Y-75436336D01*
X119968240Y-75604699D01*
X120079310Y-75757573D01*
X120212927Y-75891190D01*
X120365801Y-76002260D01*
X120445347Y-76042790D01*
X120534163Y-76088045D01*
X120534165Y-76088045D01*
X120534168Y-76088047D01*
X120630497Y-76119346D01*
X120713881Y-76146440D01*
X120900514Y-76176000D01*
X120900519Y-76176000D01*
X121089486Y-76176000D01*
X121276118Y-76146440D01*
X121455832Y-76088047D01*
X121624199Y-76002260D01*
X121777073Y-75891190D01*
X121910690Y-75757573D01*
X122021760Y-75604699D01*
X122107547Y-75436332D01*
X122165940Y-75256618D01*
X122195500Y-75069986D01*
X122195500Y-74881013D01*
X124874500Y-74881013D01*
X124874500Y-75069986D01*
X124904059Y-75256618D01*
X124962454Y-75436336D01*
X125048240Y-75604699D01*
X125159310Y-75757573D01*
X125292927Y-75891190D01*
X125445801Y-76002260D01*
X125525347Y-76042790D01*
X125614163Y-76088045D01*
X125614165Y-76088045D01*
X125614168Y-76088047D01*
X125710497Y-76119346D01*
X125793881Y-76146440D01*
X125980514Y-76176000D01*
X125980519Y-76176000D01*
X126169486Y-76176000D01*
X126356118Y-76146440D01*
X126535832Y-76088047D01*
X126704199Y-76002260D01*
X126857073Y-75891190D01*
X126990690Y-75757573D01*
X127101760Y-75604699D01*
X127187547Y-75436332D01*
X127245940Y-75256618D01*
X127275500Y-75069986D01*
X127275500Y-74881013D01*
X127245940Y-74694381D01*
X127208887Y-74580346D01*
X127187547Y-74514668D01*
X127187545Y-74514665D01*
X127187545Y-74514663D01*
X127101759Y-74346300D01*
X126990690Y-74193427D01*
X126857073Y-74059810D01*
X126704199Y-73948740D01*
X126535836Y-73862954D01*
X126356118Y-73804559D01*
X126169486Y-73775000D01*
X126169481Y-73775000D01*
X125980519Y-73775000D01*
X125980514Y-73775000D01*
X125793881Y-73804559D01*
X125614163Y-73862954D01*
X125445800Y-73948740D01*
X125358579Y-74012110D01*
X125292927Y-74059810D01*
X125292925Y-74059812D01*
X125292924Y-74059812D01*
X125159312Y-74193424D01*
X125159312Y-74193425D01*
X125159310Y-74193427D01*
X125151526Y-74204141D01*
X125048240Y-74346300D01*
X124962454Y-74514663D01*
X124904059Y-74694381D01*
X124874500Y-74881013D01*
X122195500Y-74881013D01*
X122165940Y-74694381D01*
X122128887Y-74580346D01*
X122107547Y-74514668D01*
X122107545Y-74514665D01*
X122107545Y-74514663D01*
X122021759Y-74346300D01*
X121910690Y-74193427D01*
X121777073Y-74059810D01*
X121624199Y-73948740D01*
X121455836Y-73862954D01*
X121276118Y-73804559D01*
X121089486Y-73775000D01*
X121089481Y-73775000D01*
X120900519Y-73775000D01*
X120900514Y-73775000D01*
X120802290Y-73790557D01*
X120732996Y-73781602D01*
X120695211Y-73755765D01*
X119885674Y-72946227D01*
X119885673Y-72946226D01*
X119885669Y-72946223D01*
X119779127Y-72875035D01*
X119660744Y-72825999D01*
X119660738Y-72825997D01*
X119535071Y-72801000D01*
X119535069Y-72801000D01*
X116989000Y-72801000D01*
X116921961Y-72781315D01*
X116876206Y-72728511D01*
X116865000Y-72677000D01*
X116864999Y-70945629D01*
X116864998Y-70945623D01*
X116858591Y-70886016D01*
X116808297Y-70751171D01*
X116808293Y-70751164D01*
X116722047Y-70635955D01*
X116722044Y-70635952D01*
X116606835Y-70549706D01*
X116606828Y-70549702D01*
X116471982Y-70499408D01*
X116471983Y-70499408D01*
X116412383Y-70493001D01*
X116412381Y-70493000D01*
X116412373Y-70493000D01*
X116412364Y-70493000D01*
X114411629Y-70493000D01*
X114411623Y-70493001D01*
X114352016Y-70499408D01*
X114217171Y-70549702D01*
X114217164Y-70549706D01*
X114101955Y-70635952D01*
X114101952Y-70635955D01*
X114015706Y-70751164D01*
X114015703Y-70751170D01*
X114005308Y-70779041D01*
X113963436Y-70834974D01*
X113897972Y-70859391D01*
X113829699Y-70844539D01*
X113816250Y-70836031D01*
X113633538Y-70703283D01*
X113429755Y-70599450D01*
X113212248Y-70528778D01*
X113026812Y-70499408D01*
X112986354Y-70493000D01*
X112757646Y-70493000D01*
X112717188Y-70499408D01*
X112554159Y-70525229D01*
X112484865Y-70516274D01*
X112431413Y-70471278D01*
X112410774Y-70404526D01*
X112429499Y-70337213D01*
X112447076Y-70315079D01*
X113814500Y-68947655D01*
X120611000Y-68947655D01*
X120611000Y-69645500D01*
X121635722Y-69645500D01*
X121591667Y-69721806D01*
X121561000Y-69836256D01*
X121561000Y-69954744D01*
X121591667Y-70069194D01*
X121635722Y-70145500D01*
X120611000Y-70145500D01*
X120611000Y-70843344D01*
X120617401Y-70902872D01*
X120617403Y-70902879D01*
X120667645Y-71037586D01*
X120667649Y-71037593D01*
X120753809Y-71152687D01*
X120753812Y-71152690D01*
X120868906Y-71238850D01*
X120868913Y-71238854D01*
X121003620Y-71289096D01*
X121003627Y-71289098D01*
X121063155Y-71295499D01*
X121063172Y-71295500D01*
X121761000Y-71295500D01*
X121761000Y-70270777D01*
X121837306Y-70314833D01*
X121951756Y-70345500D01*
X122070244Y-70345500D01*
X122184694Y-70314833D01*
X122261000Y-70270777D01*
X122261000Y-71295500D01*
X122958828Y-71295500D01*
X122958844Y-71295499D01*
X123018372Y-71289098D01*
X123018379Y-71289096D01*
X123153086Y-71238854D01*
X123153093Y-71238850D01*
X123268187Y-71152690D01*
X123268190Y-71152687D01*
X123354350Y-71037593D01*
X123354354Y-71037586D01*
X123384213Y-70957531D01*
X123426084Y-70901597D01*
X123491548Y-70877180D01*
X123559821Y-70892031D01*
X123588076Y-70913183D01*
X123638636Y-70963743D01*
X123638641Y-70963747D01*
X123780392Y-71066734D01*
X123816978Y-71093315D01*
X123933501Y-71152687D01*
X124013393Y-71193395D01*
X124013396Y-71193396D01*
X124118221Y-71227455D01*
X124223049Y-71261515D01*
X124440778Y-71296000D01*
X124440779Y-71296000D01*
X124661221Y-71296000D01*
X124661222Y-71296000D01*
X124878951Y-71261515D01*
X125088606Y-71193395D01*
X125285022Y-71093315D01*
X125463365Y-70963742D01*
X125619242Y-70807865D01*
X125748815Y-70629522D01*
X125848895Y-70433106D01*
X125917015Y-70223451D01*
X125951500Y-70005722D01*
X125951500Y-69785278D01*
X125917015Y-69567549D01*
X125882955Y-69462721D01*
X125848896Y-69357896D01*
X125848895Y-69357893D01*
X125814237Y-69289875D01*
X125748815Y-69161478D01*
X125714831Y-69114703D01*
X125619247Y-68983141D01*
X125619243Y-68983136D01*
X125463363Y-68827256D01*
X125463358Y-68827252D01*
X125285025Y-68697687D01*
X125285024Y-68697686D01*
X125285022Y-68697685D01*
X125222096Y-68665622D01*
X125088606Y-68597604D01*
X125088603Y-68597603D01*
X124878952Y-68529485D01*
X124770086Y-68512242D01*
X124661222Y-68495000D01*
X124440778Y-68495000D01*
X124368201Y-68506495D01*
X124223047Y-68529485D01*
X124013396Y-68597603D01*
X124013393Y-68597604D01*
X123816974Y-68697687D01*
X123638641Y-68827252D01*
X123638636Y-68827256D01*
X123588075Y-68877817D01*
X123526752Y-68911301D01*
X123457060Y-68906316D01*
X123401127Y-68864445D01*
X123384213Y-68833468D01*
X123354354Y-68753413D01*
X123354350Y-68753406D01*
X123268190Y-68638312D01*
X123268187Y-68638309D01*
X123153093Y-68552149D01*
X123153086Y-68552145D01*
X123018379Y-68501903D01*
X123018372Y-68501901D01*
X122958844Y-68495500D01*
X122261000Y-68495500D01*
X122261000Y-69520222D01*
X122184694Y-69476167D01*
X122070244Y-69445500D01*
X121951756Y-69445500D01*
X121837306Y-69476167D01*
X121761000Y-69520222D01*
X121761000Y-68495500D01*
X121063155Y-68495500D01*
X121003627Y-68501901D01*
X121003620Y-68501903D01*
X120868913Y-68552145D01*
X120868906Y-68552149D01*
X120753812Y-68638309D01*
X120753809Y-68638312D01*
X120667649Y-68753406D01*
X120667645Y-68753413D01*
X120617403Y-68888120D01*
X120617401Y-68888127D01*
X120611000Y-68947655D01*
X113814500Y-68947655D01*
X113835852Y-68926303D01*
X113897173Y-68892820D01*
X113942929Y-68891513D01*
X113997395Y-68900139D01*
X114059648Y-68910000D01*
X114059649Y-68910000D01*
X114264351Y-68910000D01*
X114264352Y-68910000D01*
X114466534Y-68877977D01*
X114661219Y-68814720D01*
X114843610Y-68721787D01*
X114936590Y-68654232D01*
X115009213Y-68601471D01*
X115009215Y-68601468D01*
X115009219Y-68601466D01*
X115153966Y-68456719D01*
X115153968Y-68456715D01*
X115153971Y-68456713D01*
X115274286Y-68291111D01*
X115274415Y-68290859D01*
X115301795Y-68237121D01*
X115349769Y-68186326D01*
X115417589Y-68169530D01*
X115483725Y-68192067D01*
X115522765Y-68237121D01*
X115550141Y-68290850D01*
X115550147Y-68290859D01*
X115582523Y-68335421D01*
X115582524Y-68335422D01*
X116262000Y-67655946D01*
X116262000Y-67662161D01*
X116289259Y-67763894D01*
X116341920Y-67855106D01*
X116416394Y-67929580D01*
X116507606Y-67982241D01*
X116609339Y-68009500D01*
X116615553Y-68009500D01*
X115936076Y-68688974D01*
X115980650Y-68721359D01*
X116162968Y-68814255D01*
X116357582Y-68877490D01*
X116559683Y-68909500D01*
X116764317Y-68909500D01*
X116966417Y-68877490D01*
X117123592Y-68826420D01*
X117161031Y-68814255D01*
X117343349Y-68721359D01*
X117387921Y-68688974D01*
X116708447Y-68009500D01*
X116714661Y-68009500D01*
X116816394Y-67982241D01*
X116907606Y-67929580D01*
X116982080Y-67855106D01*
X117034741Y-67763894D01*
X117062000Y-67662161D01*
X117062000Y-67655948D01*
X117741474Y-68335422D01*
X117741474Y-68335421D01*
X117773859Y-68290849D01*
X117866755Y-68108531D01*
X117929990Y-67913917D01*
X117962000Y-67711817D01*
X117962000Y-67507182D01*
X117929990Y-67305082D01*
X117866755Y-67110468D01*
X117773859Y-66928150D01*
X117741474Y-66883577D01*
X117741474Y-66883576D01*
X117062000Y-67563051D01*
X117062000Y-67556839D01*
X117034741Y-67455106D01*
X116982080Y-67363894D01*
X116907606Y-67289420D01*
X116816394Y-67236759D01*
X116714661Y-67209500D01*
X116708446Y-67209500D01*
X117387922Y-66530024D01*
X117387921Y-66530023D01*
X117343359Y-66497647D01*
X117343350Y-66497641D01*
X117161031Y-66404744D01*
X116966417Y-66341509D01*
X116764317Y-66309500D01*
X116559683Y-66309500D01*
X116357582Y-66341509D01*
X116162968Y-66404744D01*
X115980644Y-66497643D01*
X115936077Y-66530023D01*
X115936077Y-66530024D01*
X116615554Y-67209500D01*
X116609339Y-67209500D01*
X116507606Y-67236759D01*
X116416394Y-67289420D01*
X116341920Y-67363894D01*
X116289259Y-67455106D01*
X116262000Y-67556839D01*
X116262000Y-67563053D01*
X115582524Y-66883577D01*
X115582523Y-66883577D01*
X115550143Y-66928144D01*
X115522765Y-66981878D01*
X115474790Y-67032674D01*
X115406969Y-67049469D01*
X115340834Y-67026931D01*
X115301795Y-66981878D01*
X115274284Y-66927885D01*
X115153971Y-66762286D01*
X115009213Y-66617528D01*
X114843613Y-66497215D01*
X114843612Y-66497214D01*
X114843610Y-66497213D01*
X114786653Y-66468191D01*
X114661223Y-66404281D01*
X114466534Y-66341022D01*
X114282592Y-66311889D01*
X114264352Y-66309000D01*
X114059648Y-66309000D01*
X114041408Y-66311889D01*
X113857465Y-66341022D01*
X113662776Y-66404281D01*
X113480386Y-66497215D01*
X113314786Y-66617528D01*
X113170028Y-66762286D01*
X113049713Y-66927888D01*
X112982203Y-67060383D01*
X112934229Y-67111178D01*
X112866408Y-67127973D01*
X112800273Y-67105435D01*
X112761234Y-67060381D01*
X112693861Y-66928152D01*
X112661474Y-66883577D01*
X112661474Y-66883576D01*
X111982000Y-67563053D01*
X111982000Y-67556839D01*
X111954741Y-67455106D01*
X111902080Y-67363894D01*
X111827606Y-67289420D01*
X111736394Y-67236759D01*
X111634661Y-67209500D01*
X111628446Y-67209500D01*
X112307922Y-66530024D01*
X112307921Y-66530023D01*
X112263359Y-66497647D01*
X112263350Y-66497641D01*
X112081031Y-66404744D01*
X111886417Y-66341509D01*
X111684317Y-66309500D01*
X111479683Y-66309500D01*
X111277581Y-66341510D01*
X111277575Y-66341511D01*
X111268207Y-66344555D01*
X111198365Y-66346546D01*
X111138534Y-66310463D01*
X111107710Y-66247760D01*
X111115678Y-66178346D01*
X111142211Y-66138944D01*
X116123577Y-61157580D01*
X117180701Y-60100457D01*
X117988111Y-59293046D01*
X117988112Y-59293045D01*
X117988112Y-59293044D01*
X117988114Y-59293043D01*
X118064775Y-59178311D01*
X118066042Y-59175254D01*
X118116266Y-59054000D01*
X118117580Y-59050828D01*
X118144500Y-58915494D01*
X118144500Y-58915478D01*
X118144515Y-58915331D01*
X118144550Y-58915243D01*
X118145689Y-58909519D01*
X118146773Y-58909734D01*
X118170667Y-58850540D01*
X118195031Y-58827153D01*
X118323792Y-58733604D01*
X118474104Y-58583292D01*
X118474106Y-58583288D01*
X118474109Y-58583286D01*
X118576996Y-58441672D01*
X118577008Y-58441655D01*
X120778000Y-58441655D01*
X120778000Y-59739500D01*
X122058936Y-59739500D01*
X122047207Y-59767816D01*
X122018000Y-59914647D01*
X122018000Y-60064353D01*
X122047207Y-60211184D01*
X122058936Y-60239500D01*
X120778000Y-60239500D01*
X120778000Y-61537344D01*
X120784401Y-61596872D01*
X120784403Y-61596879D01*
X120834645Y-61731586D01*
X120834649Y-61731593D01*
X120920809Y-61846687D01*
X120920812Y-61846690D01*
X121035906Y-61932850D01*
X121035913Y-61932854D01*
X121170620Y-61983096D01*
X121170627Y-61983098D01*
X121230155Y-61989499D01*
X121230172Y-61989500D01*
X122528000Y-61989500D01*
X122528000Y-60708564D01*
X122556316Y-60720293D01*
X122703147Y-60749500D01*
X122852853Y-60749500D01*
X122999684Y-60720293D01*
X123028000Y-60708564D01*
X123028000Y-61989500D01*
X124325828Y-61989500D01*
X124325844Y-61989499D01*
X124385372Y-61983098D01*
X124385379Y-61983096D01*
X124520086Y-61932854D01*
X124520093Y-61932850D01*
X124635187Y-61846690D01*
X124635190Y-61846687D01*
X124721350Y-61731593D01*
X124721354Y-61731586D01*
X124771596Y-61596879D01*
X124771598Y-61596872D01*
X124777999Y-61537344D01*
X124778000Y-61537327D01*
X124778000Y-60239500D01*
X123497064Y-60239500D01*
X123508793Y-60211184D01*
X123538000Y-60064353D01*
X123538000Y-59914647D01*
X123526806Y-59858372D01*
X125857500Y-59858372D01*
X125857500Y-60120627D01*
X125864825Y-60176260D01*
X125891730Y-60380616D01*
X125959602Y-60633918D01*
X125959605Y-60633928D01*
X126059953Y-60876190D01*
X126059958Y-60876200D01*
X126191075Y-61103303D01*
X126350718Y-61311351D01*
X126350726Y-61311360D01*
X126536140Y-61496774D01*
X126536148Y-61496781D01*
X126744196Y-61656424D01*
X126971299Y-61787541D01*
X126971309Y-61787546D01*
X127114096Y-61846690D01*
X127213581Y-61887898D01*
X127466884Y-61955770D01*
X127715188Y-61988460D01*
X127723074Y-61989499D01*
X127726880Y-61990000D01*
X127726887Y-61990000D01*
X127989113Y-61990000D01*
X127989120Y-61990000D01*
X128249116Y-61955770D01*
X128502419Y-61887898D01*
X128744697Y-61787543D01*
X128971803Y-61656424D01*
X129179851Y-61496782D01*
X129179855Y-61496777D01*
X129179860Y-61496774D01*
X129365274Y-61311360D01*
X129365277Y-61311355D01*
X129365282Y-61311351D01*
X129524924Y-61103303D01*
X129656043Y-60876197D01*
X129756398Y-60633919D01*
X129824270Y-60380616D01*
X129858500Y-60120620D01*
X129858500Y-59858380D01*
X129824270Y-59598384D01*
X129756398Y-59345081D01*
X129744351Y-59315997D01*
X129656046Y-59102809D01*
X129656041Y-59102799D01*
X129524924Y-58875696D01*
X129365281Y-58667648D01*
X129365274Y-58667640D01*
X129179860Y-58482226D01*
X129179851Y-58482218D01*
X128971803Y-58322575D01*
X128744700Y-58191458D01*
X128744690Y-58191453D01*
X128502428Y-58091105D01*
X128502421Y-58091103D01*
X128502419Y-58091102D01*
X128249116Y-58023230D01*
X128191339Y-58015623D01*
X127989127Y-57989000D01*
X127989120Y-57989000D01*
X127726880Y-57989000D01*
X127726872Y-57989000D01*
X127495772Y-58019426D01*
X127466884Y-58023230D01*
X127381364Y-58046145D01*
X127213581Y-58091102D01*
X127213571Y-58091105D01*
X126971309Y-58191453D01*
X126971299Y-58191458D01*
X126744196Y-58322575D01*
X126536148Y-58482218D01*
X126350718Y-58667648D01*
X126191075Y-58875696D01*
X126059958Y-59102799D01*
X126059953Y-59102809D01*
X125959605Y-59345071D01*
X125959602Y-59345081D01*
X125918418Y-59498785D01*
X125891730Y-59598385D01*
X125857500Y-59858372D01*
X123526806Y-59858372D01*
X123508793Y-59767816D01*
X123497064Y-59739500D01*
X124778000Y-59739500D01*
X124778000Y-58441672D01*
X124777999Y-58441655D01*
X124771598Y-58382127D01*
X124771596Y-58382120D01*
X124721354Y-58247413D01*
X124721350Y-58247406D01*
X124635190Y-58132312D01*
X124635187Y-58132309D01*
X124520093Y-58046149D01*
X124520086Y-58046145D01*
X124385379Y-57995903D01*
X124385372Y-57995901D01*
X124325844Y-57989500D01*
X123028000Y-57989500D01*
X123028000Y-59270435D01*
X122999684Y-59258707D01*
X122852853Y-59229500D01*
X122703147Y-59229500D01*
X122556316Y-59258707D01*
X122528000Y-59270435D01*
X122528000Y-57989500D01*
X121230155Y-57989500D01*
X121170627Y-57995901D01*
X121170620Y-57995903D01*
X121035913Y-58046145D01*
X121035906Y-58046149D01*
X120920812Y-58132309D01*
X120920809Y-58132312D01*
X120834649Y-58247406D01*
X120834645Y-58247413D01*
X120784403Y-58382120D01*
X120784401Y-58382127D01*
X120778000Y-58441655D01*
X118577008Y-58441655D01*
X118599051Y-58411316D01*
X118613924Y-58382127D01*
X118613961Y-58382055D01*
X118676401Y-58259507D01*
X118695557Y-58221912D01*
X118761246Y-58019743D01*
X118794500Y-57809787D01*
X118794500Y-57597213D01*
X118761246Y-57387257D01*
X118695557Y-57185088D01*
X118643568Y-57083054D01*
X118631972Y-57060295D01*
X118619076Y-56991626D01*
X118645352Y-56926885D01*
X118702459Y-56886628D01*
X118742457Y-56880000D01*
X133246733Y-56880000D01*
X133313772Y-56899685D01*
G37*
%TD.AperFunction*%
%TA.AperFunction,Conductor*%
G36*
X111182000Y-67662161D02*
G01*
X111209259Y-67763894D01*
X111261920Y-67855106D01*
X111336394Y-67929580D01*
X111427606Y-67982241D01*
X111529339Y-68009500D01*
X111535553Y-68009500D01*
X110856076Y-68688974D01*
X110900650Y-68721359D01*
X111082968Y-68814255D01*
X111277582Y-68877490D01*
X111479683Y-68909500D01*
X111571979Y-68909500D01*
X111639018Y-68929185D01*
X111684773Y-68981989D01*
X111694717Y-69051147D01*
X111665692Y-69114703D01*
X111659660Y-69121181D01*
X111042087Y-69738754D01*
X111011002Y-69785278D01*
X110965423Y-69853491D01*
X110912621Y-69980967D01*
X110912618Y-69980977D01*
X110885700Y-70116304D01*
X110885700Y-70327068D01*
X110877055Y-70356505D01*
X110870532Y-70386496D01*
X110866776Y-70391512D01*
X110866015Y-70394107D01*
X110849381Y-70414750D01*
X110771399Y-70492731D01*
X110710075Y-70526215D01*
X110664320Y-70527522D01*
X110482756Y-70498765D01*
X110446354Y-70493000D01*
X110217646Y-70493000D01*
X110177188Y-70499408D01*
X109991753Y-70528778D01*
X109991750Y-70528778D01*
X109774244Y-70599450D01*
X109570461Y-70703283D01*
X109504551Y-70751170D01*
X109385434Y-70837714D01*
X109385432Y-70837716D01*
X109385431Y-70837716D01*
X109223716Y-70999431D01*
X109223716Y-70999432D01*
X109223714Y-70999434D01*
X109195995Y-71037586D01*
X109174818Y-71066734D01*
X109119488Y-71109399D01*
X109049874Y-71115378D01*
X108988079Y-71082772D01*
X108953722Y-71021933D01*
X108950500Y-70993848D01*
X108950500Y-69034000D01*
X108970185Y-68966961D01*
X109022989Y-68921206D01*
X109074500Y-68910000D01*
X109184351Y-68910000D01*
X109184352Y-68910000D01*
X109386534Y-68877977D01*
X109581219Y-68814720D01*
X109763610Y-68721787D01*
X109856590Y-68654232D01*
X109929213Y-68601471D01*
X109929215Y-68601468D01*
X109929219Y-68601466D01*
X110073966Y-68456719D01*
X110073968Y-68456715D01*
X110073971Y-68456713D01*
X110194286Y-68291111D01*
X110194415Y-68290859D01*
X110221795Y-68237121D01*
X110269769Y-68186326D01*
X110337589Y-68169530D01*
X110403725Y-68192067D01*
X110442765Y-68237121D01*
X110470141Y-68290850D01*
X110470147Y-68290859D01*
X110502523Y-68335421D01*
X110502524Y-68335422D01*
X111182000Y-67655946D01*
X111182000Y-67662161D01*
G37*
%TD.AperFunction*%
%TD*%
M02*
